<svg xmlns="http://www.w3.org/2000/svg"  viewBox="0 0 64 64" width="512px" height="512px"><g data-name="27-Online Library"><path fill="#e7eaef" d="M5,12.99994H59a1.99567,1.99567,0,0,1,2,2V51.00006A1.99564,1.99564,0,0,1,59,53H5a1.99565,1.99565,0,0,1-2-1.99992V15A1.99574,1.99574,0,0,1,5,12.99994Z"/><path fill="#68b1fc" d="M7,16.99989H57v28H7Z"/><path fill="#d8dbe0" d="M41,61s-4-4.00006-4-8H27c0,3.99994-4,8-4,8Z"/><path fill="#fcb860" d="M11,37H53v3.99995H11Z"/><path fill="#68b1fc" d="M23,37.00008h9V6H23Z"/><path fill="#fc6067" d="M23,2.9999H14.00006V37h9Z"/><path fill="#59e78b" d="M50,37H41V2.9999h9Z"/><path fill="#fcb860" d="M41,8.99988H32v28h9Z"/><path fill="#cccfd4" d="M37,52.99994H27.00006a8.03368,8.03368,0,0,1-.65051,2.99567h8.3902A16.97707,16.97707,0,0,0,37.708,60.294a.9919.9919,0,0,1,.28235.706h3.0097S37,56.99988,37,52.99994Z"/><rect width="2" height="4" x="12" y="13" fill="#d8dbe0"/><polygon fill="#539ffb" points="10.001 17 7 17 7 45 10.001 45 10.001 44.998 10.001 17"/><rect width="4" height="31" x="27.999" y="6" fill="#539ffb"/><polygon fill="#fb4b5b" points="19.001 3.001 19.001 37 23 37 23 3 19.001 3 19.001 3.001"/><polygon fill="#31e170" points="46.003 3.001 46.003 37 50 37 50 3 46.003 3 46.003 3.001"/><polygon fill="#fcaa52" points="36.995 9.002 36.995 37 40.995 37 40.995 9.002 40.995 9 36.995 9 36.995 9.002"/><polygon fill="#fcaa52" points="50 41 53 41 53 37 50 37 50 37.002 50 41"/><path fill="#d8dbe0" d="M59.00006,12.99994H57.21161a2.96741,2.96741,0,0,1,.78821,1.998V50.99951a2.96756,2.96756,0,0,1-.79016,2.00043h1.7904A1.99559,1.99559,0,0,0,61,51.00006V14.99994A1.99565,1.99565,0,0,0,59.00006,12.99994Z"/><path fill="#e7eaef" d="M14,12.99994h9V8.99988H14Z"/><path fill="#e7eaef" d="M50,26.99992H41V31h9Z"/><path fill="#e7eaef" d="M32,27h-9V31h9Z"/><path fill="#e7eaef" d="M41,15h-9V19h9Z"/><rect width="3.999" height="4" x="19.001" y="9" fill="#d8dbe0"/><rect width="3.997" height="4" x="46.003" y="27" fill="#d8dbe0"/><rect width="4.005" height="4" x="36.995" y="15" fill="#d8dbe0"/><rect width="3.999" height="4" x="27.999" y="27" fill="#d8dbe0"/><path d="M59,12H51V3a.99974.99974,0,0,0-1-1H41a.99974.99974,0,0,0-1,1V8H33V6a.99974.99974,0,0,0-1-1H24V3a.99974.99974,0,0,0-1-1H14a.99974.99974,0,0,0-1,1v9H5a3.00328,3.00328,0,0,0-3,3V51a3.00328,3.00328,0,0,0,3,3H25.89954c-.46772,2.63531-2.57874,5.16632-3.33381,6H20a1,1,0,0,0,0,2H44a1,1,0,0,0,0-2H41.43427c-.75507-.83368-2.866-3.36469-3.33375-6H59a3.00328,3.00328,0,0,0,3-3V15A3.00328,3.00328,0,0,0,59,12ZM52,38v2H12V38ZM42,36V32h7v4Zm7-6H42V28h7ZM40,18H33V16h7Zm0,2V36H33V20ZM24,36V32h7v4Zm7-6H24V28h7ZM22,12H15V10h7Zm0,2V36H15V14ZM13,36H11a.99974.99974,0,0,0-1,1v4a.99974.99974,0,0,0,1,1H53a.99974.99974,0,0,0,1-1V37a.99974.99974,0,0,0-1-1H51V18h5V44H8V18h5ZM49,4V26H42V4Zm-9,6v4H33V10ZM31,7V26H24V7ZM22,4V8H15V4ZM38.83856,60H25.16144a13.61634,13.61634,0,0,0,2.76221-6h8.1527A13.61634,13.61634,0,0,0,38.83856,60ZM60,51a1.001,1.001,0,0,1-1,1H5a1.001,1.001,0,0,1-1-1V15a1.001,1.001,0,0,1,1-1h8v2H7a.99974.99974,0,0,0-1,1V45a.99974.99974,0,0,0,1,1H57a.99974.99974,0,0,0,1-1V17a.99974.99974,0,0,0-1-1H51V14h8a1.001,1.001,0,0,1,1,1ZM35,49a.99974.99974,0,0,1-1,1H30a1,1,0,0,1,0-2h4A.99974.99974,0,0,1,35,49Z"/></g></svg>