<svg width="2070" height="1685" viewBox="0 0 2070 1685" fill="none" xmlns="http://www.w3.org/2000/svg">
<path opacity="0.150019" fill-rule="evenodd" clip-rule="evenodd" d="M1493.81 630.962L1751.69 373.712C1762.81 362.616 1780.82 362.616 1791.94 373.712L2049.83 630.962C2060.97 642.077 2060.99 660.121 2049.88 671.264C2049.86 671.28 2049.84 671.297 2049.83 671.313L1791.94 928.564C1780.82 939.66 1762.81 939.66 1751.69 928.564L1493.81 671.313C1482.66 660.198 1482.64 642.154 1493.76 631.012C1493.77 630.995 1493.79 630.978 1493.81 630.962Z" fill="#B8A8C7"/>
<g opacity="0.0375744" filter="url(#filter0_f_166_416)">
<path fill-rule="evenodd" clip-rule="evenodd" d="M613.277 163.814L756.966 20.4787C768.089 9.38257 786.095 9.38258 797.218 20.4787L940.907 163.814C952.05 174.93 952.072 192.974 940.956 204.116C940.94 204.133 940.923 204.15 940.907 204.166L797.218 347.502C786.095 358.598 768.089 358.598 756.966 347.502L613.277 204.166C602.135 193.051 602.112 175.007 613.228 163.864C613.244 163.847 613.261 163.831 613.277 163.814Z" fill="#2A8DC1"/>
</g>
<path opacity="0.0659412" fill-rule="evenodd" clip-rule="evenodd" d="M762.184 646.854L1298.05 112.3C1309.18 101.203 1327.18 101.204 1338.31 112.3L1874.17 646.854C1885.32 657.969 1885.34 676.013 1874.22 687.156C1874.21 687.172 1874.19 687.189 1874.17 687.205L1338.31 1221.76C1327.18 1232.86 1309.18 1232.86 1298.05 1221.76L762.184 687.205C751.041 676.09 751.019 658.046 762.134 646.903C762.151 646.887 762.167 646.87 762.184 646.854Z" fill="#997EB0"/>
<path opacity="0.0895647" d="M363.698 673.902C375.799 661.802 395.393 661.778 407.464 673.849L748.414 1014.8C760.484 1026.87 760.46 1046.46 748.36 1058.56L406.571 1400.35C394.471 1412.45 374.876 1412.48 362.806 1400.41L21.8558 1059.46C9.7852 1047.39 9.80924 1027.79 21.9095 1015.69L363.698 673.902ZM385.392 827.053L175.061 1037.38L384.876 1247.2L595.207 1036.87L385.392 827.053Z" fill="#2A8DC1"/>
<path fill-rule="evenodd" clip-rule="evenodd" d="M571.466 976.015L571.465 1385.72L571.882 1385.32L571.785 1405.64L807.372 1639.88H775.969L571.465 1436.44L571.466 1639.76H546.661L546.66 1444.2L350.081 1639.88H315.576L546.66 1410.06L546.661 976.015H571.466Z" fill="#2A8DC1"/>
<path fill-rule="evenodd" clip-rule="evenodd" d="M603.728 1376.12H517.499C509.63 1376.12 503.25 1382.5 503.25 1390.37V1411.5C503.25 1419.37 509.63 1425.75 517.499 1425.75H603.728C611.597 1425.75 617.977 1419.37 617.977 1411.5V1390.37C617.977 1382.5 611.597 1376.12 603.728 1376.12Z" fill="#2A8DC1"/>
<path fill-rule="evenodd" clip-rule="evenodd" d="M366.159 397.508H800.897C809.028 397.508 815.619 404.075 815.619 412.175V1137.31C815.619 1145.19 809.389 1151.61 801.571 1151.96L800.84 1151.98L366.102 1150.3C357.993 1150.26 351.437 1143.71 351.437 1135.63V412.175C351.437 404.075 358.028 397.508 366.159 397.508Z" fill="#0E587E"/>
<path fill-rule="evenodd" clip-rule="evenodd" d="M344.867 397.508H779.605C787.736 397.508 794.327 404.075 794.327 412.175V1137.31C794.327 1145.19 788.097 1151.61 780.279 1151.96L779.548 1151.98L344.81 1150.3C336.701 1150.26 330.145 1143.71 330.145 1135.63V412.175C330.145 404.075 336.736 397.508 344.867 397.508Z" fill="#2A8DC1"/>
<path fill-rule="evenodd" clip-rule="evenodd" d="M365.849 412.66H758.02C767.322 412.66 774.863 420.172 774.863 429.438V1114.05C774.863 1123.31 767.322 1130.82 758.02 1130.82H365.849C356.547 1130.82 349.007 1123.31 349.007 1114.05V429.438C349.007 420.172 356.547 412.66 365.849 412.66Z" fill="white"/>
<path fill-rule="evenodd" clip-rule="evenodd" d="M488.931 1109.61H607.562C614.282 1109.61 619.729 1115.04 619.729 1121.73V1161.13H488.931C482.211 1161.13 476.764 1155.7 476.764 1149.01V1121.73C476.764 1115.04 482.211 1109.61 488.931 1109.61Z" fill="#A7C3FF"/>
<path fill-rule="evenodd" clip-rule="evenodd" d="M616.688 1149.01H628.856V1161.13H616.688V1149.01Z" fill="#A7C3FF"/>
<path fill-rule="evenodd" clip-rule="evenodd" d="M482.848 1109.61H601.479C608.199 1109.61 613.646 1115.04 613.646 1121.73V1149.01C613.646 1155.7 608.199 1161.13 601.479 1161.13H482.848C476.128 1161.13 470.681 1155.7 470.681 1149.01V1121.73C470.681 1115.04 476.128 1109.61 482.848 1109.61Z" fill="#C8DAFF"/>
<g filter="url(#filter1_dd_166_416)">
<path d="M308.134 881.972H724.464C732.945 881.972 739.821 888.847 739.821 897.329V1032.72C739.821 1041.21 732.945 1048.08 724.464 1048.08H308.134C299.653 1048.08 292.777 1041.21 292.777 1032.72V897.329C292.777 888.847 299.653 881.972 308.134 881.972Z" fill="black"/>
</g>
<path d="M308.134 881.972H724.464C732.945 881.972 739.821 888.847 739.821 897.329V1032.72C739.821 1041.21 732.945 1048.08 724.464 1048.08H308.134C299.653 1048.08 292.777 1041.21 292.777 1032.72V897.329C292.777 888.847 299.653 881.972 308.134 881.972Z" fill="white"/>
<path opacity="0.465472" d="M443.477 974.254H527.172C529.952 974.254 532.205 976.508 532.205 979.288C532.205 982.068 529.952 984.322 527.172 984.322H443.477C440.697 984.322 438.443 982.068 438.443 979.288C438.443 976.508 440.697 974.254 443.477 974.254Z" fill="#FBE0A2"/>
<path d="M443.477 945.731H493.685C496.465 945.731 498.719 947.985 498.719 950.765C498.719 953.545 496.465 955.799 493.685 955.799H443.477C440.697 955.799 438.443 953.545 438.443 950.765C438.443 947.985 440.697 945.731 443.477 945.731Z" fill="#FBE0A2"/>
<path d="M602.955 946.19C604.392 943.028 608.116 941.633 611.272 943.074C612.315 943.55 613.206 944.303 613.85 945.247L614.08 945.61L626.394 966.595C626.511 966.795 626.767 966.862 626.967 966.744L627.021 966.706L627.068 966.66L633.62 959.237C635.917 956.634 639.885 956.39 642.483 958.693C642.654 958.844 642.816 959.004 642.969 959.173L643.192 959.433L652.8 971.258C652.946 971.437 653.21 971.464 653.389 971.318L653.439 971.27L653.481 971.214L668.657 946.636C670.482 943.681 674.352 942.768 677.301 944.596C677.757 944.88 678.175 945.22 678.545 945.609L678.812 945.91L685.883 954.379C686.921 955.623 686.757 957.475 685.515 958.515C684.343 959.498 682.63 959.406 681.568 958.344L681.388 958.147L674.318 949.678C674.289 949.643 674.255 949.614 674.217 949.59C674.053 949.489 673.847 949.514 673.712 949.639L673.641 949.726L658.464 974.304C658.096 974.9 657.631 975.43 657.089 975.872C654.493 977.99 650.717 977.685 648.489 975.236L648.256 974.966L638.648 963.141C638.633 963.123 638.617 963.107 638.6 963.091C638.456 962.964 638.248 962.954 638.094 963.054L638.01 963.128L631.458 970.551C631.02 971.047 630.507 971.471 629.937 971.806C627.048 973.509 623.355 972.631 621.525 969.865L621.342 969.572L609.029 948.587C608.985 948.513 608.92 948.453 608.842 948.418C608.666 948.338 608.465 948.389 608.347 948.53L608.287 948.625L596.29 975.008C595.843 975.992 595.152 976.841 594.285 977.476L593.952 977.705L579.728 986.793C578.364 987.664 576.552 987.263 575.682 985.895C574.861 984.604 575.173 982.913 576.359 981.995L576.578 981.841L590.802 972.753C590.847 972.724 590.887 972.686 590.918 972.643L590.958 972.573L602.955 946.19Z" fill="#FBE0A2"/>
<path d="M375.657 1001.1C394.613 1001.1 409.98 985.701 409.98 966.704C409.98 947.707 394.613 932.308 375.657 932.308C356.7 932.308 341.333 947.707 341.333 966.704C341.333 985.701 356.7 1001.1 375.657 1001.1Z" fill="#FBE0A2"/>
<mask id="mask0_166_416" style="mask-type:alpha" maskUnits="userSpaceOnUse" x="292" y="451" width="447" height="378">
<path d="M315.576 451.654H715.904C728.495 451.654 738.702 461.861 738.702 474.453V805.64C738.702 818.232 728.495 828.439 715.904 828.439H315.576C302.984 828.439 292.777 818.232 292.777 805.64V474.453C292.777 461.861 302.984 451.654 315.576 451.654Z" fill="white"/>
</mask>
<g mask="url(#mask0_166_416)">
<g filter="url(#filter2_dd_166_416)">
<path d="M315.576 451.654H715.904C728.495 451.654 738.702 461.861 738.702 474.453V805.64C738.702 818.232 728.495 828.439 715.904 828.439H315.576C302.984 828.439 292.777 818.232 292.777 805.64V474.453C292.777 461.861 302.984 451.654 315.576 451.654Z" fill="black"/>
</g>
<path d="M315.576 451.654H715.904C728.495 451.654 738.702 461.861 738.702 474.453V805.64C738.702 818.232 728.495 828.439 715.904 828.439H315.576C302.984 828.439 292.777 818.232 292.777 805.64V474.453C292.777 461.861 302.984 451.654 315.576 451.654Z" fill="white"/>
<path opacity="0.414737" fill-rule="evenodd" clip-rule="evenodd" d="M352.433 736.755C387.696 726.673 413.101 711.342 428.649 690.764C451.972 659.896 459.835 629.976 499.947 629.976C540.059 629.976 545.202 675.8 588.565 675.8C631.927 675.8 634.299 617.362 648.711 594.157C658.319 578.688 671.413 570.953 687.995 570.953V769.739C687.995 772.509 685.749 774.755 682.979 774.755H357.448C354.678 774.755 352.433 772.509 352.433 769.739V736.755Z" fill="#FFE3B5"/>
<g filter="url(#filter3_f_166_416)">
<path d="M352.433 739.959C387.696 729.833 413.101 714.436 428.649 693.768C451.972 662.766 459.835 632.717 499.947 632.717C540.059 632.717 545.202 678.74 588.565 678.74C631.927 678.74 634.299 620.048 648.711 596.743C658.319 581.206 671.413 573.438 687.995 573.438" fill="black"/>
</g>
<path d="M352.433 739.959C387.696 729.833 413.101 714.436 428.649 693.768C451.972 662.766 459.835 632.717 499.947 632.717C540.059 632.717 545.202 678.74 588.565 678.74C631.927 678.74 634.299 620.048 648.711 596.743C658.319 581.206 671.413 573.438 687.995 573.438" stroke="#FBE0A2" stroke-width="2.64" stroke-linecap="round"/>
<path d="M466.772 488.935H327.576V503.847H466.772V488.935Z" fill="#FBE0A2"/>
<path opacity="0.465472" d="M335.032 526.217H384.747C388.865 526.217 392.203 529.555 392.203 533.673C392.203 537.791 388.865 541.129 384.747 541.129H335.032C330.914 541.129 327.576 537.791 327.576 533.673C327.576 529.555 330.914 526.217 335.032 526.217Z" fill="#FBE0A2"/>
<path fill-rule="evenodd" clip-rule="evenodd" d="M651.953 506.333C656.757 506.333 660.652 502.438 660.652 497.634C660.652 492.83 656.757 488.935 651.953 488.935C647.148 488.935 643.253 492.83 643.253 497.634C643.253 502.438 647.148 506.333 651.953 506.333Z" fill="white"/>
<path fill-rule="evenodd" clip-rule="evenodd" d="M676.809 506.333C681.614 506.333 685.509 502.438 685.509 497.634C685.509 492.83 681.614 488.935 676.809 488.935C672.004 488.935 668.109 492.83 668.109 497.634C668.109 502.438 672.004 506.333 676.809 506.333Z" fill="white"/>
<path fill-rule="evenodd" clip-rule="evenodd" d="M701.666 506.333C706.47 506.333 710.365 502.438 710.365 497.634C710.365 492.83 706.47 488.935 701.666 488.935C696.861 488.935 692.966 492.83 692.966 497.634C692.966 502.438 696.861 506.333 701.666 506.333Z" fill="white"/>
</g>
<path fill-rule="evenodd" clip-rule="evenodd" d="M1332.89 1598.14L1218.83 1591.88H1183.85L1069.32 1598.14C1066.78 1598.28 1064.8 1600.38 1064.8 1602.92V1611.42H1337.42V1602.92C1337.42 1600.38 1335.43 1598.28 1332.89 1598.14Z" fill="#B8A8C7"/>
<path fill-rule="evenodd" clip-rule="evenodd" d="M1214.09 1397.77H1188.12V1593.18H1214.09V1397.77Z" fill="#B8A8C7"/>
<path d="M1181.63 1565.82H1220.58V1611.42H1181.63V1565.82Z" fill="#2A8DC1"/>
<path fill-rule="evenodd" clip-rule="evenodd" d="M1231.17 1383.44H1171.05C1169.72 1383.44 1168.65 1384.51 1168.65 1385.84V1406.58C1168.65 1407.55 1169.25 1408.43 1170.15 1408.8L1184.45 1414.54C1184.73 1414.65 1185.04 1414.71 1185.34 1414.71H1216.87C1217.18 1414.71 1217.48 1414.65 1217.76 1414.54L1232.06 1408.8C1232.97 1408.43 1233.56 1407.55 1233.56 1406.58V1385.84C1233.56 1384.51 1232.49 1383.44 1231.17 1383.44Z" fill="#2A8DC1"/>
<path d="M1317.94 1611.42H1343.91V1637.47H1317.94V1611.42Z" fill="#2A8DC1"/>
<path d="M1058.31 1611.42H1084.27V1637.47H1058.31V1611.42Z" fill="#2A8DC1"/>
<path d="M1188.12 1611.42H1214.09V1637.47H1188.12V1611.42Z" fill="#2A8DC1"/>
<path fill-rule="evenodd" clip-rule="evenodd" d="M1211.42 1346.97H1047.99C1036.48 1346.97 1027.15 1356.3 1027.15 1367.81C1027.15 1379.32 1036.48 1388.65 1047.99 1388.65H1211.42C1222.93 1388.65 1232.26 1379.32 1232.26 1367.81C1232.26 1356.3 1222.93 1346.97 1211.42 1346.97Z" fill="#B8A8C7"/>
<path fill-rule="evenodd" clip-rule="evenodd" d="M1333.52 1154.16H1297.17C1297.17 1188.9 1297.17 1223.64 1297.17 1258.38C1297.17 1293.12 1277.7 1327.86 1238.75 1362.6H1286.79C1317.94 1333.01 1333.52 1298.28 1333.52 1258.38C1333.52 1223.64 1333.52 1188.9 1333.52 1154.16Z" fill="#2A8DC1"/>
<path fill-rule="evenodd" clip-rule="evenodd" d="M1317.94 1154.16H1281.59C1281.59 1188.9 1281.59 1223.64 1281.59 1258.38C1281.59 1293.12 1262.12 1327.86 1223.17 1362.6H1266.01C1300.63 1333.83 1317.94 1299.09 1317.94 1258.38C1317.94 1223.64 1317.94 1188.9 1317.94 1154.16Z" fill="#B8A8C7"/>
<path fill-rule="evenodd" clip-rule="evenodd" d="M1400.46 1078.61H1213.27C1200.05 1078.61 1189.33 1089.32 1189.33 1102.55V1208.03C1189.33 1221.25 1200.05 1231.97 1213.27 1231.97H1400.46C1413.68 1231.97 1424.39 1221.25 1424.39 1208.03V1102.55C1424.39 1089.32 1413.68 1078.61 1400.46 1078.61Z" fill="#B8A8C7"/>
<path fill-rule="evenodd" clip-rule="evenodd" d="M1408.68 1078.61C1399.39 1078.61 1391.85 1086.14 1391.85 1095.44V1215.14C1391.85 1224.43 1399.39 1231.97 1408.68 1231.97C1417.98 1231.97 1425.52 1224.43 1425.52 1215.14V1095.44C1425.52 1086.14 1417.98 1078.61 1408.68 1078.61Z" fill="#2A8DC1"/>
<path fill-rule="evenodd" clip-rule="evenodd" d="M1338.64 1346.97H1180.41C1168.9 1346.97 1159.57 1356.3 1159.57 1367.81C1159.57 1379.32 1168.9 1388.65 1180.41 1388.65H1338.64C1350.15 1388.65 1359.49 1379.32 1359.49 1367.81C1359.49 1356.3 1350.15 1346.97 1338.64 1346.97Z" fill="#2A8DC1"/>
<path fill-rule="evenodd" clip-rule="evenodd" d="M735.503 1116.99V1105.05L750.56 1105.05L750.56 1098.72C750.56 1095.23 753.369 1092.4 756.834 1092.4C760.298 1092.4 763.107 1095.23 763.107 1098.72V1111.93C763.107 1114.72 760.86 1116.99 758.088 1116.99H735.503Z" fill="#02B596"/>
<path fill-rule="evenodd" clip-rule="evenodd" d="M693.738 1123.86V1112.47C693.738 1108.97 696.547 1106.14 700.012 1106.14C703.477 1106.14 706.286 1108.97 706.286 1112.47L706.285 1118.8H713.812L713.814 1089.68C713.814 1081.99 719.994 1075.76 727.616 1075.76C735.239 1075.76 741.419 1081.99 741.419 1089.68V1161.84H713.814L713.812 1131.46L701.267 1131.46C697.109 1131.46 693.738 1128.06 693.738 1123.86Z" fill="#02D3AF"/>
<path fill-rule="evenodd" clip-rule="evenodd" d="M694.933 1142.07H758.666L754.107 1203.4C753.982 1205.08 752.597 1206.37 750.929 1206.37H702.669C701.002 1206.37 699.616 1205.08 699.491 1203.4L694.933 1142.07Z" fill="url(#paint0_linear_166_416)"/>
<path fill-rule="evenodd" clip-rule="evenodd" d="M694.933 1142.07H758.666C760.426 1142.07 761.852 1143.51 761.852 1145.29V1158.15C761.852 1159.92 760.426 1161.36 758.666 1161.36H694.933C693.173 1161.36 691.746 1159.92 691.746 1158.15V1145.29C691.746 1143.51 693.173 1142.07 694.933 1142.07Z" fill="#FFB3A4"/>
<path fill-rule="evenodd" clip-rule="evenodd" d="M905.997 1199.78H1205.95C1208.33 1199.78 1210.25 1201.7 1210.25 1204.07C1210.25 1206.45 1208.33 1208.37 1205.95 1208.37H905.997C903.625 1208.37 901.701 1206.45 901.701 1204.07C901.701 1201.7 903.625 1199.78 905.997 1199.78Z" fill="#FFF5BF"/>
<path fill-rule="evenodd" clip-rule="evenodd" d="M1109.25 1199.78H1205.95C1208.33 1199.78 1210.25 1201.7 1210.25 1204.07C1210.25 1206.45 1208.33 1208.37 1205.95 1208.37H1109.25C1106.88 1208.37 1104.95 1206.45 1104.95 1204.07C1104.95 1201.7 1106.88 1199.78 1109.25 1199.78Z" fill="#C2C2C2"/>
<path fill-rule="evenodd" clip-rule="evenodd" d="M897.187 1070.06H1086.04C1091.2 1070.06 1095.56 1073.89 1096.21 1079.02L1110.22 1188.59C1110.94 1194.21 1106.97 1199.35 1101.35 1200.07C1100.91 1200.12 1100.48 1200.15 1100.04 1200.15H911.194C906.031 1200.15 901.672 1196.31 901.018 1191.19L887.011 1081.62C886.292 1076 890.266 1070.86 895.886 1070.14C896.318 1070.09 896.752 1070.06 897.187 1070.06Z" fill="#C2C2C2"/>
<path fill-rule="evenodd" clip-rule="evenodd" d="M897.187 1070.06H1079.39C1084.55 1070.06 1088.91 1073.89 1089.56 1079.02L1103.57 1188.59C1104.29 1194.21 1100.31 1199.35 1094.69 1200.07C1094.26 1200.12 1093.83 1200.15 1093.39 1200.15H911.194C906.031 1200.15 901.672 1196.31 901.018 1191.19L887.011 1081.62C886.292 1076 890.266 1070.86 895.886 1070.14C896.318 1070.09 896.752 1070.06 897.187 1070.06Z" fill="#C2C2C2"/>
<path fill-rule="evenodd" clip-rule="evenodd" d="M1250.3 1175.5H1379.97C1388.63 1175.5 1395.64 1182.52 1395.64 1191.17C1395.64 1199.83 1388.63 1206.85 1379.97 1206.85H1250.3C1248.73 1206.85 1247.46 1205.57 1247.46 1204V1178.35C1247.46 1176.78 1248.73 1175.5 1250.3 1175.5Z" fill="#F16B79"/>
<path d="M1250.3 1181.77H1324.49C1329.69 1181.77 1333.9 1185.98 1333.9 1191.17C1333.9 1196.37 1329.69 1200.58 1324.49 1200.58H1250.3C1248.73 1200.58 1247.46 1199.3 1247.46 1197.73V1184.62C1247.46 1183.05 1248.73 1181.77 1250.3 1181.77Z" fill="#EAEFFF"/>
<path d="M1091.56 1530.02L1095.96 1590.02L1131.26 1589.57C1131.26 1589.57 1135.2 1518.26 1134.34 1516.91C1133.49 1515.56 1091.56 1530.02 1091.56 1530.02Z" fill="#FFCDC2"/>
<path d="M1147.08 1637.44C1114.41 1639.09 1069.69 1642.05 1024 1639.49C1024 1639.49 1004.34 1606.58 1048.42 1603.04C1092.51 1599.49 1090.46 1574.3 1090.46 1574.3C1104.12 1573.04 1121.39 1573.01 1142.45 1571.09L1147.08 1637.44Z" fill="#1B2D37"/>
<path d="M982.987 1383.06L937.604 1422.54L959.521 1451.21C959.521 1451.21 1019.05 1411.82 1019.62 1410.3C1020.2 1408.78 982.987 1383.06 982.987 1383.06Z" fill="#FFCDC2"/>
<path d="M930.733 1491.59C909.907 1466.4 880.731 1432.33 855.58 1394.24C855.58 1394.24 869.856 1359.08 899.032 1392.27C928.208 1425.46 946.884 1408.96 946.884 1408.96C956.034 1419.16 966.384 1432.98 980.51 1448.7L930.733 1491.59Z" fill="#1B2D37"/>
<path d="M1193.72 1237.59L1157 1223.5C1147.17 1221.98 1137.12 1222.94 1127.76 1226.32C1118.4 1229.69 1110.03 1235.36 1103.42 1242.81C1081.18 1266.76 972.784 1372.96 956.359 1389.14C955.761 1389.73 955.384 1390.51 955.293 1391.34C955.202 1392.17 955.403 1393.01 955.86 1393.71C961.219 1402.16 978.991 1429.45 990.581 1440.12C991.287 1440.78 992.225 1441.14 993.191 1441.11C994.158 1441.08 995.074 1440.67 995.74 1439.97C1007.5 1427.48 1059.97 1372.13 1072.24 1369.19C1086.09 1365.87 1218.52 1344.76 1218.52 1344.76C1292.95 1380.38 1343.54 1374.38 1343.94 1280.62L1196.88 1233.17L1193.72 1237.59Z" fill="#22393D"/>
<path d="M1184.59 1134.46C1184.59 1134.46 1182.57 1148.99 1182.37 1155.57C1182.37 1155.57 1157.68 1161.36 1152.13 1167.18L1191.21 1182.42L1212.84 1178.98L1219.01 1156.71L1184.59 1134.46Z" fill="#E0A4AB"/>
<path d="M1236.68 1352.37C1236.68 1352.37 1142 1299.73 1110.92 1317.22C1101.58 1322.48 1066.27 1338.83 1067.62 1374.91C1070.53 1453.73 1081.02 1557.06 1081.02 1557.06C1081.09 1557.89 1081.46 1558.68 1082.06 1559.26C1082.66 1559.85 1083.45 1560.2 1084.29 1560.25C1107.01 1561.77 1127.22 1561.02 1144.09 1557.36C1144.86 1557.18 1145.56 1556.75 1146.05 1556.13C1146.55 1555.51 1146.81 1554.73 1146.8 1553.94C1146.8 1553.94 1146.8 1474.59 1146.8 1412.26C1146.95 1370.41 1204.16 1350.9 1236.68 1352.37Z" fill="#121E21"/>
<path d="M1321.71 1013.5C1321.71 1013.5 1397.62 1017.9 1403.25 1068.85C1403.26 1071.13 1403.14 1073.4 1402.9 1075.66C1402.9 1086.53 1395.17 1120.42 1377.51 1172.74C1363.85 1208.01 1352.45 1244.12 1343.39 1280.85C1343.39 1280.85 1273.89 1263.49 1193.17 1237.69C1202.48 1211.72 1210.39 1185.27 1216.87 1158.44C1200.74 1151.44 1186.45 1140.79 1175.09 1127.33C1174.05 1126.08 1173.51 1124.48 1173.59 1122.85C1173.66 1121.25 1174.3 1119.72 1175.39 1118.54C1189.6 1103.23 1202.37 1086.63 1213.53 1068.95C1216.83 1063.68 1221.54 1059.45 1227.12 1056.75L1277.01 1032.61L1317.1 1013.32L1321.71 1013.5Z" fill="#30469C"/>
<path d="M1251.1 1010.53C1251.1 1010.53 1263.82 1026.91 1252.26 1044.82C1250.66 1047.28 1249.7 1050.09 1249.47 1053C1248.61 1064.74 1249.87 1090.85 1282.5 1069.62C1284.45 1068.33 1286.28 1066.86 1287.96 1065.23C1303.21 1050.32 1316.12 1033.24 1326.28 1014.55C1326.28 1014.55 1296.49 987.009 1283.48 960.32L1251.1 1010.53Z" fill="#E0A4AB"/>
<path d="M1184.94 948.703L1192.95 966.95C1192.95 966.95 1197.71 979.272 1202.58 993.436C1209.38 1013.18 1225.5 1024.18 1244.71 1017.83C1266.14 1010.74 1283.58 983.305 1282.76 967.722L1294.11 962.32L1298.51 936.481L1274.67 928.664L1269.87 939.692L1252.65 913.629L1184.94 948.703Z" fill="#FFCDC2"/>
<path d="M1169.8 955.93C1169.8 955.93 1170.07 866.804 1240.09 870.858C1246.65 871.286 1253.07 872.985 1258.99 875.862L1259.22 875.987C1259.22 875.987 1317.5 853.118 1313.45 950.55C1313.21 956.605 1308.49 982.702 1302 988.082C1302 988.082 1291.29 987.256 1282.27 967.515C1282.27 967.515 1290.17 961.209 1291.57 952.702C1292.21 948.624 1292.41 942.093 1286.6 938.215C1279.74 933.561 1269.85 941.267 1274.75 954.904C1269.53 956.781 1254.87 928.056 1253.01 918.673C1253.01 918.673 1245.55 928.857 1173.1 957.756C1172.77 957.913 1172.4 957.988 1172.04 957.976C1171.67 957.964 1171.31 957.865 1170.99 957.687C1170.67 957.509 1170.39 957.257 1170.19 956.952C1169.98 956.647 1169.85 956.297 1169.8 955.93Z" fill="#1E1E1E"/>
<path d="M1192.51 1177.62C1192.51 1177.62 1264.99 1169.5 1301.75 1172.19C1304.81 1165.42 1308.77 1159.1 1313.52 1153.39C1329.74 1160.68 1346.71 1166.15 1364.13 1169.7L1336.77 1212.18C1336.77 1212.18 1332.19 1225.73 1270.36 1214.67C1210.61 1203.91 1200.39 1204.71 1200.39 1204.71L1192.51 1177.62Z" fill="#FFCDC2"/>
<path d="M1192.43 1177.03C1192.43 1177.03 1183.04 1180.3 1153.98 1163.52C1150.87 1161.78 1147.37 1160.9 1143.83 1160.97C1136.4 1160.97 1124.01 1162.42 1115.51 1169.68C1114.65 1170.26 1113.82 1170.9 1113.04 1171.59L1111.95 1172.79C1110.06 1174.81 1108.63 1177.22 1107.74 1179.87C1106.85 1182.51 1106.53 1185.32 1106.79 1188.11C1106.9 1191.61 1107.75 1195.04 1109.27 1198.17C1112.47 1202.89 1114.65 1195.39 1114.65 1195.39C1114.65 1195.39 1115.79 1203.86 1120.81 1204.99C1121.2 1205.04 1121.58 1205 1121.95 1204.87C1122.31 1204.74 1122.64 1204.53 1122.91 1204.24C1123.18 1203.96 1123.38 1203.62 1123.5 1203.24C1123.61 1202.87 1123.65 1202.47 1123.59 1202.08L1123.12 1199.19C1123.12 1199.19 1126.76 1208.61 1130.35 1205.29C1130.8 1204.85 1131.14 1204.31 1131.35 1203.7C1131.55 1203.1 1131.61 1202.45 1131.52 1201.82L1131.29 1199.8C1131.29 1199.8 1133.18 1209.1 1137.88 1207.46C1138.85 1207.1 1139.66 1206.41 1140.2 1205.5C1140.73 1204.6 1140.96 1203.54 1140.83 1202.48L1140.51 1199.19C1140.47 1198.86 1140.47 1198.53 1140.51 1198.19C1140.86 1195.82 1142.99 1186.99 1154.41 1195.05C1161.74 1201.07 1170.61 1204.75 1179.94 1205.65C1194.81 1206.77 1200.08 1204.91 1200.08 1204.91L1192.43 1177.03Z" fill="#FFCDC2"/>
<path d="M1119.32 1176.11C1118.15 1179.11 1117.22 1182.22 1116.56 1185.4C1116.2 1186.98 1115.94 1188.55 1115.63 1190.16C1115.32 1191.76 1115.08 1193.38 1114.69 1195.04C1114.37 1193.38 1114.23 1191.69 1114.29 1190C1114.33 1188.31 1114.53 1186.62 1114.89 1184.97C1115.26 1183.31 1115.79 1181.71 1116.49 1180.19C1117.17 1178.64 1118.14 1177.25 1119.32 1176.11Z" fill="#E0A4AB"/>
<path d="M1125.63 1182.42C1125 1185.23 1124.3 1187.88 1123.78 1190.57C1123.47 1191.9 1123.3 1193.26 1123.1 1194.62C1122.91 1195.98 1122.84 1197.34 1122.73 1198.82C1121.75 1196.08 1121.58 1193.04 1122.23 1190.18C1122.53 1188.75 1122.96 1187.37 1123.52 1186.05C1124.05 1184.72 1124.77 1183.5 1125.63 1182.42Z" fill="#E0A4AB"/>
<path d="M1133.2 1187.47C1132.68 1189.49 1132.1 1191.29 1131.71 1193.13C1131.48 1194.04 1131.38 1194.97 1131.25 1195.91C1131.12 1196.84 1131.25 1197.77 1131.25 1198.82C1130.4 1197.98 1129.83 1197.01 1129.6 1195.98C1129.36 1194.95 1129.36 1193.9 1129.6 1192.88C1129.82 1191.86 1130.25 1190.87 1130.86 1189.94C1131.41 1189.01 1132.21 1188.17 1133.2 1187.47Z" fill="#E0A4AB"/>
<path d="M1177.37 1174.85C1182.25 1175.69 1186.68 1178.17 1189.9 1181.86C1190.71 1182.77 1191.44 1183.74 1192.09 1184.77C1192.72 1185.82 1193.26 1186.91 1193.69 1188.05C1194.58 1190.28 1195.04 1192.65 1195.04 1195.04C1194.34 1192.84 1193.46 1190.7 1192.4 1188.64C1191.36 1186.63 1190.05 1184.75 1188.51 1183.07C1187 1181.36 1185.31 1179.82 1183.45 1178.48C1181.53 1177.11 1179.49 1175.89 1177.37 1174.85Z" fill="#E0A4AB"/>
<path d="M1543.28 1075.76H1917.15V1641H1543.28V1075.76Z" fill="#B8A8C7"/>
<path d="M1543.28 1075.76H1816.27V1641H1543.28V1075.76Z" fill="#EAE6EE"/>
<path fill-rule="evenodd" clip-rule="evenodd" d="M1770.64 1456.56H1588.9C1576.81 1456.56 1567.02 1466.35 1567.02 1478.44V1595.32C1567.02 1607.41 1576.81 1617.2 1588.9 1617.2H1770.64C1782.73 1617.2 1792.53 1607.41 1792.53 1595.32V1478.44C1792.53 1466.35 1782.73 1456.56 1770.64 1456.56Z" fill="#D2C9DB"/>
<path fill-rule="evenodd" clip-rule="evenodd" d="M1715.38 1456.56H1644.16V1475.36C1644.16 1481.41 1649.06 1486.31 1655.11 1486.31H1704.44C1710.48 1486.31 1715.38 1481.41 1715.38 1475.36V1456.56Z" fill="#B8A8C7"/>
<path fill-rule="evenodd" clip-rule="evenodd" d="M1786.83 1130.55H1588.9C1576.81 1130.55 1567.02 1140.34 1567.02 1152.43V1238.32C1567.02 1250.41 1576.81 1260.21 1588.9 1260.21H1786.83C1789.98 1260.21 1792.53 1257.65 1792.53 1254.51V1136.25C1792.53 1133.1 1789.98 1130.55 1786.83 1130.55Z" fill="#B8A8C7"/>
<path fill-rule="evenodd" clip-rule="evenodd" d="M1721.19 1099.56H1539.45C1527.36 1099.56 1517.56 1109.36 1517.56 1121.44V1238.32C1517.56 1250.41 1527.36 1260.21 1539.45 1260.21H1721.19C1733.27 1260.21 1743.07 1250.41 1743.07 1238.32V1121.44C1743.07 1109.36 1733.27 1099.56 1721.19 1099.56Z" fill="#D2C9DB"/>
<path fill-rule="evenodd" clip-rule="evenodd" d="M1770.64 1278.06H1588.9C1576.81 1278.06 1567.02 1287.85 1567.02 1299.94V1416.82C1567.02 1428.91 1576.81 1438.7 1588.9 1438.7H1770.64C1782.73 1438.7 1792.53 1428.91 1792.53 1416.82V1299.94C1792.53 1287.85 1782.73 1278.06 1770.64 1278.06Z" fill="#D2C9DB"/>
<path fill-rule="evenodd" clip-rule="evenodd" d="M1715.38 1278.06H1644.16V1296.86C1644.16 1302.91 1649.06 1307.81 1655.11 1307.81H1704.44C1710.48 1307.81 1715.38 1302.91 1715.38 1296.86V1278.06Z" fill="#B8A8C7"/>
<path fill-rule="evenodd" clip-rule="evenodd" d="M1665.92 1099.56H1594.71V1118.36C1594.71 1124.41 1599.61 1129.31 1605.65 1129.31H1654.98C1661.02 1129.31 1665.92 1124.41 1665.92 1118.36V1099.56Z" fill="#B8A8C7"/>
<path fill-rule="evenodd" clip-rule="evenodd" d="M1744.35 1014.99H1764.41L1786.06 1073.91H1766L1744.35 1014.99Z" fill="#2A8DC1"/>
<path fill-rule="evenodd" clip-rule="evenodd" d="M1692.61 956.066H1783.25C1784.51 956.066 1785.53 957.087 1785.53 958.346C1785.53 958.505 1785.51 958.664 1785.48 958.82L1761.37 1072.11C1761.15 1073.16 1760.22 1073.92 1759.14 1073.92H1668.51C1667.25 1073.92 1666.23 1072.89 1666.23 1071.64C1666.23 1071.48 1666.24 1071.32 1666.28 1071.16L1690.38 957.871C1690.61 956.819 1691.54 956.066 1692.61 956.066Z" fill="#A7C3FF"/>
<path fill-rule="evenodd" clip-rule="evenodd" d="M1687.6 956.066H1778.23C1779.49 956.066 1780.51 957.087 1780.51 958.346C1780.51 958.505 1780.5 958.664 1780.46 958.82L1756.35 1072.11C1756.13 1073.16 1755.2 1073.92 1754.12 1073.92H1663.49C1662.23 1073.92 1661.21 1072.89 1661.21 1071.64C1661.21 1071.48 1661.23 1071.32 1661.26 1071.16L1685.37 957.871C1685.59 956.819 1686.52 956.066 1687.6 956.066Z" fill="url(#paint1_linear_166_416)"/>
<mask id="mask1_166_416" style="mask-type:alpha" maskUnits="userSpaceOnUse" x="1668" y="960" width="106" height="107">
<path d="M1692.32 960.977H1770.99C1772.12 960.977 1773.04 961.895 1773.04 963.028C1773.04 963.172 1773.03 963.315 1773 963.455L1751.4 1064.93C1751.2 1065.87 1750.37 1066.55 1749.4 1066.55H1670.73C1669.6 1066.55 1668.68 1065.63 1668.68 1064.5C1668.68 1064.35 1668.69 1064.21 1668.72 1064.07L1690.32 962.601C1690.52 961.654 1691.35 960.977 1692.32 960.977Z" fill="white"/>
</mask>
<g mask="url(#mask1_166_416)">
<path d="M1692.32 960.977H1770.99C1772.12 960.977 1773.04 961.895 1773.04 963.028C1773.04 963.172 1773.03 963.315 1773 963.455L1751.4 1064.93C1751.2 1065.87 1750.37 1066.55 1749.4 1066.55H1670.73C1669.6 1066.55 1668.68 1065.63 1668.68 1064.5C1668.68 1064.35 1668.69 1064.21 1668.72 1064.07L1690.32 962.601C1690.52 961.654 1691.35 960.977 1692.32 960.977Z" fill="#B3FFEB"/>
<path d="M1715.53 1002.1C1721.59 1002.1 1726.5 997.292 1726.5 991.359C1726.5 985.427 1721.59 980.618 1715.53 980.618C1709.47 980.618 1704.56 985.427 1704.56 991.359C1704.56 997.292 1709.47 1002.1 1715.53 1002.1Z" fill="white"/>
<path d="M1683.4 1121.79C1711.53 1121.79 1734.34 1099.46 1734.34 1071.92C1734.34 1044.38 1711.53 1022.05 1683.4 1022.05C1655.27 1022.05 1632.46 1044.38 1632.46 1071.92C1632.46 1099.46 1655.27 1121.79 1683.4 1121.79Z" fill="#F9D573"/>
<path d="M1763.34 1115.65C1796.66 1115.65 1823.68 1089.55 1823.68 1057.34C1823.68 1025.14 1796.66 999.031 1763.34 999.031C1730.01 999.031 1702.99 1025.14 1702.99 1057.34C1702.99 1089.55 1730.01 1115.65 1763.34 1115.65Z" fill="#FFCD43"/>
</g>
<path fill-rule="evenodd" clip-rule="evenodd" d="M820.38 1219.83H854.577V1640.4H820.38V1219.83Z" fill="#DBDBDB"/>
<path fill-rule="evenodd" clip-rule="evenodd" d="M814.68 1219.83H837.478V1640.4H814.68V1219.83Z" fill="#EFEFEF"/>
<path fill-rule="evenodd" clip-rule="evenodd" d="M600.48 1219.83H634.678V1640.4H600.48V1219.83Z" fill="#DBDBDB"/>
<path fill-rule="evenodd" clip-rule="evenodd" d="M594.781 1219.83H617.58V1640.4H594.781V1219.83Z" fill="#EFEFEF"/>
<path fill-rule="evenodd" clip-rule="evenodd" d="M1403.15 1219.83H1437.34V1640.4H1403.15V1219.83Z" fill="#DBDBDB"/>
<path fill-rule="evenodd" clip-rule="evenodd" d="M1397.45 1219.83H1420.25V1640.4H1397.45V1219.83Z" fill="#EFEFEF"/>
<path fill-rule="evenodd" clip-rule="evenodd" d="M1169 1219.83H1203.2V1640.4H1169V1219.83Z" fill="#DBDBDB"/>
<path fill-rule="evenodd" clip-rule="evenodd" d="M1163.3 1219.83H1186.1V1640.4H1163.3V1219.83Z" fill="#EFEFEF"/>
<path fill-rule="evenodd" clip-rule="evenodd" d="M835.514 1206.85H1442.53C1445.17 1206.85 1447.32 1208.99 1447.32 1211.63V1256.21C1447.32 1258.85 1445.17 1260.99 1442.53 1260.99H835.514C832.87 1260.99 830.727 1258.85 830.727 1256.21V1211.63C830.727 1208.99 832.87 1206.85 835.514 1206.85Z" fill="#DBDBDB"/>
<path fill-rule="evenodd" clip-rule="evenodd" d="M575.349 1206.85H1179.76C1182.41 1206.85 1184.55 1208.99 1184.55 1211.63V1256.21C1184.55 1258.85 1182.41 1260.99 1179.76 1260.99H575.349C572.705 1260.99 570.562 1258.85 570.562 1256.21V1211.63C570.562 1208.99 572.705 1206.85 575.349 1206.85Z" fill="#DBDBDB"/>
<path d="M1481.14 1206.85H517.91V1234.66H1481.14V1206.85Z" fill="#EFEFEF"/>
<path d="M1213.09 847.137C1248.18 859.184 1284.22 868.275 1320.84 874.313C1322.04 874.483 1323.14 875.072 1323.95 875.973C1324.75 876.874 1325.21 878.031 1325.23 879.236C1325.59 889.433 1322.55 925.178 1315.09 940.408C1314.57 941.52 1313.67 942.409 1312.55 942.914C1311.43 943.42 1310.16 943.507 1308.98 943.159C1290.25 937.821 1209.38 914.811 1184.39 909.194C1183.72 909.048 1183.1 908.772 1182.55 908.384C1181.99 907.995 1181.52 907.501 1181.16 906.929C1180.8 906.358 1180.56 905.722 1180.45 905.057C1180.34 904.391 1180.36 903.711 1180.52 903.054C1184.48 887.024 1189.24 871.201 1194.8 855.645C1196.13 852.135 1198.79 849.282 1202.21 847.693C1205.62 846.104 1209.53 845.904 1213.09 847.137Z" fill="#3F54A5"/>
<path d="M1476.67 444H1090.33C1078 444 1068 454.044 1068 466.434V554.566C1068 566.956 1078 577 1090.33 577H1476.67C1489 577 1499 566.956 1499 554.566V466.434C1499 454.044 1489 444 1476.67 444Z" fill="#E9A3C3"/>
<path d="M1464.23 512H1189.77C1188.74 511.923 1187.78 511.521 1187.09 510.873C1186.39 510.225 1186 509.378 1186 508.5C1186 507.622 1186.39 506.775 1187.09 506.127C1187.78 505.479 1188.74 505.077 1189.77 505H1464.23C1465.26 505.077 1466.22 505.479 1466.91 506.127C1467.61 506.775 1468 507.622 1468 508.5C1468 509.378 1467.61 510.225 1466.91 510.873C1466.22 511.521 1465.26 511.923 1464.23 512Z" fill="white"/>
<path d="M1407.9 543H1189.1C1188.02 543 1186.97 542.579 1186.2 541.828C1185.43 541.078 1185 540.061 1185 539C1185 537.939 1185.43 536.922 1186.2 536.172C1186.97 535.421 1188.02 535 1189.1 535H1407.9C1408.98 535 1410.03 535.421 1410.8 536.172C1411.57 536.922 1412 537.939 1412 539C1412 540.061 1411.57 541.078 1410.8 541.828C1410.03 542.579 1408.98 543 1407.9 543Z" fill="white"/>
<path d="M1129.5 546C1149.11 546 1165 530.33 1165 511C1165 491.67 1149.11 476 1129.5 476C1109.89 476 1094 491.67 1094 511C1094 530.33 1109.89 546 1129.5 546Z" fill="white"/>
<path d="M1125.46 527C1124.39 526.998 1123.36 526.615 1122.57 525.925L1111.48 516.444C1110.61 515.719 1110.08 514.696 1110.01 513.599C1109.93 512.503 1110.32 511.423 1111.08 510.597C1111.84 509.771 1112.92 509.268 1114.07 509.197C1115.22 509.125 1116.36 509.493 1117.22 510.218L1125.13 517.045L1142.56 498.366C1142.93 497.968 1143.38 497.643 1143.88 497.409C1144.38 497.176 1144.93 497.04 1145.48 497.007C1146.04 496.975 1146.6 497.048 1147.13 497.221C1147.66 497.395 1148.15 497.666 1148.57 498.018C1148.98 498.371 1149.33 498.799 1149.57 499.277C1149.81 499.756 1149.96 500.275 1149.99 500.807C1150.03 501.338 1149.95 501.87 1149.77 502.373C1149.59 502.876 1149.3 503.34 1148.93 503.739L1128.78 525.641C1128.4 526.043 1127.95 526.37 1127.44 526.603C1126.94 526.836 1126.39 526.971 1125.82 527H1125.46Z" fill="#9FFACC"/>
<path d="M1476.67 602H1090.33C1078 602 1068 611.968 1068 624.265V711.735C1068 724.032 1078 734 1090.33 734H1476.67C1489 734 1499 724.032 1499 711.735V624.265C1499 611.968 1489 602 1476.67 602Z" fill="#F1C6D9"/>
<path d="M1464.23 640H1189.77C1188.74 639.912 1187.78 639.452 1187.09 638.712C1186.39 637.971 1186 637.004 1186 636C1186 634.996 1186.39 634.029 1187.09 633.288C1187.78 632.548 1188.74 632.088 1189.77 632H1464.23C1465.26 632.088 1466.22 632.548 1466.91 633.288C1467.61 634.029 1468 634.996 1468 636C1468 637.004 1467.61 637.971 1466.91 638.712C1466.22 639.452 1465.26 639.912 1464.23 640Z" fill="white"/>
<path d="M1463.89 670H1189.11C1188.02 670 1186.97 669.526 1186.2 668.682C1185.43 667.838 1185 666.693 1185 665.5C1185 664.307 1185.43 663.162 1186.2 662.318C1186.97 661.474 1188.02 661 1189.11 661H1463.89C1464.98 661 1466.03 661.474 1466.8 662.318C1467.57 663.162 1468 664.307 1468 665.5C1468 666.693 1467.57 667.838 1466.8 668.682C1466.03 669.526 1464.98 670 1463.89 670Z" fill="white"/>
<path d="M1408.23 700H1189.77C1188.74 699.912 1187.78 699.452 1187.08 698.712C1186.39 697.971 1186 697.004 1186 696C1186 694.996 1186.39 694.029 1187.08 693.288C1187.78 692.548 1188.74 692.088 1189.77 692H1408.23C1409.26 692.088 1410.22 692.548 1410.92 693.288C1411.61 694.029 1412 694.996 1412 696C1412 697.004 1411.61 697.971 1410.92 698.712C1410.22 699.452 1409.26 699.912 1408.23 700Z" fill="white"/>
<path d="M1129.5 703C1149.11 703 1165 687.106 1165 667.5C1165 647.894 1149.11 632 1129.5 632C1109.89 632 1094 647.894 1094 667.5C1094 687.106 1109.89 703 1129.5 703Z" fill="white"/>
<path d="M1125.4 685C1124.34 684.995 1123.31 684.622 1122.51 683.949L1111.4 674.397C1110.98 674.036 1110.65 673.599 1110.41 673.113C1110.17 672.627 1110.03 672.101 1110 671.564C1109.98 671.027 1110.06 670.491 1110.25 669.986C1110.44 669.48 1110.74 669.016 1111.11 668.619C1111.49 668.221 1111.95 667.899 1112.46 667.671C1112.96 667.442 1113.51 667.312 1114.07 667.286C1114.64 667.261 1115.2 667.342 1115.72 667.524C1116.25 667.706 1116.74 667.986 1117.15 668.348L1125.07 675.193L1142.54 656.376C1142.91 655.975 1143.36 655.647 1143.87 655.413C1144.37 655.178 1144.92 655.04 1145.47 655.008C1146.03 654.975 1146.59 655.048 1147.12 655.223C1147.65 655.398 1148.14 655.671 1148.56 656.026C1148.98 656.381 1149.32 656.812 1149.57 657.294C1149.81 657.776 1149.96 658.3 1149.99 658.835C1150.03 659.37 1149.95 659.906 1149.77 660.413C1149.58 660.92 1149.3 661.388 1148.93 661.789L1128.73 683.631C1128.36 684.036 1127.9 684.365 1127.39 684.6C1126.89 684.835 1126.33 684.971 1125.77 685H1125.4Z" fill="#9FFACC"/>
<path d="M336.327 1577.91C344.516 1578.15 362.838 1578.47 374.579 1577.01C377.589 1576.64 379.739 1579.95 378.73 1583.31C375.682 1593.37 375.383 1612.37 379.907 1628.82C386.545 1652.95 373.532 1682.57 353.023 1684.25C336.757 1685.58 315.78 1659.14 325.689 1630.03C332.85 1608.98 331.298 1590.77 331.859 1582.62C331.871 1581.42 332.338 1580.26 333.167 1579.39C333.996 1578.51 335.125 1577.98 336.327 1577.91Z" fill="#131E20"/>
<path d="M163.483 1568.26C172.064 1570.53 191.321 1575.37 203.997 1576.83C204.763 1576.96 205.484 1577.28 206.094 1577.76C206.703 1578.25 207.183 1578.87 207.49 1579.59C207.796 1580.3 207.919 1581.08 207.848 1581.86C207.777 1582.63 207.513 1583.38 207.082 1584.02C201.828 1593.15 197.734 1611.71 199.099 1628.89C201.193 1654.26 181.487 1680.1 159.519 1676.7C142.095 1673.99 125.343 1642.86 141.684 1616.72C153.499 1597.82 155.481 1579.56 157.799 1571.7C158.125 1570.51 158.897 1569.49 159.955 1568.85C161.012 1568.21 162.275 1568 163.483 1568.26Z" fill="#131E20"/>
<path d="M337.337 1383.85L323.128 1587.63C323.128 1587.63 346.386 1621.53 385.498 1581.5C385.498 1581.5 407.634 1370.38 411.354 1359.22C415.075 1348.06 337.337 1383.85 337.337 1383.85Z" fill="#595A5C"/>
<path d="M211.681 1340.79L149.984 1561.74C149.984 1561.74 163.445 1601.8 217.907 1579.93L282.408 1367.09L211.681 1340.79Z" fill="#595A5C"/>
<path d="M252.288 791.016C252.288 791.016 193.957 778.209 212.578 856.882C231.199 935.554 235.2 987.23 252.288 996.54C252.288 996.54 237.331 1247.33 188.834 1331.42C188.834 1331.42 236.322 1403.87 343.393 1391.77C450.465 1379.68 485.838 1327.08 485.838 1327.08C485.838 1327.08 455.12 1239.08 450.989 1180.88C446.857 1122.68 441.641 1075.68 441.641 1075.68C441.641 1075.68 451.867 1055.11 443.959 994.222C436.051 933.329 471.872 812.666 375.719 810.796L252.288 791.016Z" fill="#309ED8"/>
<path d="M286.016 997.102C286.016 997.102 290.914 1089.42 288.465 1100.23C292.971 1102.88 298.262 1103.87 303.422 1103.03C303.422 1103.03 300.673 1123.3 303.478 1134.52H321.631C321.631 1134.52 324.305 1145.32 321.631 1153.72C321.631 1153.72 339.71 1156.15 345.936 1148.48C345.936 1148.48 368.371 1166.64 391.666 1147.42C391.666 1147.42 372.279 1063.7 384.3 935.873C384.3 935.873 374.56 927.646 370.895 932.713C367.231 937.78 367.586 954.905 367.586 954.905C367.586 954.905 296.71 995.924 285.885 994.952L286.016 997.102Z" fill="#595A5C"/>
<path d="M379.234 894.367C379.234 894.367 393.443 880.738 405.764 876.961C418.084 873.184 442.539 859.443 426.479 883.187C426.479 883.187 459.402 880.588 459.515 886.346C459.515 890.366 458.673 891.151 430.741 894.423C430.741 894.423 436.35 904.538 425.32 906.463C425.32 906.463 436.332 914.839 424.086 918.335C424.086 918.335 430.685 931.142 402.754 926.019C402.754 926.019 378.075 937.891 370.858 945.575C370.858 945.575 357.285 902.051 360.22 895.096C363.156 888.141 379.234 894.367 379.234 894.367Z" fill="#FACCC3"/>
<path d="M364.988 904.144L376.392 950.884L366.614 955.427C366.614 955.427 353.695 913.866 354.387 895.021C355.079 876.175 365.38 896.423 365.38 896.423L364.988 904.144Z" fill="#BB3163"/>
<path d="M268.218 757.737C268.218 757.737 273.826 645.449 350.835 663.472C426.479 681.158 368.297 791.016 368.297 791.016C368.297 791.016 388.863 826.856 379.234 894.367L364.988 904.145L364.053 899.022C364.053 899.022 304.75 928.861 280.09 928.337C280.09 928.337 274.032 869.221 274.967 822.668C274.967 822.668 239.108 811.45 252.85 800.233C252.85 800.233 245.371 792.081 261.468 782.303C261.468 782.397 249.073 760.99 268.218 757.737Z" fill="#595A5C"/>
<path d="M347.806 692.32C347.057 691.349 346.027 690.632 344.856 690.267C343.685 689.903 342.43 689.908 341.263 690.282C330.157 693.797 299.552 704.51 298 716.531C296.149 731.208 275.434 783.575 320.117 794.512C348.461 801.448 368.727 758.672 371.793 734.685C372.915 725.767 354.686 701.201 347.806 692.32Z" fill="#FACCC3"/>
<path d="M298 716.53C297.397 709.465 298.688 702.366 301.739 695.965C302.495 694.362 303.338 692.802 304.263 691.291C305.232 689.812 306.3 688.4 307.46 687.066C309.715 684.38 312.377 682.064 315.35 680.204C312.879 682.607 310.609 685.208 308.563 687.982C306.546 690.723 304.823 693.668 303.422 696.769C301.991 699.867 300.828 703.082 299.944 706.378C299.04 709.708 298.39 713.102 298 716.53Z" fill="#7982B4"/>
<path d="M371.793 734.685C372.988 732.048 373.873 729.281 374.429 726.44C375.001 723.62 375.388 720.766 375.588 717.896C375.887 715.035 375.869 712.137 375.906 709.24V704.883C375.906 703.406 375.775 701.967 375.794 700.471C376.205 701.892 376.486 703.332 376.841 704.771C377.196 706.211 377.308 707.688 377.458 709.165C377.757 712.116 377.794 715.088 377.57 718.045C377.35 721.02 376.798 723.961 375.925 726.814C375.086 729.687 373.681 732.363 371.793 734.685Z" fill="#7982B4"/>
<path d="M268.218 757.737C269.095 759.6 270.153 761.372 271.377 763.028C272.502 764.72 273.752 766.326 275.117 767.833C277.869 770.832 280.885 773.579 284.128 776.04C285.773 777.255 287.419 778.471 289.157 779.518C290.896 780.565 292.672 781.612 294.43 782.677C296.187 783.743 298.075 784.547 299.907 785.519C301.74 786.491 303.647 787.202 305.516 788.136C303.497 787.613 301.515 786.996 299.515 786.379C297.514 785.762 295.626 784.902 293.738 784.005C289.927 782.244 286.311 780.088 282.95 777.573C279.596 775.032 276.58 772.073 273.976 768.767C271.353 765.503 269.397 761.755 268.218 757.737Z" fill="#7982B4"/>
<path d="M261.469 782.397C266.317 786.414 271.612 789.858 277.248 792.662C280.04 794.069 282.926 795.281 285.886 796.289C288.84 797.354 291.887 798.158 294.972 798.925C291.762 798.928 288.565 798.526 285.456 797.728C282.321 796.943 279.281 795.821 276.388 794.382C273.498 792.951 270.766 791.221 268.237 789.221C265.682 787.264 263.405 784.968 261.469 782.397Z" fill="#7982B4"/>
<path d="M268.218 802.42C269.63 803.884 271.183 805.205 272.854 806.365C274.486 807.558 276.198 808.639 277.977 809.599C281.523 811.522 285.233 813.123 289.064 814.385L291.943 815.301L294.878 816.068C296.748 816.648 298.823 816.909 300.786 817.395C302.749 817.881 304.806 818.05 306.806 818.386C308.807 818.723 310.863 818.854 312.901 819.19C310.845 819.19 308.788 819.302 306.731 819.34C304.675 819.377 302.618 819.097 300.562 818.854C296.444 818.379 292.385 817.49 288.447 816.199C284.497 814.905 280.728 813.114 277.229 810.87C273.685 808.691 270.62 805.817 268.218 802.42Z" fill="#7982B4"/>
<path d="M323.857 795.259C325.091 799.765 325.97 804.364 326.83 808.963C327.69 813.563 328.251 818.199 328.7 822.855C329.744 832.166 330.275 841.528 330.289 850.898C330.315 860.269 329.797 869.632 328.737 878.942C327.718 888.201 326.088 897.382 323.857 906.425C324.456 901.789 325.409 897.227 325.877 892.59L326.718 885.654C326.998 883.336 327.129 881.018 327.335 878.699C327.765 874.063 327.971 869.351 328.251 864.771C328.531 860.19 328.569 855.423 328.457 850.824C328.457 841.476 328.064 832.128 327.316 822.948C326.568 813.768 325.447 804.458 323.857 795.259Z" fill="#7982B4"/>
<path d="M274.968 822.668C276.592 823.874 278.277 824.998 280.016 826.033C281.698 827.099 283.456 828.071 285.213 828.987C288.748 830.779 292.417 832.292 296.188 833.512C299.936 834.765 303.811 835.605 307.742 836.017L310.714 836.297H315.183L316.678 836.166C317.669 836.166 318.679 835.998 319.688 835.942C315.791 837.132 311.72 837.657 307.648 837.494C303.547 837.383 299.484 836.672 295.589 835.381C291.738 834.083 288.05 832.345 284.596 830.202C281.078 828.113 277.842 825.581 274.968 822.668Z" fill="#7982B4"/>
<path d="M356.201 782.397C359.051 790.925 361.159 799.682 362.502 808.572C363.268 812.984 363.717 817.452 364.166 821.921L364.727 828.633L364.988 835.382C365.253 844.358 364.985 853.341 364.184 862.285C363.867 866.754 363.175 871.185 362.576 875.634C362.296 877.859 361.81 880.046 361.399 882.253L360.071 888.833C361.174 879.934 362.296 871.091 362.707 862.173C363.295 853.255 363.432 844.313 363.119 835.382C362.879 826.471 362.18 817.579 361.025 808.74C359.949 799.87 358.338 791.073 356.201 782.397Z" fill="#7982B4"/>
<path d="M368.297 791.016C366.802 789.296 365.661 787.538 364.409 785.893C363.209 784.153 361.803 782.565 360.221 781.163C361.396 781.216 362.532 781.606 363.492 782.285C364.439 782.944 365.272 783.753 365.96 784.678C366.628 785.588 367.174 786.581 367.587 787.632C368.021 788.709 368.261 789.855 368.297 791.016Z" fill="#7982B4"/>
<path d="M312.9 836.858C312.452 839.85 312.022 842.841 311.722 845.87C311.423 848.899 311.068 851.871 310.844 854.881C310.376 860.901 310.096 866.94 310.058 872.96C310.021 878.98 310.227 885.019 310.657 891.021L311.031 895.545L311.592 900.032C311.835 903.061 312.545 905.996 312.9 909.025C311.15 903.19 309.899 897.217 309.161 891.17C308.382 885.126 308.033 879.035 308.114 872.942C308.145 866.852 308.551 860.771 309.329 854.732C310.066 848.692 311.26 842.717 312.9 836.858Z" fill="#7982B4"/>
<path d="M299.908 835.586C298.297 838.669 297.186 841.989 296.617 845.42C295.894 848.82 295.376 852.26 295.066 855.722C294.43 862.639 294.262 869.594 294.262 876.549C294.262 883.504 294.617 890.459 294.991 897.433C295.365 904.406 295.963 911.342 296.374 918.335C295.757 914.895 295.271 911.436 294.729 907.977C294.187 904.518 293.925 901.022 293.514 897.545C293.103 894.067 292.972 890.553 292.691 887.075C292.411 883.598 292.448 880.064 292.336 876.549C292.293 869.524 292.717 862.504 293.607 855.535C294.1 852.05 294.799 848.598 295.701 845.196C296.176 843.502 296.744 841.836 297.403 840.204C298.024 838.558 298.867 837.005 299.908 835.586Z" fill="#7982B4"/>
<path d="M288.335 831.417C286.764 835.157 285.399 838.765 284.091 842.485C282.782 846.206 281.623 849.964 280.632 853.703C279.641 857.442 278.762 861.331 277.996 865.201C277.229 869.071 276.706 872.96 276.126 876.905C275.886 872.919 276.011 868.921 276.5 864.958C276.956 860.987 277.712 857.055 278.762 853.198C279.803 849.37 281.115 845.622 282.689 841.981C284.224 838.285 286.115 834.748 288.335 831.417Z" fill="#7982B4"/>
<path d="M426.479 883.188C423.432 884.01 420.384 884.646 417.318 885.281L412.7 886.16C411.148 886.422 409.615 886.721 408.045 886.908C410.988 885.79 414.022 884.927 417.112 884.328C420.199 883.696 423.331 883.315 426.479 883.188Z" fill="#997EB0"/>
<path d="M430.705 894.61L422.89 894.965C421.6 894.965 420.31 895.133 419.02 895.208C417.73 895.283 416.44 895.432 415.112 895.526C417.595 894.612 420.208 894.101 422.852 894.012C425.485 893.856 428.126 894.057 430.705 894.61Z" fill="#997EB0"/>
<path d="M425.32 906.425C423.689 906.99 422.003 907.384 420.291 907.603C418.578 907.865 416.842 907.94 415.112 907.828C418.398 906.73 421.86 906.255 425.32 906.425Z" fill="#997EB0"/>
<path d="M424.086 918.334C420.513 918.982 416.852 918.982 413.279 918.334C416.852 917.686 420.513 917.686 424.086 918.334Z" fill="#997EB0"/>
<path d="M252.289 996.54C262.579 997.143 272.903 996.516 283.044 994.671C288.075 993.703 293.025 992.353 297.851 990.633C302.641 988.79 307.269 986.551 311.686 983.939C320.81 979.097 329.877 974.18 339.038 969.394L352.799 962.271C357.435 959.953 362.016 957.578 366.671 955.316C362.221 957.952 357.734 960.495 353.266 963.093L339.749 970.703C330.719 975.751 321.632 980.668 312.565 985.659C308.052 988.261 303.331 990.481 298.449 992.297C293.527 994.032 288.459 995.321 283.306 996.148C273.039 997.764 262.593 997.897 252.289 996.54Z" fill="#DF317F"/>
<path d="M441.642 1075.68C438.613 1063.36 435.865 1050.96 433.228 1038.57C430.592 1026.17 428.143 1013.72 425.993 1001.18C424.983 994.895 424.441 988.52 423.993 982.182C423.544 975.844 423.245 969.506 423.095 963.168C422.74 950.473 422.646 937.798 422.927 925.103L423.712 944.117C423.955 950.455 424.236 956.774 424.572 963.112C425.022 975.75 426.133 988.356 427.9 1000.88C429.863 1013.37 432.35 1025.82 434.668 1038.27C436.986 1050.72 439.379 1063.19 441.642 1075.68Z" fill="#DF317F"/>
<path d="M422.946 870.716C422.011 866.566 421.488 862.415 420.927 858.302L420.104 852.114C419.855 850.052 419.391 848.022 418.721 846.056C420.085 847.735 421.062 849.695 421.581 851.796C422.137 853.847 422.555 855.933 422.834 858.04C423.413 862.243 423.451 866.503 422.946 870.716Z" fill="#DF317F"/>
<path d="M366.315 1157.49C367.306 1176.69 368.017 1195.91 368.634 1215.13C369.251 1234.35 369.662 1253.57 370.036 1272.79C370.41 1292.01 370.522 1311.25 370.354 1330.49C370.185 1349.72 370.111 1368.98 367.886 1388.11L368.391 1380.91C368.559 1378.52 368.578 1376.1 368.671 1373.71C368.858 1368.91 368.858 1364.1 368.895 1359.3C368.933 1354.49 368.895 1349.69 368.895 1344.88C368.895 1340.08 368.895 1335.29 368.895 1330.49C368.783 1311.27 368.522 1292.06 368.11 1272.87L367.157 1215.21L366.315 1157.49Z" fill="#DF317F"/>
<path d="M350.611 980.48C350.031 987.472 349.433 994.446 348.966 1001.46C348.498 1008.47 347.937 1015.42 347.507 1022.41C346.647 1036.4 345.844 1050.46 345.395 1064.41C344.946 1078.35 344.647 1092.45 344.628 1106.42C344.74 1113.41 344.628 1120.42 345.058 1127.41C345.488 1134.4 345.731 1141.41 346.068 1148.43C344.385 1134.5 343.563 1120.38 343.151 1106.43C342.74 1092.49 343.151 1078.39 343.469 1064.33C343.787 1050.27 344.853 1036.29 346.031 1022.32C347.208 1008.36 348.648 994.296 350.611 980.48Z" fill="#7982B4"/>
<path d="M366.316 1022.73L364.989 1035.43C364.527 1039.65 364.097 1043.88 363.699 1048.1C362.895 1056.55 362.072 1064.93 361.511 1073.47C360.95 1082.02 360.389 1090.3 360.034 1098.88C359.922 1103.11 359.735 1107.35 359.772 1111.59C359.81 1115.84 359.772 1120.08 359.772 1124.35C358.887 1115.87 358.469 1107.36 358.52 1098.84C358.52 1090.34 359.025 1081.83 359.548 1073.32C360.072 1064.82 361.081 1056.37 362.203 1047.94C363.325 1039.5 364.615 1031.07 366.316 1022.73Z" fill="#7982B4"/>
<path d="M321.632 1134.52C321.221 1124.12 321.165 1113.75 321.202 1103.35C321.239 1092.96 321.576 1082.58 321.95 1072.2C322.324 1061.83 323.016 1051.45 324.006 1041.09C324.875 1030.73 326.298 1020.42 328.269 1010.21L327.372 1017.95L326.661 1025.71C326.213 1030.87 325.764 1036.03 325.483 1041.21C324.792 1051.56 324.231 1061.92 323.876 1072.28C323.52 1082.64 323.053 1093.01 322.679 1103.39L321.632 1134.52Z" fill="#7982B4"/>
<path d="M303.478 1103.03C303.478 1095.65 303.571 1088.26 303.795 1080.88C304.02 1073.49 304.45 1066.13 304.805 1058.76C305.16 1051.39 305.815 1044.01 306.525 1036.66C307.235 1029.31 308.039 1021.95 309.479 1014.69C309.18 1018.43 308.862 1022.06 308.675 1025.74L308.002 1036.77L306.731 1058.87L305.272 1080.95C304.73 1088.32 304.188 1095.67 303.478 1103.03Z" fill="#7982B4"/>
<defs>
<filter id="filter0_f_166_416" x="598.905" y="6.15674" width="356.373" height="355.667" filterUnits="userSpaceOnUse" color-interpolation-filters="sRGB">
<feFlood flood-opacity="0" result="BackgroundImageFix"/>
<feBlend mode="normal" in="SourceGraphic" in2="BackgroundImageFix" result="shape"/>
<feGaussianBlur stdDeviation="3" result="effect1_foregroundBlur_166_416"/>
</filter>
<filter id="filter1_dd_166_416" x="274.777" y="864.972" width="497.044" height="216.109" filterUnits="userSpaceOnUse" color-interpolation-filters="sRGB">
<feFlood flood-opacity="0" result="BackgroundImageFix"/>
<feColorMatrix in="SourceAlpha" type="matrix" values="0 0 0 0 0 0 0 0 0 0 0 0 0 0 0 0 0 0 127 0" result="hardAlpha"/>
<feOffset dx="7" dy="8"/>
<feGaussianBlur stdDeviation="12.5"/>
<feColorMatrix type="matrix" values="0 0 0 0 0.0755213 0 0 0 0 0.582569 0 0 0 0 0.878793 0 0 0 0.229458 0"/>
<feBlend mode="normal" in2="BackgroundImageFix" result="effect1_dropShadow_166_416"/>
<feColorMatrix in="SourceAlpha" type="matrix" values="0 0 0 0 0 0 0 0 0 0 0 0 0 0 0 0 0 0 127 0" result="hardAlpha"/>
<feOffset dy="2"/>
<feGaussianBlur stdDeviation="7"/>
<feColorMatrix type="matrix" values="0 0 0 0 0.503982 0 0 0 0 0.700178 0 0 0 0 1 0 0 0 0.233829 0"/>
<feBlend mode="normal" in2="effect1_dropShadow_166_416" result="effect2_dropShadow_166_416"/>
<feBlend mode="normal" in="SourceGraphic" in2="effect2_dropShadow_166_416" result="shape"/>
</filter>
<filter id="filter2_dd_166_416" x="272.777" y="432.654" width="501.925" height="432.784" filterUnits="userSpaceOnUse" color-interpolation-filters="sRGB">
<feFlood flood-opacity="0" result="BackgroundImageFix"/>
<feColorMatrix in="SourceAlpha" type="matrix" values="0 0 0 0 0 0 0 0 0 0 0 0 0 0 0 0 0 0 127 0" result="hardAlpha"/>
<feOffset dx="8" dy="9"/>
<feGaussianBlur stdDeviation="14"/>
<feColorMatrix type="matrix" values="0 0 0 0 0.0755213 0 0 0 0 0.582569 0 0 0 0 0.878793 0 0 0 0.229458 0"/>
<feBlend mode="normal" in2="BackgroundImageFix" result="effect1_dropShadow_166_416"/>
<feColorMatrix in="SourceAlpha" type="matrix" values="0 0 0 0 0 0 0 0 0 0 0 0 0 0 0 0 0 0 127 0" result="hardAlpha"/>
<feOffset dy="2"/>
<feGaussianBlur stdDeviation="7.5"/>
<feColorMatrix type="matrix" values="0 0 0 0 0.503982 0 0 0 0 0.700178 0 0 0 0 1 0 0 0 0.233829 0"/>
<feBlend mode="normal" in2="effect1_dropShadow_166_416" result="effect2_dropShadow_166_416"/>
<feBlend mode="normal" in="SourceGraphic" in2="effect2_dropShadow_166_416" result="shape"/>
</filter>
<filter id="filter3_f_166_416" x="348.933" y="569.938" width="342.562" height="173.521" filterUnits="userSpaceOnUse" color-interpolation-filters="sRGB">
<feFlood flood-opacity="0" result="BackgroundImageFix"/>
<feBlend mode="normal" in="SourceGraphic" in2="BackgroundImageFix" result="shape"/>
<feGaussianBlur stdDeviation="1.75" result="effect1_foregroundBlur_166_416"/>
</filter>
<linearGradient id="paint0_linear_166_416" x1="763.67" y1="1181.14" x2="703.75" y2="1181.14" gradientUnits="userSpaceOnUse">
<stop stop-color="#F16B79"/>
<stop offset="1" stop-color="#F69D88"/>
</linearGradient>
<linearGradient id="paint1_linear_166_416" x1="1743.13" y1="929.25" x2="1743.13" y2="1073.92" gradientUnits="userSpaceOnUse">
<stop stop-color="#56ECDB"/>
<stop offset="1" stop-color="#7D9DFF"/>
</linearGradient>
</defs>
</svg>
