<svg width="497" height="406" viewBox="0 0 497 406" fill="none" xmlns="http://www.w3.org/2000/svg">
<g clip-path="url(#clip0_157_11927)">
<path d="M496.96 375.05H0V378.05H496.96V375.05Z" fill="#C7C7C7"/>
<path d="M465.38 313.16H55.5897C51.7794 313.157 48.1258 311.643 45.4315 308.948C42.7372 306.254 41.2224 302.6 41.2197 298.79V49.38C41.2197 45.5679 42.7334 41.9118 45.428 39.2153C48.1226 36.5189 51.7776 35.0027 55.5897 35H465.38C469.19 35.0026 472.844 36.5175 475.538 39.2118C478.232 41.9061 479.747 45.5597 479.75 49.37V298.79C479.744 302.6 478.229 306.252 475.535 308.945C472.841 311.639 469.189 313.155 465.38 313.16ZM55.5897 47C54.9612 47 54.3583 47.2497 53.9139 47.6942C53.4694 48.1386 53.2197 48.7414 53.2197 49.37V298.79C53.2197 299.419 53.4694 300.021 53.9139 300.466C54.3583 300.91 54.9612 301.16 55.5897 301.16H465.38C466.008 301.16 466.611 300.91 467.056 300.466C467.5 300.021 467.75 299.419 467.75 298.79V49.38C467.751 49.0679 467.691 48.7587 467.572 48.47C467.454 48.1813 467.279 47.9188 467.059 47.6977C466.839 47.4766 466.577 47.3011 466.289 47.1814C466.001 47.0616 465.692 47 465.38 47H55.5897Z" fill="#CCCCCC"/>
<path d="M278.78 135.43H270V118.38C270.052 116.336 269.695 114.302 268.949 112.398C268.203 110.494 267.083 108.759 265.656 107.295C264.228 105.831 262.522 104.667 260.638 103.873C258.754 103.078 256.73 102.669 254.685 102.669C252.64 102.669 250.616 103.078 248.732 103.873C246.848 104.667 245.142 105.831 243.715 107.295C242.288 108.759 241.168 110.494 240.422 112.398C239.676 114.302 239.318 116.336 239.37 118.38V135.43H230.62V118.38C230.555 115.178 231.129 111.996 232.309 109.019C233.489 106.042 235.252 103.331 237.493 101.044C239.734 98.7564 242.409 96.9394 245.361 95.6989C248.313 94.4584 251.483 93.8194 254.685 93.8194C257.887 93.8194 261.057 94.4584 264.01 95.6989C266.962 96.9394 269.637 98.7564 271.878 101.044C274.119 103.331 275.881 106.042 277.061 109.019C278.241 111.996 278.816 115.178 278.75 118.38L278.78 135.43Z" fill="#485E61"/>
<path d="M286.73 130.73H224.03C221.567 130.73 219.57 132.727 219.57 135.19V197.89C219.57 200.353 221.567 202.35 224.03 202.35H286.73C289.194 202.35 291.19 200.353 291.19 197.89V135.19C291.19 132.727 289.194 130.73 286.73 130.73Z" fill="#5DBA3E"/>
<path d="M262.14 160.25C262.145 159.04 261.825 157.851 261.214 156.807C260.602 155.763 259.722 154.902 258.664 154.315C257.607 153.727 256.411 153.434 255.202 153.466C253.992 153.497 252.814 153.853 251.789 154.496C250.764 155.139 249.93 156.045 249.375 157.12C248.819 158.194 248.562 159.398 248.631 160.606C248.7 161.814 249.091 162.982 249.765 163.987C250.438 164.992 251.369 165.797 252.46 166.32V174.49C252.46 175.264 252.768 176.007 253.315 176.555C253.863 177.102 254.606 177.41 255.38 177.41C256.155 177.41 256.897 177.102 257.445 176.555C257.992 176.007 258.3 175.264 258.3 174.49V166.32C259.447 165.772 260.415 164.912 261.094 163.838C261.774 162.764 262.136 161.521 262.14 160.25Z" fill="white"/>
<path d="M307.15 242H203.61C201.75 242.05 199.899 241.727 198.166 241.049C196.432 240.372 194.853 239.354 193.519 238.056C192.186 236.758 191.127 235.206 190.403 233.492C189.679 231.778 189.307 229.936 189.307 228.075C189.307 226.214 189.679 224.372 190.403 222.658C191.127 220.944 192.186 219.392 193.519 218.094C194.853 216.796 196.432 215.778 198.166 215.101C199.899 214.423 201.75 214.1 203.61 214.15H307.15C309.01 214.1 310.861 214.423 312.594 215.101C314.327 215.778 315.907 216.796 317.24 218.094C318.573 219.392 319.633 220.944 320.357 222.658C321.08 224.372 321.453 226.214 321.453 228.075C321.453 229.936 321.08 231.778 320.357 233.492C319.633 235.206 318.573 236.758 317.24 238.056C315.907 239.354 314.327 240.372 312.594 241.049C310.861 241.727 309.01 242.05 307.15 242ZM203.61 216.66C200.641 216.748 197.823 217.989 195.754 220.12C193.685 222.251 192.528 225.105 192.528 228.075C192.528 231.045 193.685 233.899 195.754 236.03C197.823 238.161 200.641 239.402 203.61 239.49H307.15C310.119 239.402 312.937 238.161 315.006 236.03C317.075 233.899 318.232 231.045 318.232 228.075C318.232 225.105 317.075 222.251 315.006 220.12C312.937 217.989 310.119 216.748 307.15 216.66H203.61Z" fill="#CCCCCC"/>
<path d="M96.46 377.91C96.46 377.91 99.16 384.09 86.1 388.91C78.23 391.8 75.91 404.02 86.1 405.77C96.29 407.52 117 392 117 392V375.88L96.46 377.91Z" fill="#121E20"/>
<path d="M173.4 377.91C173.4 377.91 170.7 384.09 183.76 388.91C191.63 391.8 193.95 404.02 183.76 405.77C173.57 407.52 152.85 392 152.85 392V375.88L173.4 377.91Z" fill="#121E20"/>
<path d="M95.4897 249.37C95.4897 249.37 94.6697 347.37 88.9297 378.91C88.9297 378.91 104.51 387.52 120.29 382.6L130.17 267.82L146.32 381.82C146.32 381.82 172.15 384.69 178.7 378.13C178.7 378.13 169.28 326.89 168.05 302.3C166.82 277.71 162.31 235 162.31 235L95.4897 249.37Z" fill="#22393D"/>
<path d="M129.31 253.75V261.54H132.38V251.6L129.31 253.75Z" fill="#121E20"/>
<path d="M112.47 250.35L100.678 387.062L101.674 387.148L113.467 250.436L112.47 250.35Z" fill="#121E20"/>
<path d="M150.227 248.87L149.23 248.955L160.904 385.678L161.9 385.593L150.227 248.87Z" fill="#121E20"/>
<path d="M103.08 137.06L94.6296 141.83C92.8685 142.822 91.3664 144.216 90.2456 145.898C89.1248 147.58 88.417 149.503 88.1796 151.51C86.3996 166.51 82.4296 200.73 84.6296 203.26C87.2896 206.34 95.4896 215.56 95.4896 215.56L93.4896 248.76C93.4896 248.76 129.89 261.39 168.02 246.47L165 214.53C165 214.53 176.64 204.91 176.87 196.92C177.24 183.63 176.19 162.85 175.53 151.71C175.391 149.397 174.63 147.164 173.328 145.247C172.025 143.33 170.229 141.801 168.13 140.82L160.13 137.06H103.08Z" fill="#4358EB"/>
<path d="M116.4 129.82L103.08 137.06L111 167.39H117.96L113.93 176.41L129.31 199.57L147.14 173.54L143.18 168.01L149.88 165.25L160.05 137.06L144.68 128.72L116.4 129.82Z" fill="#203ED3"/>
<path d="M126.4 142.65L121.4 147.3L123.86 158.68L136.67 158.58L139.74 147.85L135.52 142.51C135.52 142.51 129.49 139.08 126.4 142.65Z" fill="#BCBDBF"/>
<path d="M119.3 126.54L116.4 129.82L121.42 147.3L131.21 138.28L139.76 147.85L144.68 128.72L142.52 127.08L119.3 126.54Z" fill="#96999A"/>
<path d="M127.26 146.28L123.88 158.68L129.82 186.45L136.69 158.58L133.92 146.28C133.92 146.28 130.74 141.26 127.26 146.28Z" fill="#231F20"/>
<path d="M95.4902 215.56C97.7502 217.56 99.9102 219.67 102.05 221.8C104.19 223.93 106.27 226.1 108.35 228.28C110.43 230.46 112.45 232.69 114.45 234.95C116.45 237.21 118.45 239.49 120.29 241.86C118.04 239.86 115.87 237.75 113.74 235.62C111.61 233.49 109.51 231.32 107.44 229.14C105.37 226.96 103.33 224.73 101.34 222.47C99.3502 220.21 97.3702 217.93 95.4902 215.56Z" fill="#203ED3"/>
<path d="M130.31 194.73H128.31V252.53H130.31V194.73Z" fill="#203ED3"/>
<path d="M125.89 227.86C125.89 227.86 120.09 231.48 118.38 232.74C116.67 234 113.19 234.89 114.38 236.33C115.57 237.77 120.03 236.33 120.03 236.33L115.03 240.63C115.03 240.63 114.28 243.3 117.03 243.02C117.03 243.02 116.55 246.58 119.56 245.89C119.56 245.89 119.08 249.51 121.88 248.83C121.88 248.83 122.09 252.02 124.88 250.95C129.68 249.12 135.48 243.33 137.31 241.86L125.89 227.86Z" fill="#FFCDC2"/>
<path d="M129.86 223.62L125.86 227.86C125.86 227.86 132.29 238.86 137.27 241.86L140.69 239.13C140.69 239.13 131.77 230.52 129.86 223.62Z" fill="#203ED3"/>
<path d="M136.83 241.63C136.83 241.63 134.72 241.69 135.37 243.33C135.37 243.33 132.53 243.27 133.01 245.62C133.01 245.62 130.21 245.08 130.48 247.62C130.48 247.62 127.54 246.83 128.06 249.84C128.06 249.84 130.69 252.5 131.85 249.05C132.45 249.141 133.062 248.996 133.558 248.646C134.054 248.295 134.395 247.766 134.51 247.17C135.04 247.076 135.536 246.84 135.944 246.488C136.352 246.136 136.658 245.681 136.83 245.17C137.046 245.159 137.257 245.102 137.449 245C137.64 244.899 137.807 244.758 137.937 244.585C138.068 244.412 138.159 244.213 138.205 244.002C138.25 243.79 138.248 243.571 138.2 243.36C137.86 241.76 136.83 241.63 136.83 241.63Z" fill="#E0A4AB"/>
<path d="M103.08 155.3C103.08 158.19 103.08 161.08 103.08 163.97C103.08 166.86 103.01 169.75 102.95 172.64C102.843 178.413 102.693 184.187 102.5 189.96L102.41 189.62C104.34 192.7 106.41 195.75 108.48 198.74C110.55 201.73 112.74 204.68 115 207.55C117.26 210.42 119.59 213.24 122.05 215.95C124.506 218.666 127.127 221.228 129.9 223.62C131.6 231.62 109.62 202.44 107.49 199.44C105.36 196.44 103.29 193.44 101.36 190.26L101.27 190.1V189.92C101.49 184.14 101.75 178.367 102.05 172.6C102.2 169.72 102.36 166.83 102.54 163.95C102.72 161.07 102.85 158.18 103.08 155.3Z" fill="#203ED3"/>
<path d="M157.59 159.6C157.79 162.16 157.94 164.72 158.1 167.28C158.26 169.84 158.4 172.4 158.54 174.96L158.9 182.64L159.22 190.33V190.55L159.07 190.73C154.36 196.46 131.07 225.17 129.94 226.44C128.61 227.95 130.44 222.72 129.09 224.21C131.34 221.21 141.64 210 143.97 207.12C148.637 201.36 153.36 195.64 158.14 189.96L158.01 190.37L157.81 182.68L157.66 174.99C157.66 172.43 157.59 169.86 157.59 167.3C157.59 164.74 157.57 162.17 157.59 159.6Z" fill="#203ED3"/>
<path d="M140.72 239.13C142.67 236.99 144.72 234.93 146.72 232.88C148.72 230.83 150.8 228.81 152.84 226.79L159 220.79C161 218.79 163.1 216.79 165 214.57C163.468 217.033 161.703 219.344 159.73 221.47C157.81 223.62 155.79 225.69 153.73 227.72C151.67 229.75 149.56 231.72 147.4 233.63C145.24 235.54 143 237.37 140.72 239.13Z" fill="#203ED3"/>
<path d="M120 236.33C120.504 235.706 121.097 235.161 121.76 234.71C122.408 234.235 123.123 233.858 123.88 233.59C123.376 234.216 122.783 234.766 122.12 235.22C121.469 235.688 120.755 236.061 120 236.33Z" fill="#E0A4AB"/>
<path d="M117 243C117.813 241.815 118.953 240.891 120.28 240.34C119.473 241.531 118.332 242.456 117 243Z" fill="#E0A4AB"/>
<path d="M119.45 245.69C119.842 245.086 120.332 244.552 120.9 244.11C121.447 243.65 122.065 243.282 122.73 243.02C122.342 243.623 121.855 244.158 121.29 244.6C120.739 245.059 120.118 245.427 119.45 245.69Z" fill="#E0A4AB"/>
<path d="M121.94 248.9C122.332 248.299 122.818 247.765 123.38 247.32C123.932 246.862 124.553 246.494 125.22 246.23C124.832 246.833 124.345 247.367 123.78 247.81C123.228 248.267 122.607 248.635 121.94 248.9Z" fill="#E0A4AB"/>
<path d="M119.3 117.2V126.54C119.3 126.54 125.96 137.06 130.47 137.06C134.98 137.06 141.59 129.54 142.52 127.06L143.18 117.18L119.3 117.2Z" fill="#E0A4AB"/>
<path d="M151.92 104C151.92 104 153.56 111.38 146.92 111.38C140.28 111.38 148.92 96.61 151.92 104Z" fill="#E0A4AB"/>
<path d="M111.82 102.62C111.228 103.433 110.942 104.427 111.01 105.43C111.13 107.33 112.01 110.43 116.81 110.43C123.23 110.41 115.67 97.4 111.82 102.62Z" fill="#E0A4AB"/>
<path d="M114.89 104C114.89 104 115.3 114.52 119.27 118.49C123.24 122.46 128.7 127.09 133.07 127.09C137.44 127.09 145.5 118.21 146.73 115.55C147.96 112.89 149.13 103.03 149.13 103.03C149.895 100.555 150.076 97.9356 149.66 95.3783C149.244 92.821 148.241 90.3949 146.73 88.29C141.54 81.18 144.14 76.68 130.33 79.29C116.52 81.9 113.15 93.75 114.07 97.74C114.603 99.7844 114.878 101.887 114.89 104Z" fill="#FFCDC2"/>
<path d="M148.78 104C148.78 104 150.55 101.4 151.29 103.2C151.29 103.2 152.9 98.2 152.1 94.2H154C154 94.2 153.67 87.45 149.12 83.81C150.01 83.5547 150.934 83.4367 151.86 83.46C149.86 80.88 142.86 77.85 140.76 77.21C141.192 77.1049 141.58 76.8686 141.872 76.5338C142.164 76.1989 142.345 75.7819 142.39 75.34C140.048 75.2199 137.71 75.6443 135.56 76.58C133.249 75.3346 130.593 74.8815 128 75.29L130.19 76.8C125.544 76.5038 120.956 77.9676 117.34 80.9L120 81C120 81 113.44 85 111.12 90.29L113.44 90.15C113.44 90.15 111.52 92.54 112.21 102.24C112.21 102.24 113.03 101.08 114.94 103.95C114.94 103.95 115.08 96.57 116.45 94.52L115.76 101.36C117.55 95.54 121.25 90.67 125.76 86.19C125.76 86.19 122.68 91.77 120.16 93.84C124.659 92.117 128.503 89.0249 131.15 85C129.799 87.8075 127.842 90.2802 125.42 92.24C125.42 92.24 135.8 90.33 136.76 81.58C136.76 81.58 137.99 89.24 143.86 93.47L143 89.54C143.494 90.8951 144.257 92.136 145.243 93.1879C146.23 94.2398 147.419 95.0807 148.74 95.66C149.238 98.4166 149.251 101.239 148.78 104Z" fill="#424143"/>
<path d="M119.59 100.25C121.124 99.445 122.831 99.0244 124.565 99.0244C126.298 99.0244 128.005 99.445 129.54 100.25C129.857 100.423 130.128 100.672 130.328 100.973C130.529 101.274 130.653 101.62 130.69 101.98C130.92 104.45 130.77 110.15 124.51 110.15C118.25 110.15 118.1 104.59 118.32 102.07C118.356 101.683 118.492 101.312 118.715 100.993C118.937 100.674 119.239 100.418 119.59 100.25Z" fill="#424143"/>
<path d="M135.05 100.25C136.585 99.445 138.292 99.0244 140.025 99.0244C141.758 99.0244 143.465 99.445 145 100.25C145.318 100.423 145.588 100.672 145.789 100.973C145.989 101.274 146.113 101.62 146.15 101.98C146.38 104.45 146.24 110.15 139.97 110.15C133.7 110.15 133.56 104.59 133.78 102.07C133.816 101.683 133.952 101.312 134.175 100.993C134.398 100.674 134.699 100.418 135.05 100.25Z" fill="#424143"/>
<path d="M148.78 104.5H114.89C114.72 104.5 114.58 104.27 114.58 103.99C114.58 103.71 114.72 103.49 114.89 103.49H148.78C148.95 103.49 149.09 103.71 149.09 103.99C149.09 104.27 149 104.5 148.78 104.5Z" fill="#424143"/>
<path d="M125.72 139.83L127.26 146.28H133.92L136.69 139.83C136.69 139.83 135.25 134.29 131.21 134.29C127.17 134.29 125.72 139.83 125.72 139.83Z" fill="#404041"/>
<path d="M223.28 227.33H221L222.64 225.69C222.779 225.546 222.856 225.355 222.856 225.155C222.856 224.955 222.779 224.764 222.64 224.62C222.499 224.48 222.309 224.401 222.11 224.401C221.911 224.401 221.721 224.48 221.58 224.62L219.94 226.26V224C219.94 223.801 219.861 223.61 219.72 223.47C219.58 223.329 219.389 223.25 219.19 223.25C218.991 223.25 218.8 223.329 218.66 223.47C218.519 223.61 218.44 223.801 218.44 224V226.32L216.8 224.67C216.659 224.53 216.469 224.451 216.27 224.451C216.071 224.451 215.881 224.53 215.74 224.67C215.601 224.814 215.524 225.005 215.524 225.205C215.524 225.405 215.601 225.596 215.74 225.74L217.38 227.38H215C214.801 227.38 214.61 227.459 214.47 227.6C214.329 227.74 214.25 227.931 214.25 228.13C214.25 228.329 214.329 228.52 214.47 228.66C214.61 228.801 214.801 228.88 215 228.88H217.32L215.68 230.52C215.54 230.661 215.461 230.851 215.461 231.05C215.461 231.249 215.54 231.439 215.68 231.58C215.821 231.72 216.011 231.799 216.21 231.799C216.409 231.799 216.599 231.72 216.74 231.58L218.38 229.94V232.25C218.38 232.449 218.459 232.64 218.6 232.78C218.74 232.921 218.931 233 219.13 233C219.329 233 219.52 232.921 219.66 232.78C219.801 232.64 219.88 232.449 219.88 232.25V229.94L221.52 231.58C221.661 231.72 221.851 231.799 222.05 231.799C222.249 231.799 222.439 231.72 222.58 231.58C222.72 231.439 222.799 231.249 222.799 231.05C222.799 230.851 222.72 230.661 222.58 230.52L221 228.83H223.32C223.519 228.83 223.71 228.751 223.85 228.61C223.991 228.47 224.07 228.279 224.07 228.08C224.07 227.881 223.991 227.69 223.85 227.55C223.71 227.409 223.519 227.33 223.32 227.33H223.28Z" fill="#CCCCCC"/>
<path d="M241.39 227.33H239.08L240.72 225.69C240.859 225.546 240.936 225.355 240.936 225.155C240.936 224.955 240.859 224.764 240.72 224.62C240.579 224.48 240.389 224.401 240.19 224.401C239.991 224.401 239.801 224.48 239.66 224.62L238 226.26V224C238 223.801 237.921 223.61 237.78 223.47C237.64 223.329 237.449 223.25 237.25 223.25C237.051 223.25 236.86 223.329 236.72 223.47C236.579 223.61 236.5 223.801 236.5 224V226.32L234.86 224.67C234.714 224.549 234.529 224.488 234.34 224.497C234.151 224.506 233.972 224.585 233.838 224.718C233.705 224.852 233.626 225.031 233.617 225.22C233.608 225.409 233.67 225.594 233.79 225.74L235.43 227.38H233.12C232.921 227.38 232.73 227.459 232.59 227.6C232.449 227.74 232.37 227.931 232.37 228.13C232.37 228.329 232.449 228.52 232.59 228.66C232.73 228.801 232.921 228.88 233.12 228.88H235.43L233.79 230.52C233.65 230.661 233.571 230.851 233.571 231.05C233.571 231.249 233.65 231.439 233.79 231.58C233.932 231.721 234.125 231.8 234.325 231.8C234.526 231.8 234.718 231.721 234.86 231.58L236.5 229.94V232.25C236.5 232.449 236.579 232.64 236.72 232.78C236.86 232.921 237.051 233 237.25 233C237.449 233 237.64 232.921 237.78 232.78C237.921 232.64 238 232.449 238 232.25V229.94L239.64 231.58C239.781 231.721 239.971 231.8 240.17 231.8C240.368 231.796 240.557 231.717 240.7 231.58C240.841 231.439 240.919 231.249 240.919 231.05C240.919 230.851 240.841 230.661 240.7 230.52L239.06 228.88H241.37C241.569 228.88 241.76 228.801 241.9 228.66C242.041 228.52 242.12 228.329 242.12 228.13C242.12 227.931 242.041 227.74 241.9 227.6C241.76 227.459 241.569 227.38 241.37 227.38L241.39 227.33Z" fill="#CCCCCC"/>
<path d="M259.51 227.33H257.19L258.83 225.69C258.968 225.546 259.046 225.355 259.046 225.155C259.046 224.955 258.968 224.764 258.83 224.62C258.689 224.48 258.499 224.401 258.3 224.401C258.101 224.401 257.91 224.48 257.77 224.62L256.13 226.26V224C256.13 223.801 256.051 223.61 255.91 223.47C255.769 223.329 255.579 223.25 255.38 223.25C255.181 223.25 254.99 223.329 254.849 223.47C254.709 223.61 254.63 223.801 254.63 224V226.32L253 224.62C252.859 224.48 252.669 224.401 252.47 224.401C252.271 224.401 252.08 224.48 251.94 224.62C251.801 224.764 251.724 224.955 251.724 225.155C251.724 225.355 251.801 225.546 251.94 225.69L253.58 227.33H251.26C251.061 227.33 250.87 227.409 250.729 227.55C250.589 227.69 250.51 227.881 250.51 228.08C250.51 228.279 250.589 228.47 250.729 228.61C250.87 228.751 251.061 228.83 251.26 228.83H253.58L251.94 230.47C251.799 230.611 251.72 230.801 251.72 231C251.72 231.199 251.799 231.389 251.94 231.53C252.08 231.67 252.271 231.749 252.47 231.749C252.669 231.749 252.859 231.67 253 231.53L254.64 229.89V232.2C254.64 232.399 254.719 232.59 254.859 232.73C255 232.871 255.191 232.95 255.39 232.95C255.589 232.95 255.779 232.871 255.92 232.73C256.061 232.59 256.14 232.399 256.14 232.2V229.89L257.78 231.53C257.92 231.67 258.111 231.749 258.31 231.749C258.509 231.749 258.699 231.67 258.84 231.53C258.98 231.389 259.059 231.199 259.059 231C259.059 230.801 258.98 230.611 258.84 230.47L257.2 228.83H259.52C259.719 228.83 259.909 228.751 260.05 228.61C260.191 228.47 260.27 228.279 260.27 228.08C260.27 227.881 260.191 227.69 260.05 227.55C259.909 227.409 259.719 227.33 259.52 227.33H259.51Z" fill="#CCCCCC"/>
<path d="M277.62 227.33H275.3L276.94 225.69C277.011 225.62 277.066 225.538 277.105 225.446C277.143 225.355 277.163 225.257 277.163 225.159C277.164 225.06 277.145 224.962 277.107 224.87C277.07 224.779 277.015 224.695 276.945 224.625C276.876 224.555 276.793 224.499 276.702 224.461C276.611 224.422 276.513 224.402 276.414 224.402C276.315 224.401 276.217 224.42 276.125 224.458C276.034 224.495 275.951 224.55 275.88 224.62L274.24 226.26V224C274.24 223.801 274.161 223.61 274.021 223.47C273.88 223.329 273.689 223.25 273.49 223.25C273.291 223.25 273.101 223.329 272.96 223.47C272.819 223.61 272.74 223.801 272.74 224V226.32L271.1 224.67C270.96 224.53 270.769 224.451 270.57 224.451C270.372 224.451 270.181 224.53 270.04 224.67C269.902 224.814 269.824 225.005 269.824 225.205C269.824 225.405 269.902 225.596 270.04 225.74L271.68 227.38H269.36C269.161 227.38 268.971 227.459 268.83 227.6C268.689 227.74 268.61 227.931 268.61 228.13C268.61 228.329 268.689 228.52 268.83 228.66C268.971 228.801 269.161 228.88 269.36 228.88H271.68L270 230.47C269.86 230.611 269.781 230.801 269.781 231C269.781 231.199 269.86 231.389 270 231.53C270.143 231.667 270.332 231.746 270.53 231.75C270.729 231.75 270.92 231.671 271.06 231.53L272.7 229.89V232.2C272.7 232.399 272.779 232.59 272.92 232.73C273.061 232.871 273.251 232.95 273.45 232.95C273.649 232.95 273.84 232.871 273.981 232.73C274.121 232.59 274.2 232.399 274.2 232.2V229.89L275.84 231.53C275.983 231.667 276.172 231.746 276.37 231.75C276.569 231.75 276.76 231.671 276.9 231.53C276.971 231.461 277.027 231.379 277.066 231.288C277.104 231.197 277.124 231.099 277.124 231C277.124 230.901 277.104 230.803 277.066 230.712C277.027 230.621 276.971 230.539 276.9 230.47L275.26 228.83H277.58C277.779 228.83 277.97 228.751 278.111 228.61C278.251 228.47 278.33 228.279 278.33 228.08C278.33 227.881 278.251 227.69 278.111 227.55C277.97 227.409 277.779 227.33 277.58 227.33H277.62Z" fill="#CCCCCC"/>
<path d="M295.74 227.33H293.42L295.06 225.69C295.199 225.546 295.277 225.355 295.277 225.155C295.277 224.955 295.199 224.764 295.06 224.62C294.92 224.48 294.729 224.401 294.53 224.401C294.332 224.401 294.141 224.48 294 224.62L292.36 226.26V224C292.36 223.801 292.281 223.61 292.141 223.47C292 223.329 291.809 223.25 291.61 223.25C291.412 223.25 291.221 223.329 291.08 223.47C290.939 223.61 290.86 223.801 290.86 224V226.32L289.22 224.67C289.079 224.529 288.887 224.451 288.687 224.452C288.487 224.453 288.296 224.533 288.155 224.675C288.015 224.817 287.936 225.009 287.937 225.209C287.938 225.408 288.019 225.599 288.16 225.74L289.8 227.38H287.48C287.282 227.38 287.091 227.459 286.95 227.6C286.809 227.74 286.73 227.931 286.73 228.13C286.73 228.329 286.809 228.52 286.95 228.66C287.091 228.801 287.282 228.88 287.48 228.88H289.8L288.16 230.52C288.09 230.589 288.033 230.671 287.995 230.762C287.957 230.853 287.937 230.951 287.937 231.05C287.937 231.149 287.957 231.247 287.995 231.338C288.033 231.429 288.09 231.511 288.16 231.58C288.302 231.719 288.492 231.798 288.69 231.8C288.888 231.796 289.078 231.717 289.22 231.58L290.86 229.94V232.25C290.86 232.449 290.939 232.64 291.08 232.78C291.221 232.921 291.412 233 291.61 233C291.809 233 292 232.921 292.141 232.78C292.281 232.64 292.36 232.449 292.36 232.25V229.94L294 231.58C294.142 231.719 294.332 231.798 294.53 231.8C294.728 231.796 294.918 231.717 295.06 231.58C295.201 231.439 295.28 231.249 295.28 231.05C295.28 230.851 295.201 230.661 295.06 230.52L293.42 228.88H295.74C295.939 228.88 296.13 228.801 296.271 228.66C296.411 228.52 296.49 228.329 296.49 228.13C296.49 227.931 296.411 227.74 296.271 227.6C296.13 227.459 295.939 227.38 295.74 227.38V227.33Z" fill="#CCCCCC"/>
<path d="M413.94 186.91H409.78V374.11H413.94V186.91Z" fill="#AFAFAF"/>
<path d="M426.23 376.78C427.903 376.78 429.26 375.423 429.26 373.75C429.26 372.077 427.903 370.72 426.23 370.72H396.85C395.176 370.72 393.82 372.077 393.82 373.75C393.82 375.423 395.176 376.78 396.85 376.78H426.23Z" fill="#AFAFAF"/>
<path d="M443.05 200.2H380.66L385.39 137.82H438.32L443.05 200.2Z" fill="#FFC300"/>
<path d="M29.9204 285.46C29.9204 285.46 16.4804 271 21.7104 259.77C21.741 259.694 21.7935 259.63 21.8612 259.584C21.9289 259.538 22.0087 259.514 22.0904 259.514C22.172 259.514 22.2518 259.538 22.3195 259.584C22.3872 259.63 22.4397 259.694 22.4704 259.77C23.5304 262.67 27.2604 271.72 32.7104 272.58V286.36L29.9204 285.46Z" fill="#449935"/>
<path d="M45.2304 288C47.4995 284.427 50.1372 281.102 53.1003 278.08C54.3303 276.94 55.2104 275.19 56.7803 274.56C77.4004 266.24 70.0004 245.18 70.0004 245.18C69.9887 245.029 69.9326 244.886 69.839 244.767C69.7454 244.649 69.6186 244.561 69.4748 244.515C69.3311 244.469 69.1768 244.466 69.0317 244.508C68.8867 244.55 68.7574 244.634 68.6604 244.75L67.0804 246.6L41.3604 278.43L45.2304 288Z" fill="#59AA48"/>
<path d="M36.7305 234C36.7305 234 41.9805 224.49 45.9305 224.73C49.8805 224.97 55.5905 236.55 55.0505 240.34L54.7405 246L42.9105 261.43L36.7305 234Z" fill="#6FCE5B"/>
<path d="M34.4597 262.51C34.4597 262.51 20.9997 252.3 16.6197 241.64C14.3069 235.92 12.6529 229.955 11.6897 223.86C11.6426 223.579 11.6559 223.292 11.7287 223.017C11.8016 222.742 11.9323 222.485 12.1121 222.265C12.292 222.044 12.5168 221.865 12.7716 221.738C13.0264 221.611 13.3054 221.54 13.5897 221.53C17.5897 221.3 26.8097 222.35 36.7197 234.21C36.7197 234.21 44.9097 244.53 46.5297 252.21C46.5297 252.21 53.3597 239.58 62.7097 233.5C62.8932 233.381 63.1051 233.313 63.3236 233.303C63.5421 233.293 63.7594 233.341 63.953 233.443C64.1466 233.545 64.3095 233.696 64.425 233.882C64.5404 234.068 64.6042 234.281 64.6097 234.5C65.0154 237.991 65.96 241.398 67.4097 244.6C67.4097 244.6 72.5097 257.13 53.2597 268.14C53.2597 268.14 45.3697 274.29 44.3297 280.55L34.4597 262.51Z" fill="#449935"/>
<path d="M31.9998 323.77L32.9298 317.16C32.9298 317.16 15.9998 310.78 8.92984 296.75C8.92984 296.75 14.6698 299.48 18.9298 299.59C23.1898 299.7 30.0598 303.59 32.9298 307.07C35.7998 310.55 27.6098 296.07 20.5398 291.46C8.99984 283.92 7.83984 269.08 7.83984 269.08C7.83984 269.08 20.3598 271.32 23.4498 275.65L26.5498 279.98L30.0998 285.54L38.5298 296.42C38.5298 296.42 51.9998 275.49 62.9998 269.08C62.9998 269.08 65.6198 282.22 51.3198 297.76C51.3198 297.76 45.6798 305.1 44.2098 306.11C44.2098 306.11 53.5698 302.24 67.0898 309.82C67.0898 309.82 61.5298 316.31 50.2398 314.61C45.6798 313.92 42.9098 314.19 41.2398 314.76C40.4703 315.031 39.809 315.543 39.3548 316.221C38.9006 316.899 38.6779 317.705 38.7198 318.52L38.9698 323.77H31.9998Z" fill="#6FCE5B"/>
<path d="M36.2598 311.79C36.2598 311.79 27.9098 289.87 29.9998 276.79C31.5398 267.12 34.7898 261.05 36.3798 258.53C36.4513 258.418 36.5545 258.33 36.6762 258.276C36.798 258.223 36.9328 258.207 37.0636 258.231C37.1944 258.254 37.3152 258.316 37.4107 258.409C37.5062 258.501 37.572 258.62 37.5998 258.75C38.194 261.845 39.3461 264.807 40.9998 267.49C43.3198 270.8 46.8298 290.64 44.3698 294.8C43.9774 295.4 43.6425 296.037 43.3698 296.7C41.4093 301.913 39.0316 306.959 36.2598 311.79Z" fill="#6FCE5B"/>
<path d="M51.4397 376.34H19.0697C18.504 376.34 17.9588 376.129 17.5407 375.748C17.1227 375.367 16.862 374.843 16.8097 374.28L12.1797 325.28C12.1504 324.966 12.1872 324.648 12.2874 324.349C12.3877 324.05 12.5494 323.774 12.7621 323.541C12.9748 323.308 13.2339 323.121 13.5227 322.994C13.8116 322.866 14.1239 322.8 14.4397 322.8H54.9997C55.4569 322.799 55.9093 322.894 56.3277 323.079C56.7461 323.263 57.1213 323.533 57.4292 323.871C57.7371 324.209 57.971 324.608 58.1157 325.042C58.2604 325.476 58.3129 325.935 58.2697 326.39L53.6997 374.28C53.6473 374.843 53.3866 375.367 52.9686 375.748C52.5505 376.129 52.0053 376.34 51.4397 376.34Z" fill="#395356"/>
<path d="M51.4403 376.34C52.0059 376.34 52.5512 376.129 52.9692 375.748C53.3872 375.367 53.6479 374.843 53.7003 374.28L58.2203 326.36C58.2631 325.909 58.2121 325.454 58.0703 325.024C57.9286 324.593 57.6992 324.197 57.3967 323.86C57.0942 323.522 56.7251 323.251 56.3126 323.064C55.9002 322.876 55.4533 322.776 55.0003 322.77H48.0003C48.0003 322.77 61.0003 364.51 43.2803 376.34H51.4403Z" fill="#121E21"/>
<path d="M44.5 234.06C45.3616 236.048 46.0054 238.123 46.42 240.25C46.8599 242.378 47.1208 244.539 47.2 246.71C47.2603 248.894 47.0995 251.078 46.72 253.23C46.3152 255.373 45.5655 257.437 44.5 259.34C44.9733 257.271 45.3074 255.173 45.5 253.06C45.64 250.96 45.7 248.86 45.64 246.76C45.58 244.66 45.41 242.55 45.21 240.43C45.01 238.31 44.77 236.21 44.5 234.06Z" fill="#449935"/>
<path d="M48.9999 237.19C49.4705 237.911 49.7745 238.727 49.8899 239.58C50.0232 240.441 49.9961 241.319 49.8099 242.17C49.6069 243.046 49.1991 243.862 48.6199 244.55C48.041 245.227 47.2527 245.692 46.3799 245.87C46.8557 245.244 47.2709 244.574 47.6199 243.87C47.9141 243.209 48.1484 242.523 48.3199 241.82C48.6599 240.39 48.7799 238.89 48.9999 237.19Z" fill="#449935"/>
<path d="M23.0498 233.37C25.9447 235.757 28.6433 238.372 31.1198 241.19C33.6263 243.996 35.9257 246.981 37.9998 250.12C40.0991 253.255 41.8526 256.608 43.2298 260.12C44.6676 263.624 45.3819 267.383 45.3298 271.17C44.7823 267.502 43.7008 263.934 42.1198 260.58C41.3598 258.91 40.5298 257.26 39.5998 255.66C38.6698 254.06 37.7398 252.47 36.7098 250.93C34.7098 247.83 32.4798 244.86 30.1998 241.93C27.9198 239 25.5198 236.18 23.0498 233.37Z" fill="#6FCE5B"/>
<path d="M30 233.73C30.5791 234.295 31.0621 234.95 31.43 235.67C31.8025 236.373 32.0879 237.118 32.28 237.89C32.4924 238.675 32.5801 239.488 32.54 240.3C32.5394 241.147 32.2581 241.97 31.74 242.64C31.6698 241.883 31.5359 241.134 31.34 240.4L30.79 238.27C30.3784 236.786 30.1138 235.266 30 233.73Z" fill="#6FCE5B"/>
<path d="M37.4505 241.92C37.896 242.586 38.2335 243.319 38.4505 244.09C38.6887 244.85 38.8331 245.635 38.8805 246.43C38.9364 247.242 38.8724 248.057 38.6905 248.85C38.5406 249.676 38.1265 250.43 37.5105 251C37.5803 250.245 37.5803 249.485 37.5105 248.73L37.3705 246.54C37.2424 245.001 37.2692 243.453 37.4505 241.92Z" fill="#6FCE5B"/>
<path d="M25.3096 244.5C26.1341 244.236 26.9938 244.098 27.8596 244.09C28.7118 244.068 29.5638 244.142 30.3996 244.31C31.2549 244.473 32.0829 244.756 32.8596 245.15C33.6783 245.525 34.3524 246.157 34.7796 246.95C34.0243 246.648 33.2403 246.423 32.4396 246.28L30.0996 245.82C29.3096 245.66 28.5196 245.49 27.7196 245.29C26.8985 245.084 26.0931 244.82 25.3096 244.5Z" fill="#6FCE5B"/>
<path d="M31.21 253.79C32.0312 253.527 32.8875 253.388 33.75 253.38C34.6055 253.358 35.4608 253.432 36.3 253.6C37.1537 253.757 37.9793 254.04 38.75 254.44C39.5737 254.812 40.252 255.444 40.68 256.24C39.9212 255.938 39.1339 255.713 38.33 255.57L36 255.11C35.22 254.95 34.43 254.78 33.63 254.57C32.8044 254.373 31.9953 254.112 31.21 253.79Z" fill="#6FCE5B"/>
<path d="M57.7198 249.12C56.6573 250.055 55.7015 251.105 54.8698 252.25C54.0302 253.374 53.2524 254.542 52.5398 255.75C51.1116 258.163 49.8745 260.684 48.8398 263.29C47.7298 265.87 46.8398 268.56 45.9498 271.23C45.5698 272.59 45.1298 273.94 44.7198 275.3C44.3098 276.66 43.9998 278 43.5098 279.4C43.6198 277.98 43.8098 276.56 43.9798 275.13C44.1498 273.7 44.4998 272.32 44.7998 270.91C45.0998 269.5 45.5098 268.13 45.9398 266.76C46.3698 265.39 46.8498 264.03 47.4198 262.7C47.9898 261.37 48.6098 260.07 49.2498 258.78L50.3398 256.91C50.6998 256.28 51.1398 255.7 51.5398 255.1C51.9398 254.5 52.4098 253.94 52.8498 253.37C53.2898 252.8 53.7998 252.27 54.3098 251.76C55.3038 250.71 56.454 249.819 57.7198 249.12Z" fill="#6FCE5B"/>
<path d="M56.9997 259.34C54.8098 260.514 52.7514 261.919 50.8597 263.53C49.9383 264.326 49.0761 265.189 48.2797 266.11C47.4497 267.03 46.7497 268.05 45.9297 269.11C46.1488 267.809 46.6174 266.563 47.3097 265.44C47.9876 264.309 48.8455 263.295 49.8497 262.44C50.849 261.571 51.9754 260.859 53.1897 260.33C54.3815 259.751 55.6766 259.414 56.9997 259.34Z" fill="#6FCE5B"/>
<path d="M48.6699 254.12C49.1219 254.612 49.4629 255.195 49.6699 255.83C49.8869 256.445 50.0116 257.089 50.0399 257.74C50.0687 258.415 49.9877 259.091 49.7999 259.74C49.6159 260.391 49.2721 260.986 48.7999 261.47C48.6899 260.77 48.6599 260.18 48.6099 259.59C48.5599 259 48.5299 258.43 48.5099 257.84C48.4899 257.25 48.5099 256.67 48.5099 256.07C48.5151 255.417 48.5686 254.765 48.6699 254.12Z" fill="#6FCE5B"/>
<path d="M41.0001 282.88C40.8801 284.11 40.7201 285.29 40.5501 286.46L40.0801 290C39.9201 291.16 39.7701 292.32 39.6301 293.49C39.4901 294.66 39.4001 295.83 39.2001 297.06C38.7598 295.907 38.5 294.692 38.4301 293.46C38.3433 292.236 38.3869 291.005 38.5601 289.79C38.7224 288.578 39.0072 287.385 39.4101 286.23C39.7765 285.043 40.312 283.915 41.0001 282.88Z" fill="#6FCE5B"/>
<path d="M16.6396 279.4C19.7201 280.973 22.4778 283.11 24.7696 285.7C27.1173 288.264 29.1332 291.113 30.7696 294.18C31.5514 295.726 32.2523 297.311 32.8696 298.93C33.1596 299.75 33.4997 300.54 33.7397 301.37C33.9797 302.2 34.2197 303.03 34.4496 303.86C34.6892 304.688 34.8795 305.529 35.0196 306.38L35.4897 308.92C35.7097 310.62 35.8396 312.34 35.9496 314.04C35.4996 312.38 35.1696 310.71 34.7496 309.04L33.9996 306.62L33.6596 305.4C33.5496 305 33.3896 304.6 33.2596 304.2C32.9696 303.41 32.6896 302.61 32.4296 301.81C32.1696 301.01 31.7896 300.25 31.4796 299.47C30.8896 297.89 30.0897 296.41 29.3696 294.9C27.8005 291.927 25.9557 289.108 23.8596 286.48C21.7615 283.825 19.3356 281.446 16.6396 279.4Z" fill="#449935"/>
<path d="M54.3504 287C50.8737 290.966 47.6155 295.119 44.5904 299.44L43.4704 301.06L42.4704 302.72C42.1004 303.27 41.7804 303.84 41.4704 304.4C41.1604 304.96 40.7804 305.52 40.4704 306.1C39.1604 308.38 38.0704 310.76 36.9404 313.19C37.4504 310.557 38.2763 307.995 39.4004 305.56C40.5281 303.115 41.8665 300.773 43.4004 298.56C44.9112 296.36 46.5824 294.274 48.4004 292.32C50.2129 290.364 52.205 288.583 54.3504 287Z" fill="#449935"/>
<path d="M34.7803 273C36.3159 276.114 37.4613 279.405 38.1903 282.8C38.3703 283.64 38.5803 284.49 38.7103 285.35L39.1303 287.92C39.3203 289.65 39.4903 291.38 39.5503 293.12L39.6003 294.43V295.73C39.6003 296.6 39.6003 297.47 39.5303 298.34C39.3603 300.07 39.2903 301.81 38.9503 303.52C38.4181 306.944 37.5058 310.298 36.2303 313.52C36.9118 310.161 37.4225 306.77 37.7603 303.36C38.0765 299.963 38.1567 296.548 38.0003 293.14C37.8858 289.742 37.5518 286.355 37.0003 283C36.4702 279.624 35.7287 276.284 34.7803 273Z" fill="#449935"/>
<path d="M33 286.58C34.021 286.816 34.975 287.281 35.79 287.94C37.0473 288.918 38.018 290.217 38.6 291.7C38.7881 292.197 38.9222 292.714 39 293.24C39.1899 294.272 39.1316 295.335 38.83 296.34C38.47 295.34 38.24 294.43 37.83 293.56C37.4791 292.698 37.0542 291.868 36.56 291.08C36.0893 290.287 35.5682 289.526 35 288.8C34.34 288.06 33.69 287.34 33 286.58Z" fill="#449935"/>
<path d="M33 294.67C33.9865 294.935 34.8952 295.432 35.65 296.12C36.4363 296.786 37.0909 297.593 37.58 298.5C38.0963 299.401 38.4357 300.392 38.58 301.42C38.73 302.425 38.6479 303.451 38.34 304.42C38 303.42 37.76 302.56 37.42 301.7C37.0969 300.852 36.716 300.026 36.28 299.23C35.3475 297.601 34.2483 296.072 33 294.67Z" fill="#449935"/>
<path d="M17.9102 302.9C19.7454 303.303 21.5422 303.866 23.2802 304.58C25.0238 305.269 26.7178 306.078 28.3502 307C29.1602 307.48 29.9602 308 30.7402 308.52C31.5295 309.077 32.2842 309.681 33.0002 310.33C33.7172 310.974 34.3611 311.695 34.9202 312.48C35.4892 313.256 35.8599 314.158 36.0002 315.11C35.5687 314.313 34.9999 313.599 34.3202 313C33.6579 312.384 32.9528 311.816 32.2102 311.3C30.7302 310.3 29.2102 309.3 27.5802 308.39C24.4102 306.52 21.1302 304.84 17.9102 302.9Z" fill="#449935"/>
<path d="M56.5599 310.25C54.7177 309.858 52.8494 309.601 50.9699 309.48C49.14 309.354 47.3018 309.434 45.4899 309.72L44.1599 309.98L42.8699 310.38C42.4342 310.509 42.0095 310.673 41.5999 310.87C41.1783 311.034 40.7703 311.231 40.3799 311.46C38.7493 312.371 37.249 313.498 35.9199 314.81C36.1599 314.4 36.4099 313.98 36.6799 313.58C36.9234 313.155 37.219 312.762 37.5599 312.41L38.5599 311.34C38.9299 311.02 39.3399 310.74 39.7399 310.44C41.374 309.291 43.2479 308.528 45.2199 308.21C47.1701 307.901 49.1588 307.928 51.0999 308.29C53.0211 308.617 54.8695 309.28 56.5599 310.25Z" fill="#449935"/>
<path d="M38.8097 296.71C38.5976 295.945 38.5533 295.144 38.6797 294.36C38.7926 293.571 39.0394 292.806 39.4097 292.1C39.8032 291.375 40.3449 290.741 40.9997 290.24C41.6608 289.747 42.465 289.483 43.2897 289.49C42.7645 289.991 42.2797 290.533 41.8397 291.11C41.456 291.661 41.1022 292.231 40.7797 292.82C40.1197 294 39.5897 295.32 38.8097 296.71Z" fill="#449935"/>
<path d="M454.29 85.73C454.294 81.0214 452.771 76.4385 449.949 72.6693C447.127 68.9001 443.158 66.1479 438.639 64.8259C434.12 63.504 429.294 63.6836 424.885 65.3378C420.477 66.9919 416.724 70.0315 414.19 74C412.15 72.4525 409.743 71.4629 407.204 71.1287C404.666 70.7945 402.084 71.1272 399.714 72.094C397.343 73.0608 395.265 74.6284 393.685 76.6425C392.104 78.6565 391.075 81.0475 390.7 83.58C388.995 82.7252 387.119 82.2675 385.213 82.2412C383.306 82.2149 381.418 82.6207 379.69 83.4281C377.963 84.2354 376.441 85.4235 375.238 86.9031C374.035 88.3828 373.183 90.1156 372.745 91.9715C372.308 93.8275 372.296 95.7584 372.711 97.6196C373.126 99.4807 373.957 101.224 375.142 102.718C376.327 104.212 377.835 105.418 379.552 106.246C381.27 107.075 383.153 107.503 385.06 107.5H433.91C439.441 107.151 444.63 104.703 448.418 100.657C452.206 96.6115 454.306 91.2722 454.29 85.73Z" fill="#ECECEC"/>
<path d="M14.5796 28.05C14.5441 21.9681 16.49 16.04 20.1229 11.1621C23.7557 6.28429 28.8781 2.72196 34.7153 1.01383C40.5526 -0.694299 46.7873 -0.455346 52.4767 1.69456C58.166 3.84446 63.0007 7.7884 66.2496 12.93C68.8786 10.9399 71.9803 9.6683 75.2497 9.24013C78.5191 8.81196 81.8436 9.24199 84.8965 10.4879C87.9493 11.7339 90.6253 13.7529 92.6615 16.3464C94.6976 18.9399 96.0238 22.0187 96.5096 25.28C98.7564 24.1406 101.24 23.5479 103.76 23.55C105.896 23.55 108.012 23.9708 109.986 24.7885C111.96 25.6061 113.753 26.8046 115.264 28.3154C116.775 29.8262 117.973 31.6198 118.791 33.5937C119.609 35.5677 120.03 37.6834 120.03 39.82C120.03 41.9566 119.609 44.0723 118.791 46.0463C117.973 48.0202 116.775 49.8138 115.264 51.3246C113.753 52.8354 111.96 54.0339 109.986 54.8515C108.012 55.6692 105.896 56.09 103.76 56.09H40.8396V56C33.7278 55.5572 27.0524 52.4196 22.1733 47.2266C17.2942 42.0335 14.5785 35.1756 14.5796 28.05Z" fill="#ECECEC"/>
</g>
<defs>
<clipPath id="clip0_157_11927">
<rect width="496.96" height="405.88" fill="white"/>
</clipPath>
</defs>
</svg>
