<svg xmlns="http://www.w3.org/2000/svg" viewBox="0 0 900 900" width="900" height="900"><g transform="translate(30.0 83.0) rotate(0.0 422.5 367.5) scale(0.9962695893718668 0.9956381566470699)"><svg width="848.164" height="738.22" viewBox="0 0 848.164 738.22"><path d="M334.794 395.987a16.415 16.415 0 0 0-5.335 11.477c-1.41 33.758-11.208 71.828-44.709 74.347-32.571 2.468-76.146-30.656-105.945-80.504-4.669-7.811-14.82-10.365-22.629-5.697-7.806 4.678-10.36 14.832-5.695 22.636 59.782 99.994 156.417 127.544 195.426 57.924 9.833-17.527 15.396-40.18 16.53-67.332.604-14.739-16.945-22.668-27.643-12.851z" fill="#517fb6"/><path d="M295.68 504.43c.346 5.187-4.554 9.56-11.343 9.797-26.9.71-57.49-12.37-85.88-37.92-16.72-15.04-32.68-34.4-46.69-57.83a14.93 14.93 0 0 1-1.97-9.8l16.35 3.62c23.25 36.02 60.13 80.59 114.13 83.47 6.959.37 14.939 1.706 15.403 8.663z" fill="#82b3fb"/><path d="M282.421 515.803c-21.712.001-45.225-8.504-68.09-24.642-24.247-17.114-46.624-42.15-64.71-72.402-4.948-8.276-2.238-19.047 6.04-24.007 8.284-4.953 19.05-2.242 24.001 6.042 29.625 49.556 72.809 82.458 105.011 80.02 14.801-1.112 26.094-9.489 33.564-24.897 5.867-12.1 9.401-28.869 10.221-48.494a17.407 17.407 0 0 1 5.658-12.171c5.289-4.854 12.651-5.975 19.215-2.928 6.526 3.03 10.398 9.374 10.103 16.556-1.141 27.31-6.746 50.113-16.657 67.78-14.131 25.22-35.983 38.753-63.194 39.136-.385.005-.775.007-1.162.007zM164.615 394.276c-2.704 0-5.442.707-7.927 2.192-7.332 4.394-9.732 13.934-5.35 21.266 17.944 30.014 40.125 54.84 64.146 71.794 22.523 15.896 45.641 24.275 66.936 24.275.38 0 .757-.002 1.135-.008 26.457-.372 47.715-13.552 61.478-38.114 9.757-17.39 15.275-39.893 16.404-66.885.261-6.358-3.167-11.976-8.947-14.658-5.817-2.702-12.339-1.711-17.02 2.586a15.42 15.42 0 0 0-5.012 10.782c-1.125 26.926-8.549 72.514-45.633 75.302-32.933 2.493-76.88-30.808-106.879-80.988-2.9-4.851-8.052-7.544-13.331-7.544z" fill="#670a39"/><path d="M321.084 451.975c6.965-11.121 30.101 13.018 24.441 24.868 9.28-16.54 14.242-40.076 15.412-68.066.34-8.28-6.09-15.27-14.37-15.61-8.27-.36-15.26 6.08-15.61 14.36-.779 18.68-5.193 33.018-9.873 44.448z" fill="#670a39"/><path d="M345.525 477.843a1 1 0 0 1-.902-1.43c1.567-3.282.741-8.133-2.268-13.309-2.794-4.806-7.07-9.188-11.159-11.435-2.967-1.631-6.981-2.809-9.264.837a1 1 0 0 1-1.773-.911c3.804-9.291 8.958-23.972 9.799-44.111a15.918 15.918 0 0 1 5.173-11.129c3.144-2.886 7.219-4.377 11.479-4.188 8.812.362 15.688 7.832 15.326 16.65-1.223 29.267-6.451 52.317-15.539 68.515a.997.997 0 0 1-.872.511zm-19.397-29.725c1.805 0 3.844.596 6.031 1.798 6.708 3.687 14.315 13.066 15.184 21.193 7.28-15.525 11.512-36.467 12.595-62.375.317-7.716-5.7-14.252-13.412-14.569-3.728-.168-7.292 1.139-10.042 3.664a13.934 13.934 0 0 0-4.528 9.739c-.748 17.927-4.859 31.588-8.463 41.039a6.98 6.98 0 0 1 2.635-.489zm-171.453-60.881a.996.996 0 0 1-.386-.077c-9.772-4.089-16.535-12.119-18.555-22.033a1 1 0 0 1 1.96-.399c1.886 9.254 8.216 16.758 17.368 20.586a1 1 0 0 1-.387 1.923z" fill="#670a39"/><path d="M148.191 383.615a.993.993 0 0 1-.538-.158c-5.404-3.459-11.429-2.321-14.138-1.105a1 1 0 1 1-.82-1.824c4.121-1.854 10.678-2.186 16.036 1.246a1 1 0 0 1-.54 1.841z" fill="#670a39"/><path d="M193.439 345.612c.009-.001.001.009.001.009-1.333 5.159-7.795 7.627-13.323 10.47-5.643 2.904-4.505 7.596-1.239 12.902 7.667 12.465.182 28.669-9.297 32.465-.429.061.203 12.547-14.604 22.951 0 0 .001.009-.009.001-12.305 8.787-29.866 11.374-46.422 5.11-36.28-13.769-42.987-15.532-82.451-20.059-6.546-.753-14.764-1.99-19.444-5.911a15.251 15.251 0 0 1-.884-.827 8.6 8.6 0 0 1-.654-.717c-.062-.062-.107-.127-.162-.2-3.704-4.63-4.644-12.877 2.083-19.622-1.087-1.003-2.066-2.066-2.884-3.188l-.001-.009c-2.523-3.4-3.546-6.594-3.014-10.054 1.71-11.153 12.037-17.385 25.703-19.113 4.041-16.062 61.428-26.292 111.514-4.484 5.281-7.881 13.152-14.492 25.653-16.826 10.237-1.912 25.729 2.008 28.982 11.297.795 2.265.887 4.167.452 5.805z" fill="#517fb6"/><path d="M166.146 411.297c-1.91 4.22-4.44 8.39-11.17 13.11h-.01c-11.878 8.529-29.749 11.395-46.42 5.11-36.28-13.77-42.99-15.53-82.45-20.06-3.99-.438-8.493-1.103-12.34-2.31-5.64-1.819-8.79-4.925-8.79-5.33l-.01-.01v-.01c-8.08-14.04 10.05-23.06 30.52-23.69 18.74-.58 44.74 2.86 55.29 11.6 20.337-10.723 73.106-6.753 75.38 21.59z" fill="#82b3fb"/><path d="M102.035 368.265c-2.452 2.09-5.869 7.458-8.46 13.427-12.417-4.42-26.964-7.908-44.708-8.914-14.022-.799-32.939.229-41.844 9.384-1.085-.995-2.057-2.05-2.874-3.164l-.001-.009c-1.634-2.218-2.689-4.644-2.988-7.178.862-9.143 8.769-14.328 27.362-16.418 18.591-2.09 55.894 2.299 73.513 12.872z" fill="#82b3fb"/><path d="M1.137 369.937a1 1 0 0 1-.99-1.152c1.926-12.554 15.571-20.299 36.501-20.718 11.078-.223 23.915.719 35.224 2.582 4.558.749 20.229 4.239 30.181 8.031a1 1 0 1 1-.713 1.869c-9.819-3.742-25.291-7.187-29.793-7.928-11.194-1.843-23.898-2.776-34.859-2.555-19.877.397-32.799 7.508-34.565 19.021a.999.999 0 0 1-.986.85zm168.436 32.531-.078-.003a1 1 0 0 1-.92-1.074 21.631 21.631 0 0 0-.871-7.975 1 1 0 1 1 1.914-.58c.86 2.837 1.18 5.767.951 8.709a.999.999 0 0 1-.996.923zm-162.566-19.3a.985.985 0 0 1-.674-.263.989.989 0 0 1-.076-1.387l.748.664-.745-.667c9.273-9.536 28.315-10.556 42.664-9.735 15.836.897 30.551 3.832 44.987 8.97a1 1 0 0 1-.67 1.884c-14.253-5.074-28.786-7.972-44.43-8.858-11.406-.649-31.911-.334-41.071 9.083a1.02 1.02 0 0 1-.733.309z" fill="#670a39"/><path d="M90.768 390.703a1 1 0 0 1-.97-1.248c.484-1.89 1.149-3.916 1.979-6.022 2.628-6.724 6.67-13.423 9.609-15.928a1 1 0 1 1 1.298 1.521c-2.674 2.279-6.562 8.786-9.045 15.137-.8 2.031-1.441 3.979-1.904 5.788a.998.998 0 0 1-.967.752zm34.986 55.708c-13.021 0-24.281-4.312-37.505-9.374-3.781-1.447-7.691-2.944-11.847-4.417a1 1 0 0 1 .667-1.884c4.18 1.48 8.102 2.981 11.894 4.434 18.376 7.036 32.891 12.595 53.669 6.825a1 1 0 0 1 .535 1.927c-6.286 1.744-12.002 2.489-17.413 2.489z" fill="#670a39"/><path d="M127.296 433.945a54.246 54.246 0 0 1-19.102-3.492c-36.546-13.871-43.461-15.554-82.211-20.003-.825-.09-1.674-.19-2.544-.312a64.341 64.341 0 0 1-2.649-.384l-.166-.027a65.15 65.15 0 0 1-1.173-.194c-2.258-.409-4.218-.877-5.991-1.43a38.117 38.117 0 0 1-1.899-.661 24.46 24.46 0 0 1-1.817-.782c-1.446-.69-2.702-1.48-3.731-2.347a13.047 13.047 0 0 1-1.659-1.658 1.18 1.18 0 0 1-.12-.145 1.415 1.415 0 0 1-.072-.1l-.035-.05c-3.959-5.004-4.62-13.381 1.5-20.141a22.46 22.46 0 0 1-2.286-2.632 1.624 1.624 0 0 1-.057-.087c-2.696-3.667-3.692-7.074-3.135-10.715 1.625-10.603 11.055-17.822 25.914-19.875 1.189-3.532 4.722-6.821 10.273-9.55 20.824-10.235 64.415-11.217 101.661 4.731 6.309-9.075 14.766-14.497 25.827-16.568 10.165-1.892 26.533 1.734 30.108 11.953.835 2.369.99 4.462.474 6.393-1.264 4.895-6.485 7.47-11.534 9.959-.773.381-1.544.761-2.297 1.148-1.802.929-2.864 2.05-3.248 3.424-.544 1.951.219 4.517 2.403 8.072 3.609 5.863 4.315 12.971 1.988 20.01-2.097 6.343-6.398 11.544-11.299 13.709l-.042.308c-1.265 9.068-6.252 16.714-14.824 22.726a.923.923 0 0 1-.084.054c-8.005 5.716-17.943 8.666-28.173 8.666zM5.82 401.294c.018.021.035.045.052.068.209.236.392.447.602.658.26.26.53.511.828.763.897.756 2.009 1.453 3.305 2.071.536.258 1.096.499 1.668.719.582.223 1.185.427 1.789.622 1.685.525 3.566.974 5.741 1.367.374.067.756.129 1.133.188l.177.028c.876.148 1.743.267 2.589.375.861.12 1.691.219 2.502.308 38.983 4.476 45.938 6.168 82.696 20.12 15.585 5.874 33.014 3.964 45.482-4.988.032-.023.066-.044.1-.063 8.049-5.671 12.73-12.84 13.911-21.308.12-.856.216-1.546.898-1.727 4.526-1.846 8.554-6.681 10.525-12.642 2.139-6.47 1.503-12.981-1.792-18.334-2.496-4.064-3.33-7.133-2.626-9.657.533-1.913 1.966-3.482 4.259-4.665.765-.393 1.545-.778 2.328-1.164 4.646-2.29 9.449-4.659 10.482-8.668l.002-.009c.41-1.53.271-3.237-.427-5.219-2.407-6.879-15.097-13.028-27.854-10.648-10.781 2.018-18.96 7.384-25.002 16.403a1 1 0 0 1-1.23.36c-40.64-17.695-83.375-13.637-100.741-5.099-5.353 2.631-8.607 5.71-9.41 8.905a1.002 1.002 0 0 1-.844.748C7.41 353.283 3.009 363.322 2.126 369.085c-.475 3.105.422 6.062 2.825 9.303.022.03.042.061.061.093.727.981 1.637 1.98 2.705 2.97a1 1 0 0 1 .028 1.441c-6.347 6.356-5.49 13.931-2.007 18.278.03.04.058.081.082.124zm163.904 1.152-.002.001.002-.001zm.005-.001-.003.001.003-.001zm.158-.035zm-.301-.954h.01z" fill="#670a39"/><path d="M303.739 692.904c3.084 27.249 61.36 32.71 88.957 32.749 49.529.531 112.147-11.146 96.61-57.429-4.918-14.677-12.848-23.515-24.041-29.094-.012.011-.012 0-.023 0-46.552-23.232-168.088 5.533-161.503 53.774z" fill="#517fb6"/><path d="M497.376 493.907c-17.23 7.4-32.25 22.19-41.72 40.2-3.65 6.94-6.47 14.37-8.28 22.03-4.99 21.15-4.79 53.76 25.25 87.92 0 .25-39.57 4.92-39.57 4.92-6.561-9.95-11.72-20.32-15.44-30.95-7.92-22.61-9.32-46.38-3.79-69.81 2.29-9.67 5.69-18.99 10.06-27.77 12.96-26.05 34.38-47.24 59.87-58.21 6.68-2.87 14.18-1.19 19.02 3.67 1.5 1.49 2.74 3.29 3.63 5.35 3.76 8.75-.29 18.9-9.03 22.65z" fill="#517fb6"/><path d="M453.736 679.687c-20.12 14.99-54.7 19.89-84.01 20.08-19.62.14-36.46-2.46-48.47-8.58-10.42-5.31-13.38-17.17-6-25.39 3.87-4.31 8.61-8.18 14-11.64.01 0 .02-.01.03-.02 25.299-15.356 63.384-23.538 93.62-23.19a143.5 143.5 0 0 0 3.11 6.2c3.251 9.237 10.222 14.059 19.72 15.15 16.77 1.95 19.4 18.89 8 27.39z" fill="#82b3fb"/><path d="M430.316 644.667c-11.177-8.374-22.557-12.042-31.6-12.36 8.22-.97 16.37-1.45 24.19-1.36a143.5 143.5 0 0 0 7.41 13.72z" fill="#670a39"/><path d="M430.316 645.666a1 1 0 0 1-.599-.199c-9.996-7.489-21.018-11.808-31.036-12.161a1 1 0 0 1-.082-1.992c8.44-.995 16.619-1.457 24.319-1.367.383.005.73.228.893.574a142.153 142.153 0 0 0 7.359 13.623 1 1 0 0 1-.854 1.522zm-22.989-13.192c6.589 1.528 13.339 4.495 19.775 8.716a145.924 145.924 0 0 1-4.832-9.249c-4.808-.033-9.81.141-14.943.533z" fill="#670a39"/><path d="M438.666 617.017c5.43 14.83-16.26 14.28-21.05 1.01-7.92-22.61-9.32-46.38-3.79-69.81 2.29-9.67 5.69-18.99 10.06-27.77 12.96-26.05 34.38-47.24 59.87-58.21 6.68-2.87 14.18-1.19 19.02 3.67-52.77 25.12-87.86 86.32-64.11 151.11z" fill="#82b3fb"/><g fill="#670a39"><path d="M395.699 726.668a285.9 285.9 0 0 1-3.014-.016c-8.809-.012-86.252-1.06-89.94-33.636-1.235-9.048 1.814-17.818 9.066-26.045 9.535-10.815 26.561-20.523 47.942-27.335 19.686-6.271 41.43-9.699 61.436-9.699h.147c-12.008-26.26-14.943-54.561-8.483-81.95a130.312 130.312 0 0 1 10.138-27.986c13.156-26.445 35.16-47.834 60.37-58.684 9.244-3.965 19.994.315 23.964 9.544a18.131 18.131 0 0 1 .183 13.966 18.1 18.1 0 0 1-9.737 9.998c-16.688 7.168-31.716 21.655-41.229 39.747-3.666 6.97-6.422 14.303-8.192 21.794-3.743 15.854-4.925 40.399 10.701 67.31 4.26 7.336 9.965 14.429 18.497 22.995 6.278 6.305 9.722 12.062 12.709 21.243 4.071 12.512 2.848 23.33-3.633 32.155-17.371 23.651-67.221 26.599-90.925 26.599zm25.263-94.731c-49.124 0-91.993 18.598-107.651 36.357-6.85 7.771-9.738 16.006-8.582 24.476 2.839 25.081 56.631 31.84 87.968 31.883 65.718.695 86.452-17.785 92.315-25.768 6.078-8.275 7.203-18.487 3.343-30.352-2.88-8.851-6.193-14.394-12.224-20.45-8.658-8.694-14.459-15.912-18.81-23.403-15.957-27.479-14.745-52.566-10.918-68.772 1.809-7.656 4.624-15.147 8.368-22.267 9.722-18.49 25.108-33.308 42.21-40.653a16.11 16.11 0 0 0 8.668-8.901 16.144 16.144 0 0 0-.162-12.435c-3.535-8.216-13.107-12.026-21.337-8.496-24.78 10.664-46.42 31.709-59.369 57.736a128.285 128.285 0 0 0-9.982 27.556c-6.473 27.442-3.357 55.823 9.011 82.073a142.308 142.308 0 0 0 7.359 13.624 1.062 1.062 0 0 1 .157.542 1 1 0 0 1-1.887.462 144.637 144.637 0 0 1-7.168-13.207c-.436-.003-.875-.005-1.309-.005z"/><path d="M423.361 521.508c12.203-8.634 29.998 3.771 31.219 14.713 9.138-18.537 25.567-34.91 42.793-42.311 8.745-3.758 12.79-13.905 9.032-22.65s-13.905-12.779-22.65-9.021c-25.488 10.964-47.431 33.218-60.394 59.269z"/><path d="M454.581 537.222a1 1 0 0 1-.994-.89c-.619-5.549-6.009-11.795-12.815-14.852-3.573-1.604-10.512-3.628-16.832.844a1 1 0 0 1-1.473-1.262c13.498-27.127 35.693-48.901 60.894-59.742a18.135 18.135 0 0 1 13.96-.188 18.101 18.101 0 0 1 10.003 9.734c3.972 9.242-.315 19.993-9.556 23.964-16.958 7.285-33.162 23.314-42.291 41.834a1 1 0 0 1-.896.558zm-21.952-19.593c2.904 0 5.944.673 8.961 2.027 6.424 2.884 11.552 8.231 13.357 13.657 9.517-17.877 25.414-33.183 42.031-40.321 8.228-3.535 12.045-13.107 8.509-21.337a16.114 16.114 0 0 0-8.906-8.665 16.152 16.152 0 0 0-12.431.168c-23.858 10.263-44.987 30.518-58.386 55.857 2.135-.922 4.454-1.386 6.865-1.386z"/><path d="m507.154 514.356-33.069 9.53-6.421-16.23z"/><path d="M474.084 524.886a1 1 0 0 1-.93-.632l-6.42-16.229a1.001 1.001 0 0 1 1.097-1.354l39.49 6.699a1 1 0 0 1 .11 1.948l-33.07 9.53a1.057 1.057 0 0 1-.277.038zm-4.837-15.946 5.433 13.734 27.986-8.065zm-66.786-45.106-33.07 9.53-6.421-16.23z"/><path d="M369.39 474.364a1 1 0 0 1-.93-.632l-6.42-16.23c-.133-.336-.074-.718.153-.998s.587-.412.944-.356l39.49 6.7a1 1 0 0 1 .109 1.948l-33.07 9.53a.999.999 0 0 1-.276.038zm-4.837-15.947 5.433 13.735 27.986-8.065zm-67.997-347.61-6.42-16.23 32.84-11.15z"/><path d="M296.556 111.807a1.003 1.003 0 0 1-.93-.632l-6.42-16.23a.999.999 0 0 1 .608-1.315l32.84-11.149c.437-.146.919.021 1.166.412a.998.998 0 0 1-.125 1.229l-26.42 27.38a1 1 0 0 1-.719.305zm-5.104-16.621 5.463 13.81L319.394 85.7z"/></g><path d="M723.066 382.847c-18.43 58.59-57.85 104.28-117.3 118.29-105.099 28.801-54.384 14.902-70.16 19.23h-.02a1.235 1.235 0 0 1-.18.05c-12.099-37.668 19.079 59.409-158.4-493.15.012 0 .014-.01.04-.01l.03-.01c.02 0 .03-.01.04-.01 3.336-1.103-17.814 4.864 76.89-20.97 36.86-9.92 75.67-5.19 112.32 11.17 123.519 55.106 200.146 227.586 156.74 365.41z" fill="#386393"/><path d="M710.886 413.487c-1.31 2.64-2.68 3.23-4.09 5.78l-183.25 62.23-1.85-3.76zm-5.794 10.8c-15.68 25.91-38.626 50.05-63.976 63.55-15.05 8.08-19.58 9.61-105.71 32.58l-10.37-35.29zm24.344-184.25-256.15 86.99-1.85-5.76 256.77-87.21c.43 1.99.84 3.99 1.23 5.98zm-3.74-16.73-257.62 87.49-5.79-18.03 258.3-87.73c1.89 6.1 3.59 12.2 5.11 18.27z" fill="#517fb6"/><path d="M641.116 487.837c-16.559 8.892-28.013 11.462-53.06 18.21 22.61-10.6 36.34-29.94 44.5-46.42 1.77 7.58 5 17.83 8.56 28.21z" fill="#670a39"/><path d="M588.056 507.047a1 1 0 0 1-.424-1.905c18.383-8.619 33.196-24.082 44.028-45.959a.991.991 0 0 1 1.011-.55.999.999 0 0 1 .859.766c1.569 6.721 4.439 16.18 8.532 28.114a1 1 0 0 1-.473 1.205c-15.022 8.066-26.101 11.027-46.215 16.403-2.231.596-4.578 1.224-7.058 1.892a1.01 1.01 0 0 1-.26.034zm44.171-44.561c-9.335 17.965-21.433 31.497-36.062 40.354 18.817-5.03 29.61-7.998 43.729-15.483-3.467-10.157-6.04-18.501-7.667-24.871z" fill="#670a39"/><path d="M507.258 523.581c-8.338.17-15.562-5.743-17.053-13.924l-44.641-244.933L311.972 98.999c-6.016-7.463-5.927-18.192.365-25.425 19.823-22.789 47.012-41.355 76.677-49.323 103.6-27.806 220.61 61.83 263.81 197.751 49.736 156.437-22.648 299.076-145.566 301.579z" fill="#517fb6"/><path d="M619.546 497.187c91.19-37.28 133.29-164.21 92.28-293.58-39.86-125.75-144.19-210.29-241.45-200.77 99.48-15.13 208.5 70.57 249.45 199.77 42.19 133.09-3.59 261.73-100.28 294.58z" fill="#517fb6"/><path d="M535.406 521.416a1 1 0 0 1-.952-.694 7066185.078 7066185.078 0 0 1-102.866-320.25l-55.534-172.9a.997.997 0 0 1 .693-1.271 7383.215 7383.215 0 0 0 58.109-15.846c21.542-5.956 26.025-7.195 35.371-8.608 27.334-4.152 55.06-1.299 82.403 8.484 25.355 9.073 49.865 23.875 72.847 43.996 43.228 37.845 78.242 92.669 96.065 150.414 17.147 55.34 19.401 114.052 6.345 165.319-14.012 55.022-43.854 96.055-86.301 118.659-14.958 8.029-18.839 9.438-105.922 32.662a.965.965 0 0 1-.258.035zM378.279 27.96l55.213 171.9c30.991 96.489 62.534 194.696 102.575 319.345 85.978-22.933 89.856-24.347 104.576-32.249l.003-.002c41.936-22.333 71.433-62.925 85.303-117.387 12.966-50.916 10.722-109.242-6.318-164.235-17.717-57.402-52.515-111.892-95.472-149.501-22.793-19.954-47.085-34.629-72.204-43.616C524.928 2.544 497.53-.28 470.526 3.824c-9.228 1.395-13.691 2.629-35.137 8.559a7328.984 7328.984 0 0 1-57.11 15.577z" fill="#670a39"/><path d="M696.783 306.258c19.17 6.88 28.325 15.279 37.015 26.879 1.23-10.99 1.81-22.27 1.73-33.78-.001 0-11.495 1.281-38.745 6.901z" fill="#670a39"/><path d="M733.797 334.137a1 1 0 0 1-.8-.4c-8.488-11.331-17.563-19.723-36.552-26.537a1 1 0 0 1 .136-1.921c26.983-5.565 38.72-6.903 38.836-6.916a.998.998 0 0 1 1.111.987c.08 11.485-.504 22.891-1.736 33.898a1.001 1.001 0 0 1-.995.889zm-33.41-27.596c16.198 6.345 24.892 14.023 32.683 23.998 1.004-9.796 1.495-19.886 1.463-30.05-3.296.434-14.09 1.986-34.146 6.052z" fill="#670a39"/><path d="m435.565 266.457-58.891 199.168c-2.438 8.246-9.727 10.363-16.189 4.69-40.39-35.467-73.899-85.92-92.831-145.688-26.68-84.21-18.2-167.19 16.6-224.91 4.08-6.78 11.43-7.31 16.38-1.14z" fill="#ffdf68"/><path d="M426.816 267.987s-.04.14-.12.4c-2.86 9.69-56.98 192.68-57.74 195.25-.42 1.43-1.22 2.86-2.07 2.86-.27 0-1.26-.1-2.78-1.44-25.2-22.13-46.76-49.16-64.08-80.33a334.136 334.136 0 0 1-16.73-34.69c-.04-.08-.07-.17-.1-.26-8.14-19.69-14.38-40.16-18.67-61.19-4.43-21.69-6.61-43.13-6.52-64.08.04-11.59.78-23.02 2.2-34.27 4.14-32.57 13.91-61.81 29.04-86.91 1.6-2.58 3.03-2.74 4.93-.37 15.77 19.62 121.84 151.6 132.64 165.03z" fill="#fffdae"/><path d="M426.816 267.987s-.04.14-.12.4c-20.72-25.42-116.58-142.94-131.61-161.37-1.93-2.37-3.36-2.2-4.96.41-15.04 25.37-24.66 54.86-28.59 87.67a283.133 283.133 0 0 0-1.97 34.5c.12 38.94 8.03 79.51 23.63 120.18-8.14-19.69-14.38-40.16-18.67-61.19-4.43-21.69-6.61-43.13-6.52-64.08.04-11.59.78-23.02 2.2-34.27 4.14-32.57 13.91-61.81 29.04-86.91 1.6-2.58 3.03-2.74 4.93-.37 15.77 19.62 121.84 151.6 132.64 165.03z" fill="#fff8ea"/><path d="M367.865 474.504c-2.683 0-5.464-1.176-8.04-3.438-25.891-22.735-48.025-50.477-65.787-82.451-17.061-30.715-29.293-63.831-36.355-98.431-7.049-34.534-8.532-68.501-4.408-100.954 4.28-33.686 14.415-63.976 30.123-90.029 2.153-3.578 5.235-5.678 8.677-5.909 3.425-.236 6.743 1.424 9.339 4.659l134.93 167.879c.205.256.272.596.179.91l-58.891 199.168c-1.281 4.331-3.864 7.259-7.274 8.244a8.927 8.927 0 0 1-2.493.352zM292.698 95.27c-.162 0-.325.006-.488.017-2.771.187-5.292 1.943-7.099 4.946-15.564 25.814-25.608 55.842-29.853 89.249-4.096 32.235-2.621 65.982 4.384 100.303 7.021 34.398 19.182 67.323 36.144 97.858 17.65 31.774 39.64 59.336 65.359 81.921 2.857 2.508 5.932 3.456 8.659 2.667 2.732-.789 4.831-3.236 5.911-6.89l58.742-198.666L299.855 99.202c-2.047-2.55-4.571-3.932-7.157-3.932z" fill="#670a39"/><path d="M497.258 526.093c-8.338.17-15.562-5.76-17.053-13.966l-44.641-245.671-133.592-166.222c-6.016-7.486-5.927-18.247.365-25.502 19.823-22.858 45.012-39.474 74.677-47.465 103.6-27.89 222.61 60.01 265.81 196.34 49.732 156.896-22.629 299.975-145.566 302.486z" fill="#82b3fb"/><path d="M495.096 518.097h-.19c-4.34 0-8.05-3.11-8.83-7.4l-45-247.67-134.87-167.8c-3.64-4.53-3.56-10.94.17-15.25 96.327-111.032 272.05-26.83 326.82 146.05 47.679 150.353-20.009 289.474-138.1 292.07z" fill="#b5dcfa"/><path d="M533.806 512.047c89.46-31.9 134.74-153.65 93.39-284.02-43.72-138.01-164.49-219.39-260.38-190.29 97.195-34.603 221.861 47.768 266.38 188.29 42.788 134.927-7.374 258.082-99.39 286.02z" fill="#fff8ea"/><path d="M496.902 527.097c-8.711 0-16.113-6.166-17.68-14.791l-44.595-245.421-133.435-166.024c-6.365-7.92-6.202-19.184.389-26.784 20.668-23.832 45.96-39.906 75.173-47.775 50.406-13.566 105.954-.521 156.409 36.749 50.374 37.208 89.658 94.12 110.614 160.255 27.98 88.272 18.749 177.171-24.694 237.804-29.774 41.555-73.031 64.988-121.804 65.984l-.377.003zm.336-2.004.021 1-.021-1c48.127-.982 90.822-24.12 120.22-65.149 20.48-28.583 33.749-64.785 38.374-104.692 4.846-41.822.019-87.239-13.96-131.343C598.9 88.303 480.201.521 377.274 28.233c-28.821 7.764-53.78 23.629-74.182 47.154-5.957 6.869-6.1 17.055-.341 24.221L436.344 265.83a.988.988 0 0 1 .204.447l44.641 245.671c1.413 7.778 8.153 13.326 16.049 13.145z" fill="#670a39"/><path d="M468.815 524.137c-29.11-4.555-57.969-16.796-84.708-35.328-7.084-4.91-10.198-13.831-7.755-22.096l59.212-200.256 44.7 246.02c1.4 7.67-3.75 12.86-11.449 11.66z" fill="#df5468"/><path d="M470.995 525.312c-.755 0-1.535-.062-2.335-.187-29.062-4.549-57.702-16.49-85.123-35.494-7.448-5.163-10.721-14.487-8.144-23.202l59.212-200.256c.132-.444.549-.764 1.013-.715a.998.998 0 0 1 .93.819l44.7 246.021c.732 4.011-.173 7.562-2.549 10.001-1.925 1.976-4.607 3.013-7.704 3.013zm-2.026-2.163c3.422.535 6.367-.265 8.298-2.245 1.911-1.962 2.626-4.891 2.014-8.247L435.332 270.77l-58.021 196.226c-2.332 7.886.628 16.322 7.365 20.991 27.171 18.831 55.531 30.661 84.293 35.162z" fill="#670a39"/><path d="M472.036 516.647c-.479.58-1.5.66-2.06.66-.11 0-.23 0-.35-.01-.23-.01-.48-.04-.73-.08-27.86-4.36-55.38-15.85-81.8-34.16-4.61-3.19-6.63-8.96-5.03-14.36l47.91-162.02 1.77-6c.65-2.21 1.53-2.16 1.94.11l38.69 212.94c.24 1.29.11 2.38-.34 2.92z" fill="#ff6d6d"/><path d="M546.72 321.826c30.338 19.334 6.967 58.241-22.544 38.659" fill="#b5dcfa"/><path d="M540.086 366.864c-4.544.001-10.126-1.342-16.462-5.547a1 1 0 1 1 1.106-1.666c8.495 5.636 17.125 6.746 24.3 3.124 6.333-3.196 10.495-9.747 10.862-17.096.439-8.792-4.557-17.179-13.708-23.011a1 1 0 0 1 1.075-1.688c9.775 6.229 15.107 15.269 14.631 24.799-.403 8.064-4.985 15.261-11.958 18.78-2.205 1.115-5.566 2.305-9.846 2.305z" fill="#670a39"/><path d="M527.399 349.822c-6.865-6.184-11.408-16.615-18.674-22.144 11.174-2.304 25.965-2.061 34.663 5.378 15.845 13.31-.324 30.88-15.989 16.766z" fill="#670a39"/><path d="M539.2 356.045c-4.113 0-8.484-1.889-12.47-5.479-3.256-2.934-6.013-6.812-8.678-10.563-3.022-4.252-6.147-8.648-9.931-11.528a1 1 0 0 1 .403-1.776c11.284-2.326 26.54-2.077 35.515 5.598 5.167 4.341 7.595 9.691 6.654 14.675-.747 3.954-3.52 7.1-7.419 8.415a12.734 12.734 0 0 1-4.074.658zm-28.203-27.776c3.271 2.957 6.017 6.821 8.685 10.575 2.603 3.662 5.294 7.449 8.387 10.235 4.786 4.312 10.094 5.918 14.565 4.411 3.205-1.081 5.482-3.657 6.093-6.891.803-4.253-1.377-8.91-5.982-12.778-7.905-6.759-21.201-7.344-31.748-5.552z" fill="#670a39"/><path d="M542.146 333.07a.992.992 0 0 1-.598-.199c-4.787-3.579-11.6-5.391-20.829-5.536-5.62-.099-8.322.534-10.494 1.033-.45.104-.879.202-1.305.289-1.388.284-4.591 1.268-7.344 2.363a1 1 0 0 1-.739-1.86c2.893-1.15 6.179-2.156 7.684-2.463.41-.084.823-.179 1.256-.278 2.277-.525 5.111-1.179 10.974-1.085 9.665.153 16.859 2.095 21.995 5.935a1 1 0 0 1-.6 1.801z" fill="#670a39"/><path d="M546.934 352.039c-3.434 3.431-8.336 3.658-12.971 1.871-2.864-5.898-1.341-17.554 5.328-23.645 8.772 4.599 14.365 15.073 7.643 21.774z" fill="#ec4949"/><path d="M539.495 356.015c-1.869 0-3.855-.388-5.891-1.173a1.001 1.001 0 0 1-.54-.496c-3.073-6.326-1.316-18.546 5.553-24.819a1 1 0 0 1 1.139-.147c5.88 3.084 10.203 8.53 11.013 13.875.549 3.622-.533 6.905-3.129 9.493-2.164 2.161-4.988 3.267-8.145 3.267zm-4.796-2.899c4.559 1.639 8.743.999 11.529-1.784l.001-.001c2.127-2.121 3.013-4.81 2.564-7.777-.679-4.477-4.395-9.249-9.338-12.061-5.702 5.706-7.222 15.99-4.756 21.623z" fill="#670a39"/><path d="M508.985 294.207c-4.69 1.59-9.58 1.98-14.47 1.31-18.4-2.5-36.9-19.94-45.36-44.94-10.7-31.66-1.28-63.44 21.06-71a29.59 29.59 0 0 1 5.51-1.3c21.06-3.01 44.48 15.85 54.32 44.94 10.71 31.65 1.28 63.43-21.06 70.99z" fill="#82b3fb"/><path d="M502.985 293.207c-4.69 1.59-9.58 1.98-14.47 1.31-18.4-2.5-36.9-19.94-45.36-44.94-10.7-31.66-1.28-63.44 21.06-71a29.59 29.59 0 0 1 5.51-1.3c21.06-3.01 44.48 15.85 54.32 44.94 10.71 31.65 1.28 63.43-21.06 70.99z" fill="#fff8ea"/><path d="M488.515 294.517c24.38-3.49 38.93-35.66 26.53-72.3-8.45-24.99-26.92-42.43-45.32-44.94 21.06-3.01 44.48 15.85 54.32 44.94 13.666 40.384-5.575 76.404-35.53 72.3z" fill="#e7dcdc"/><path d="M493.059 295.831c-1.544 0-3.105-.108-4.68-.323-19.27-2.619-37.825-20.948-46.171-45.611-10.858-32.127-1.129-64.546 21.687-72.268a30.769 30.769 0 0 1 5.697-1.344c21.737-3.109 45.554 16.503 55.4 45.611 5.246 15.5 5.912 31.529 1.875 45.133-4.073 13.728-12.44 23.36-23.562 27.124h.001a31.73 31.73 0 0 1-10.247 1.678zm-18.865-117.87c-1.449 0-2.892.101-4.327.306a28.76 28.76 0 0 0-5.332 1.257c-21.771 7.368-30.937 38.65-20.432 69.732 8.108 23.961 26.01 41.751 44.547 44.27 4.86.666 9.574.241 14.014-1.267h.001c10.488-3.549 18.403-12.711 22.285-25.798 3.92-13.212 3.262-28.811-1.853-43.924-8.884-26.265-29.335-44.576-48.903-44.576z" fill="#670a39"/><ellipse cx="466.404" cy="233.426" fill="#670a39" rx="26.653" ry="45.529" transform="matrix(.9778 -.2095 .2095 .9778 -38.5569 102.9084)"/><path d="M472.566 279.301c-6.257 0-12.735-3.378-18.582-9.772-6.842-7.482-12.034-18.246-14.619-30.308-2.585-12.062-2.26-24.009.916-33.638 3.236-9.814 9.052-16.084 16.374-17.652 7.322-1.569 15.196 1.766 22.17 9.393 6.842 7.482 12.034 18.246 14.618 30.308 2.585 12.062 2.26 24.009-.916 33.638-3.236 9.814-9.052 16.084-16.374 17.652a17.113 17.113 0 0 1-3.587.379zm-31.245-40.5c2.512 11.721 7.533 22.153 14.139 29.378 6.474 7.08 13.673 10.2 20.275 8.787 6.6-1.414 11.889-7.211 14.894-16.323 3.066-9.297 3.371-20.872.859-32.592-2.511-11.721-7.533-22.153-14.139-29.378-6.475-7.082-13.674-10.205-20.275-8.787-6.6 1.414-11.889 7.211-14.894 16.323-3.065 9.297-3.371 20.872-.859 32.592z" fill="#670a39"/><ellipse cx="448.589" cy="224.892" fill="#fff8ea" rx="7.076" ry="11.458" transform="matrix(.9778 -.2095 .2095 .9778 -37.1643 98.9859)"/><path d="M397.125 334.497c-3.76 1.27-7.7 1.57-11.69.98-16.78-2.41-34.39-20.25-42.91-45.46-10.55-31.2-3.21-61.87 16.39-68.5 1.27-.43 2.56-.75 3.86-.96h.01c18.84-3.04 40.85 16.27 50.73 45.45 10.55 31.2 3.21 61.86-16.39 68.49z" fill="#ffdf68"/><path d="M391.125 333.497c-3.76 1.27-7.7 1.57-11.69.98-16.78-2.41-34.39-20.25-42.91-45.46-10.55-31.2-3.21-61.87 16.39-68.5 1.27-.43 2.56-.75 3.86-.96h.01c18.84-3.04 40.85 16.27 50.73 45.45 10.55 31.2 3.21 61.86-16.39 68.49z" fill="#fff8ea"/><path d="M391.125 333.497c-3.76 1.27-7.7 1.57-11.69.98 20.53-3.58 32.17-33.7 20.08-69.47-8.5-25.12-26-42.93-42.73-45.45 18.84-3.04 40.85 16.27 50.73 45.45 10.55 31.2 3.21 61.86-16.39 68.49z" fill="#e7dcdc"/><path d="M383.326 335.768c-1.33 0-2.677-.101-4.037-.302-17.677-2.539-35.245-21.077-43.711-46.129-10.71-31.673-3.077-62.971 17.017-69.768a25.089 25.089 0 0 1 4.021-1l.056-.008c19.567-3.116 41.827 16.697 51.79 46.125 10.709 31.668 3.075 62.961-17.017 69.757a25.234 25.234 0 0 1-8.119 1.325zM356.89 220.551a23.11 23.11 0 0 0-3.654.913c-19.049 6.443-26.12 36.604-15.763 67.232 8.231 24.355 25.151 42.355 42.104 44.79 3.903.58 7.679.261 11.228-.938 19.047-6.443 26.119-36.599 15.763-67.222-9.662-28.537-30.997-47.782-49.623-44.783a.561.561 0 0 1-.055.008zm34.235 112.945h.01z" fill="#670a39"/><ellipse cx="355.536" cy="273.594" fill="#670a39" rx="19.945" ry="43.549" transform="matrix(.9632 -.2687 .2687 .9632 -60.438 105.5907)"/><path d="M364.671 316.889c-4.825 0-10.122-3.177-15.209-9.199-5.929-7.019-10.937-17.129-14.1-28.469s-4.112-22.582-2.672-31.656c1.483-9.344 5.346-15.339 10.876-16.881 5.531-1.544 11.938 1.588 18.044 8.813 5.929 7.019 10.937 17.129 14.1 28.469 6.712 24.062 3.108 45.383-8.204 48.538a10.48 10.48 0 0 1-2.835.385zm-18.261-84.591c-.79 0-1.56.104-2.307.312-4.733 1.32-8.085 6.742-9.438 15.269-1.396 8.796-.465 19.736 2.623 30.806 3.088 11.069 7.954 20.912 13.702 27.715 5.572 6.595 11.247 9.497 15.979 8.18 10.062-2.808 13.119-23.477 6.815-46.075-3.088-11.069-7.954-20.911-13.702-27.715-4.692-5.555-9.457-8.492-13.672-8.492z" fill="#670a39"/><ellipse cx="340.79" cy="258.856" fill="#fff8ea" rx="6.004" ry="10.134" transform="matrix(.9911 -.1335 .1335 .9911 -31.497 47.7952)"/><path d="M379.902 215.108a.996.996 0 0 1-.758-.348c-10.149-11.791-24.06-18.379-37.204-17.624-9.528.547-17.445 4.784-22.294 11.933a1 1 0 1 1-1.655-1.123c5.207-7.675 13.671-12.224 23.835-12.807 13.767-.79 28.282 6.057 38.834 18.316a1 1 0 0 1-.758 1.653z" fill="#670a39"/><path d="M484.452 176.009c-22.485 4.552-34.871 37.941-47.365 35.099-6.512-1.481-8.09-9.021-4.923-13.938l18.262-36.141 27.424 4.703z" fill="#b5dcfa"/><path d="M438.646 212.284a7.95 7.95 0 0 1-1.781-.202c-3.04-.691-5.353-2.639-6.514-5.482-1.304-3.195-.931-7.016.972-9.971a1 1 0 1 1 1.681 1.082c-1.556 2.416-1.863 5.532-.802 8.133.907 2.223 2.72 3.746 5.106 4.289 5.296 1.193 10.813-5.196 17.198-12.606 8.906-10.335 19.989-23.198 36.608-23.295h.006a1 1 0 0 1 .006 2c-15.709.092-26.464 12.572-35.105 22.601-6.177 7.169-11.59 13.45-17.375 13.451z" fill="#670a39"/><path d="M790.356 448.677c-29.85-2.91-54.36-20.18-81.86-34.51 0-.01-.01-.01-.01-.01-24.25-12.61-47.21-20.85-75.39-19.88-9.09.3-16.75-6.84-17.06-15.92-.32-9.12 6.8-16.75 15.91-17.06 79.834-2.799 121.374 53.61 165.48 54.73 5 .12 11.53-.73 14.55-4.67 5.92-7.75 1.52-27.8-15.91-46.7-25.779-27.944-65.369-50.851-103.53-59.41-8.88-1.98-14.479-10.82-12.49-19.7 1.98-8.88 10.83-14.48 19.7-12.5 18.29 4.1 36.63 10.84 54.03 19.66.01 0 .01.01.02.01 25.16 12.76 48.34 29.86 66.52 49.57 44.63 48.38 32.67 112.3-29.96 106.39z" fill="#386393"/><path d="M790.356 448.677c-29.85-2.91-54.36-20.18-81.86-34.51 0-.01-.01-.01-.01-.01-24.25-12.61-47.21-20.85-75.39-19.88-9.09.3-16.75-6.84-17.06-15.92-.32-9.12 6.8-16.75 15.91-17.06 55.91-1.96 92.51 24.82 125.99 42.23 16.67 8.66 30.04 12.26 39.49 12.5 5 .12 11.53-.73 14.55-4.67 5.92-7.75 1.52-27.8-15.91-46.7-14.29-15.49-32.88-29.48-53.16-40.32-.31-.17-.63-.34-.95-.51l-.06-.03c-23.34-12.91-21.086-35.864 10.081-25.691 14.287 4.663 50.68 24.737 68.339 44.181 44.254 48.724 32.67 112.3-29.96 106.39z" fill="#517fb6"/><path d="M818.916 445.687c-7.9 2.89-17.43 4.04-28.56 2.99-29.85-2.91-54.36-20.18-81.86-34.51 0-.01-.01-.01-.01-.01-7.739-4.025-15.057-7.344-16.93-8.11-21.2-8.78-11.36-20.46 2.31-17.12 29.51 7.21 76.35 47.84 115.37 39.44 20.76-4.47 29.78 9.3 9.68 17.32z" fill="#82b3fb"/><path d="M799.066 450.092c-27.67 0-50.21-12.537-74.075-25.811-26.785-14.897-54.484-30.279-91.861-29.01-9.64.312-17.763-7.247-18.097-16.883-.333-9.644 7.24-17.762 16.883-18.096 47.122-1.671 80.483 16.93 109.915 33.32 5.734 3.194 11.151 6.21 16.562 9.023 13.418 6.978 25.772 11.189 35.724 12.181 8.237.822 14.457-.663 17.062-4.071 5.673-7.423 1.225-26.896-15.853-45.409-24.671-26.744-62.524-49.01-98.788-58.109a1 1 0 0 1 .486-1.94c36.621 9.188 74.851 31.679 99.771 58.693 8.12 8.803 14.134 18.717 16.933 27.915 2.601 8.548 2.25 15.861-.962 20.064-3.081 4.03-9.775 5.749-18.849 4.847-10.203-1.017-22.806-5.303-36.448-12.396-5.437-2.827-10.866-5.851-16.613-9.051-29.204-16.265-62.301-34.693-108.872-33.07-8.541.297-15.249 7.487-14.954 16.029.295 8.533 7.475 15.214 16.03 14.953 37.933-1.331 65.878 14.229 92.902 29.26 23.631 13.144 45.952 25.559 73.103 25.559 20.322 0 36.018-9.225 43.063-25.31 9.991-22.81 1.141-54.141-22.546-79.82-30.621-33.193-75.501-58.966-120.053-68.939a.999.999 0 1 1 .437-1.951c44.934 10.059 90.199 36.053 121.086 69.535 24.226 26.263 33.218 58.441 22.908 81.979-7.378 16.847-23.741 26.508-44.894 26.508z" fill="#670a39"/><path d="M665.026 399.787c-6.751 20.863-27.845 34.031-49.73 38.95-44.727 10.019-58.083-11.326-54.97-19-9.038-3.629-14.718-12.728-14.65-18.84-.83-.06-1.67-.14-2.51-.23-.01.01-.01.01-.02 0-12.222-1.262-24.479-4.657-36.65-10.73-9.68-4.79-23.64-16.75-19.35-25.98.03-.06.06-.11.08-.17 0-.01 0-.02.01-.03 3.857-8.023 16.756-11.58 29.87-5.04 20.05 9.986 41.627 11.26 58.6 6.06.01 0 .02-.01.03-.01 1.08-.32 2.11-.67 3.12-1.04.01-.01.03-.01.04-.01.43-.15.85-.31 1.27-.47-10.959-8.726-18.992-20.639-21.03-34.49-2.559-17.468 13.563-32.072 22.91-30.54 17.92 2.83 9.19 27.41 18.04 34.78 5.93 4.93 36.1 3.19 51.83 19.33 0 .22 5 4.84 9.33 12.84z" fill="#517fb6"/><path d="M585.356 407.477c-10.84 2.67-24.06 3.81-36.75 2.32-1.91-3.03-2.95-6.2-2.93-8.88 12.82 1.04 26.25-.09 40.84-3 .4-.07.77-.14 1.12-.23h.01c13.55-3.28 9.45 6.88-2.29 9.79zm5.8 22.43c-11.67 3.16-20.43 2.23-28.46-.47-2.53-3.44-3.45-7.02-2.38-9.68 8.92 3.59 19.97 3.18 29.85.88 10.456-2.751 11.31 6.48.99 9.27zm-4.81-50.4c-29.75 9.38-73.82 4.53-90.69-10.99-5.46-5.02-2.73-12.86 7.25-13.19.22-.01.43-.01.65-.01.24 0 .479 0 .71.01.14.01.29.01.44.02 3.66.2 6.63 1.39 12.4 3.37 20.9 10.41 41.55 10.67 56.71 6.6.64-.17 1.27-.35 1.89-.54.01 0 .02-.01.03-.01 1.08-.32 2.11-.67 3.12-1.04.01-.01.03-.01.04-.01.43-.15.85-.31 1.27-.47-10.68-8.46-18.96-20.39-21.03-34.49-.35-2.39-.36-4.71-.08-6.93v-.02c1.47-11.99 11.02-21.23 18.68-23.26.09-.03.19-.05.28-.07 5.22 0 8.92 4.6 6.82 15.51-4.11 21.44 3.25 35.22 21.5 45.55 5.81 3.29 3.8 12.47-19.99 19.97z" fill="#82b3fb"/><path d="M497.845 384.525c-5.903-5.337-9.548-11.358-11.453-17.017.009 5.475 4.739 11.851 11.453 17.017z" fill="#b9acc0"/><path d="M593.462 442.409c-6.48 0-12.289-.852-17.383-2.555-5.89-1.976-11.061-5.558-14.19-9.827-2.509-3.408-3.497-6.894-2.794-9.729a24.18 24.18 0 0 1-3.641-2.034c-5.978-4.014-10.363-10.781-10.751-16.437-13.563-1.21-26.219-4.808-38.662-10.985-12.658-6.294-23.828-18.521-19.804-27.303 1.626-3.561 4.926-6.375 9.292-7.921 6.542-2.316 14.568-1.517 22.022 2.192 28.034 13.97 51.877 8.153 60.623 5.104-11.079-9.269-18.17-21.283-20.028-34.003-1.314-8.978 1.855-18.01 8.695-24.779 4.933-4.882 10.958-7.591 15.349-6.903 11.47 1.804 12.742 11.976 13.864 20.95.729 5.832 1.418 11.341 4.671 14.049 1.861 1.549 7.032 2.481 13.019 3.562 12.032 2.171 28.51 5.143 38.889 15.841a.986.986 0 0 1 .088.104c3.828 4.154 6.992 8.513 9.403 12.955a1 1 0 0 1-1.758.954c-2.345-4.32-5.432-8.565-9.176-12.618a.842.842 0 0 1-.061-.073c-9.922-10.177-25.997-13.076-37.741-15.194-6.524-1.177-11.677-2.106-13.943-3.993-3.859-3.214-4.596-9.103-5.375-15.338-1.085-8.679-2.208-17.652-12.19-19.222-3.728-.586-9.205 1.966-13.632 6.348-3.02 2.989-9.857 11.221-8.123 23.069 1.86 12.73 9.198 24.749 20.662 33.841a.998.998 0 0 1-.259 1.715c-19.236 7.479-43.112 5.768-63.868-4.577-6.971-3.47-14.43-4.233-20.463-2.098-3.851 1.364-6.742 3.803-8.141 6.868-3.415 7.451 7.003 18.776 18.875 24.68 12.483 6.198 25.183 9.75 38.826 10.858.523.043.925.483.919 1.009-.052 4.459 3.332 11.28 9.897 15.688a22.227 22.227 0 0 0 4.128 2.203 1 1 0 0 1 .55 1.303c-.93 2.291-.09 5.555 2.249 8.731 2.891 3.945 7.707 7.268 13.213 9.114 9.978 3.337 22.885 3.271 38.363-.197 26.261-5.902 45.407-21.907 49.964-41.768a1 1 0 0 1 1.949.447c-4.731 20.618-24.455 37.198-51.475 43.271-8.025 1.799-15.393 2.698-22.052 2.698z" fill="#670a39"/><path d="M575.551 423.404c-5.797 0-11.112-.91-15.608-2.72a31.495 31.495 0 0 1-1.208-.511c-6.905-3.129-14.175-11.601-14.089-19.269.006-.553.459-.957 1.011-.989a1 1 0 0 1 .989 1.011c-.076 6.786 6.712 14.615 12.853 17.398.42.185.8.352 1.181.5 7.767 3.126 18.155 3.422 29.259.838a71.829 71.829 0 0 0 2.162-.543 1 1 0 1 1 .508 1.934c-.73.192-1.47.386-2.22.558-5.141 1.198-10.147 1.793-14.838 1.793z" fill="#670a39"/><path d="M555.196 402.294c-3.274 0-6.469-.127-9.601-.381-.85-.07-1.709-.151-2.547-.242-3.74-.38-7.498-.971-11.162-1.757-8.855-1.867-17.31-4.835-25.845-9.072-12.658-6.294-23.829-18.521-19.804-27.303a1 1 0 0 1 1.819.834c-3.414 7.449 7.004 18.774 18.876 24.678 8.381 4.161 16.68 7.075 25.371 8.907 3.596.771 7.281 1.351 10.955 1.724.828.09 1.67.169 2.501.237 12.246.995 25.514.019 40.562-2.983l1.11-.228a1.001 1.001 0 0 1 .413 1.957l-1.117.229c-11.407 2.275-21.809 3.4-31.531 3.4zm24.968-38.047a1 1 0 0 1-.291-1.957c6.773-2.061 11.633-2.996 17.934-3.451.55-.042 1.029.374 1.069.925s-.374 1.03-.925 1.069c-6.138.444-10.88 1.357-17.496 3.371a.982.982 0 0 1-.291.043z" fill="#670a39"/><path d="M701.226 711.357c-12.62 11.63-42.26 30.82-100.67 24.68-64.3-6.75-54.54-47.11-39.62-63.46 9.66-10.59 26.37-22.54 46.46-30.44h.02c13.36-5.25 28.23-8.7 43.51-8.75h.44c4.27.01 8.58.28 12.89.85 53.45 7.12 64.25 51.96 36.97 77.12z" fill="#517fb6"/><path d="M692.446 677.997c-23.145 37.387-84.776 39.681-108.08 33.19-29.285-8.157-41.962-46.122 33.69-72.42.125-.031 6.671-2.537 16.52-4.07l2.94 13.84c5.963 12.159 32.773 1.97 40.87.06 14.596-3.443 22.512 15.747 14.06 29.4z" fill="#82b3fb"/><path d="M622.303 738.22c-7.026 0-14.314-.396-21.853-1.188-18.775-1.971-42.625-8.185-49.623-26.593-2.428-6.388-2.54-13.729-.323-21.231 1.884-6.374 5.325-12.52 9.692-17.304 10.938-11.991 28.446-23.467 46.833-30.696a.907.907 0 0 1 .115-.037c.204-.08.408-.159.62-.239a.588.588 0 0 1 .071-.023c13.483-5.215 27.008-8.064 40.199-8.47l.898-.029c.703-.011 1.348-.021 1.992-.021h.44c4.414.01 8.794.299 13.021.858 37.125 4.945 47.652 26.093 50.455 34.955 4.826 15.262-.131 32.08-12.938 43.892-8.997 8.291-20.276 14.757-33.523 19.216-13.665 4.599-29.1 6.91-46.076 6.91zm-14.637-95.114c-18.081 7.126-35.269 18.391-45.992 30.146-4.106 4.5-7.478 10.522-9.251 16.523-2.092 7.078-1.997 13.979.274 19.953 5.253 13.819 21.838 22.572 47.962 25.315 24.601 2.581 70.293 2.853 99.888-24.421 12.416-11.45 17.046-27.084 12.386-41.818-2.688-8.498-12.823-28.781-48.811-33.575a99.405 99.405 0 0 0-12.76-.841h-.438c-.635 0-1.27.01-1.915.019l-.913.03c-12.989.399-26.316 3.213-39.611 8.363-.03.012-.06.021-.09.03-.209.079-.412.158-.614.237a.778.778 0 0 1-.115.039zm93.559 68.252h.01z" fill="#670a39"/><path d="M651.364 633.387c-5.405 3.685-11.545 10.635-13.85 15.15-9.12-5.37-19.38-7.91-29.39-6.67 14.033-5.435 28.254-8.395 43.24-8.48z" fill="#670a39"/><path d="M637.514 649.537a.992.992 0 0 1-.507-.139c-9.273-5.46-19.219-7.724-28.759-6.539-.504.058-.97-.259-1.093-.748s.138-.994.608-1.177c14.635-5.669 28.895-8.465 43.595-8.547h.006a1 1 0 0 1 .563 1.826c-5.486 3.74-11.421 10.661-13.523 14.778a.999.999 0 0 1-.89.546zm-22.864-8.96c7.564.249 15.214 2.479 22.476 6.581 2.336-4.065 6.853-9.169 11.175-12.713-11.315.363-22.402 2.381-33.651 6.132z" fill="#670a39"/><path d="M673.692 457.109c-36.65 58.741-36.193 128.092 1.614 186.918.9 1.4 1.56 2.87 1.979 4.37-7.236-.233-33.661 10.82-39.77.14-2.284-5.945-39.646-64.45-20.57-145.24 4.308-18.288 11.164-36.091 20.413-52.957 13.404-1.449 25.663 1.882 36.334 6.769z" fill="#517fb6"/><path d="m630.576 634.697 6.89 13.73c-2.48-4.51-4.79-9.09-6.93-13.72.01-.01.03-.01.04-.01zm-6.97-16.93c-.01-.04-.03-.07-.04-.11-8.51-23.65-12.59-48.39-11.96-73.22.327-12.949 2.023-25.814 4.735-38.499 3.614-16.906 25.265-17.481 21.175-.181-6.08 25.74-8.72 60.37 4.99 100.04 10.84 31.39-13.58 26.28-18.9 11.97z" fill="#82b3fb"/><path d="M637.521 649.531a1 1 0 0 1-.877-.518c-17.938-32.594-26.942-68.766-26.038-104.605.808-32.024 9.531-64.306 25.226-93.352a1 1 0 0 1 1.76.951c-15.546 28.771-24.186 60.739-24.986 92.451-.895 35.485 8.024 71.307 25.791 103.59a1 1 0 0 1-.876 1.483zm37.783-4.509a.999.999 0 0 1-.842-.459c-18.362-28.568-28.344-60.603-28.867-92.641-.522-31.963 8.363-64.056 25.694-92.809a1 1 0 1 1 1.713 1.033c-17.138 28.432-25.924 60.155-25.408 91.743.517 31.665 10.39 63.337 28.55 91.591a1 1 0 0 1-.84 1.542z" fill="#670a39"/></svg></g><g transform="translate(35.0 104.0) rotate(0.0 84.0 162.0) scale(1.0060964654872981 1.0132187520522369)"><svg width="166.982" height="319.773" viewBox="0 0 166.982 319.773"><path d="M109.469 235.008A23.509 23.509 0 0 1 88.487 259.1c-.588.054-1.183.094-1.781.113a23.507 23.507 0 0 1-24.215-22.766c-1.511-49.284 12.742-94.239 42.352-133.6 13.316-17.687 17.64-33.623 11.872-43.693-4.478-7.834-15.338-12.208-27.015-10.883-9.217 1.052-31.826 7.388-42.693 43.429a23.5 23.5 0 1 1-45-13.561c11.943-39.613 37.508-64.2 66.472-73.2a85.853 85.853 0 0 1 15.907-3.367c64.588-7.361 112.21 57.5 58.015 129.537-23.024 30.602-34.107 65.565-32.932 103.899z" fill="#ff6d6d"/><path d="M85.978 260.224a24.538 24.538 0 0 1-24.486-23.746c-1.519-49.517 12.8-94.678 42.552-134.229 13.066-17.356 17.368-32.881 11.8-42.595-4.283-7.5-14.743-11.67-26.033-10.389-9.02 1.029-31.154 7.252-41.849 42.722A24.5 24.5 0 1 1 1.051 77.849C12.256 40.683 36.724 13.76 68.183 3.98a87.276 87.276 0 0 1 16.09-3.4c31.412-3.58 59.708 9.548 73.845 34.259 7.359 12.863 10.216 28.046 8.262 43.907-2.165 17.579-9.964 35.4-23.18 52.966-22.887 30.419-33.9 65.163-32.731 103.267a24.6 24.6 0 0 1-21.876 25.117c-.624.057-1.238.1-1.856.119q-.381.009-.759.009zm7.839-213.187c10.407 0 19.644 4.41 23.766 11.624 5.981 10.44 1.628 26.766-11.941 44.791-29.474 39.177-43.656 83.913-42.151 132.964a22.525 22.525 0 0 0 23.184 21.8 28.77 28.77 0 0 0 1.722-.11 22.591 22.591 0 0 0 20.073-23.065c-1.182-38.57 9.965-73.74 33.132-104.531 24.888-33.083 30.276-67.592 14.78-94.678C142.649 11.824 115.105-.921 84.5 2.565A85.157 85.157 0 0 0 68.778 5.89c-30.815 9.579-54.8 36.017-65.812 72.536A22.5 22.5 0 1 0 46.05 91.41C57.088 54.8 80.174 48.352 89.587 47.278a37.472 37.472 0 0 1 4.23-.241z" fill="#670a39"/><path d="M109.469 235.008A23.509 23.509 0 0 1 88.487 259.1a23.522 23.522 0 0 0 14.013-22.234c-1.175-38.334 9.907-73.3 32.931-103.9 35.7-47.451 22.466-82.445 15.117-95.29C136.659 13.4 107.948-.047 77.419 3.43a84.888 84.888 0 0 0-8.939 1.5 85.853 85.853 0 0 1 15.906-3.358c64.588-7.361 112.21 57.5 58.015 129.537-23.024 30.602-34.107 65.565-32.932 103.899z" fill="#df5468"/><path d="M85.96 260.226a24.5 24.5 0 0 1-24.466-23.75c-1.517-49.519 12.8-94.679 42.553-134.227 13.059-17.358 17.361-32.884 11.805-42.6-4.29-7.5-14.753-11.674-26.035-10.388-9.017 1.032-31.161 7.252-41.852 42.728A24.5 24.5 0 1 1 1.049 77.851C14.3 33.894 45.406 5.008 84.269.58c31.415-3.58 59.712 9.549 73.849 34.262 7.359 12.863 10.216 28.045 8.262 43.905-2.164 17.577-9.963 35.4-23.178 52.961-22.885 30.42-33.9 65.164-32.731 103.267a24.5 24.5 0 0 1-23.738 25.239q-.387.012-.773.012zm7.869-213.19c10.4 0 19.631 4.409 23.759 11.624 5.972 10.438 1.619 26.764-11.943 44.792-29.473 39.175-43.654 83.91-42.152 132.963a22.5 22.5 0 1 0 44.979-1.379c-1.181-38.568 9.966-73.738 33.132-104.53 24.887-33.08 30.273-67.586 14.778-94.671C142.648 11.827 115.1-.92 84.5 2.567 46.452 6.9 15.973 35.261 2.964 78.428A22.5 22.5 0 1 0 46.05 91.412C57.085 54.8 80.175 48.35 89.591 47.278a37.356 37.356 0 0 1 4.238-.242z" fill="#670a39"/><path d="M84.349 318.769h-.105l-.012.006a23.467 23.467 0 0 1-23.354-23.53v-.93a23.5 23.5 0 0 1 47-.047v1.047a23.493 23.493 0 0 1-23.529 23.454z" fill="#ff6d6d"/><path d="M84.231 319.771a24.466 24.466 0 0 1-24.349-24.53v-.929a24.46 24.46 0 0 1 24.479-24.519h.029a24.492 24.492 0 0 1 24.494 24.471v1.043a24.494 24.494 0 0 1-24.535 24.462h-.039l-.079.002zm.118-1v-1a22.493 22.493 0 0 0 22.531-22.46v-1.041a22.491 22.491 0 0 0-22.521-22.475 22.458 22.458 0 0 0-22.481 22.518v.93a22.469 22.469 0 0 0 22.268 22.53.88.88 0 0 1 .114-.006z" fill="#670a39"/><path d="M84.349 318.769h-.105a23.513 23.513 0 0 0 16.992-22.543v-1.047a23.488 23.488 0 0 0-23.386-23.467 23.534 23.534 0 0 1 30.032 22.556v1.047a23.493 23.493 0 0 1-23.533 23.454z" fill="#df5468"/><path d="M84.382 319.773h-.036a24.449 24.449 0 0 1-7.85-1.3A24.487 24.487 0 0 1 59.88 295.24v-.929a24.5 24.5 0 0 1 24.478-24.521h.019a24.531 24.531 0 0 1 24.5 24.478v1.039a24.5 24.5 0 0 1-24.5 24.466zm-7.243-3.189a22.456 22.456 0 0 0 7.21 1.189h.033a22.5 22.5 0 0 0 22.5-22.468v-1.037a22.529 22.529 0 0 0-22.5-22.478h-.022a22.5 22.5 0 0 0-22.48 22.52v.931a22.489 22.489 0 0 0 15.259 21.343z" fill="#670a39"/></svg></g></svg>