<svg width="497" height="467" viewBox="0 0 497 467" fill="none" xmlns="http://www.w3.org/2000/svg">
<g clip-path="url(#clip0_157_12235)">
<path d="M437.29 269.36C436.81 270.45 436.36 271.51 435.96 272.52C436.713 273.128 437.301 273.916 437.67 274.81L437.9 274.7C437.495 272.949 437.291 271.157 437.29 269.36ZM442.77 268.08C442.77 268.43 442.77 268.77 442.82 269.08C442.82 268.8 442.82 268.53 442.89 268.25L442.77 268.09M435.46 260.15C435.173 261.468 434.596 262.704 433.77 263.77L433.42 264.19C433.536 264.96 433.717 265.72 433.96 266.46C434.62 266.8 435.12 267.53 434.96 269.01C435.19 269.48 435.44 269.95 435.71 270.43C436.58 268.37 437.61 266.18 438.78 263.99C438.49 263.34 437.05 260.4 435.42 260.15M453.61 244.49C450.61 244.49 449.2 249.02 449.2 249.02C449.186 248.206 448.887 247.422 448.355 246.805C447.824 246.187 447.093 245.775 446.29 245.64H446.24C443.94 245.64 442.04 250.64 442.34 256.07C442.13 254.5 441.51 252.02 439.75 252.02C439.293 252.035 438.846 252.162 438.45 252.39C434.87 254.29 438.3 262.83 438.79 263.99C441.37 259.2 444.69 254.44 448.79 251.1L449.42 251.87C445.28 255.24 441.95 260.1 439.42 264.95C439.754 264.814 440.11 264.74 440.47 264.73C440.914 264.752 441.338 264.917 441.681 265.2C442.023 265.482 442.265 265.868 442.37 266.3L443.26 265.89C443.641 263.867 444.487 261.961 445.73 260.32C445.495 260.194 445.251 260.087 445 260C449.44 258.19 451 256.59 451 256.59C452.71 254.41 449.61 253.75 448.09 253.59H448.72C452.23 253.59 453.65 251.75 453.65 251.75C457.06 247.93 454.59 244.46 453.65 244.46" fill="#DFDFDF"/>
<path d="M435 272.25C434.79 272.259 434.585 272.318 434.4 272.42C433.15 273.05 432.74 274.98 433.08 277.5C433.58 276.01 434.21 274.21 435 272.25ZM455 258.88C452.19 258.88 450.44 262.88 450.44 262.88C450.527 262.07 450.326 261.256 449.872 260.58C449.419 259.903 448.742 259.408 447.96 259.18H447.72C447.325 259.219 446.942 259.342 446.597 259.54C446.252 259.739 445.953 260.008 445.72 260.33C444.477 261.971 443.632 263.877 443.25 265.9C443.072 266.678 442.942 267.466 442.86 268.26C442.86 268.54 442.81 268.81 442.79 269.09C442.79 268.79 442.79 268.45 442.74 268.09C442.685 267.48 442.558 266.879 442.36 266.3C442.255 265.868 442.014 265.482 441.671 265.199C441.329 264.917 440.904 264.752 440.46 264.73C440.1 264.74 439.744 264.814 439.41 264.95C438.62 266.44 437.91 267.95 437.26 269.37C437.261 271.167 437.466 272.959 437.87 274.71C438.12 275.83 438.35 276.6 438.36 276.65C438.168 276.022 437.927 275.411 437.64 274.82C437.271 273.926 436.683 273.138 435.93 272.53C434.81 275.34 433.99 277.81 433.46 279.53C433.46 279.65 433.53 279.77 433.56 279.89H438.56C439.41 276.09 442.04 267.94 449.39 264.89L449.77 265.81C443.06 268.57 440.49 276.15 439.61 279.86H440.1L439.86 279.78L443.02 278.73C450.31 275.45 444.89 273.31 444.89 273.31C449.51 272.04 451.26 270.63 451.26 270.63C453.21 268.63 450.21 267.63 448.73 267.28C449.295 267.383 449.867 267.437 450.44 267.44C451.891 267.524 453.32 267.056 454.44 266.13C458.28 262.74 456.24 259 455.3 258.89C455.181 258.88 455.06 258.88 454.94 258.89" fill="#DFDFDF"/>
<path d="M424.39 262.2C424.123 262.19 423.858 262.253 423.624 262.382C423.39 262.51 423.195 262.7 423.06 262.93C422.892 263.217 422.793 263.539 422.77 263.87C423.007 263.465 423.327 263.114 423.707 262.839C424.087 262.563 424.521 262.37 424.98 262.27C424.786 262.228 424.588 262.204 424.39 262.2ZM434.08 240.37C433.997 240.352 433.912 240.352 433.83 240.37C431.07 241.65 431.73 246.37 431.73 246.37C431.464 245.769 431.027 245.259 430.474 244.904C429.922 244.548 429.277 244.363 428.62 244.37C428.302 244.366 427.986 244.407 427.68 244.49C425.53 245.4 425.91 250.81 428.47 255.61C427.75 254.48 426.47 252.86 425.13 252.86C424.77 252.894 424.424 253.016 424.123 253.215C423.821 253.413 423.573 253.683 423.4 254C423.035 254.475 422.844 255.061 422.86 255.66C423.193 256.325 423.371 257.056 423.38 257.8C424.79 260.99 428.56 264.36 428.68 264.47C427.859 263.756 426.952 263.148 425.98 262.66C427.27 263.66 427.2 266.34 425.98 269.48C426.844 270.297 427.77 271.046 428.75 271.72C429.03 265.98 429.55 258.42 430.52 250.9L431.52 251.03C430.25 260.93 429.75 270.91 429.52 276.67C430.021 276.465 430.484 276.178 430.89 275.82C431.855 274.966 432.691 273.976 433.37 272.88L434 272C434.556 271.122 434.899 270.125 435 269.09V269C435.12 267.52 434.62 266.79 434 266.45C433.607 266.261 433.175 266.168 432.74 266.18C432.379 266.18 432.02 266.223 431.67 266.31L433.46 264.18L433.81 263.76C434.636 262.694 435.213 261.457 435.5 260.14C435.72 258.38 434.25 258.14 433.31 258.14C433.058 258.139 432.807 258.159 432.56 258.2C435.82 254.7 436.56 252.58 436.56 252.58C436.92 251.04 436.07 250.58 435 250.58C434.199 250.616 433.407 250.767 432.65 251.03C436.35 249.57 436.92 247.03 436.92 247.03C438.3 242.52 435.26 240.37 434.11 240.37" fill="#DFDFDF"/>
<path d="M448.84 251.09C444.73 254.43 441.41 259.19 438.84 263.98C437.67 266.17 436.64 268.36 435.77 270.42C435.504 271.04 435.254 271.65 435.02 272.25C434.23 274.25 433.6 276.01 433.1 277.5C432.8 278.42 432.56 279.22 432.36 279.87H433.36C433.404 279.752 433.441 279.632 433.47 279.51C434 277.8 434.82 275.33 435.94 272.51C436.34 271.51 436.79 270.44 437.27 269.35C437.92 267.91 438.63 266.42 439.42 264.93C441.98 260.08 445.31 255.22 449.42 251.85L448.79 251.08" fill="#C1C1C1"/>
<path d="M430.55 250.86C429.55 258.38 429.06 265.94 428.78 271.68C428.61 275.28 428.53 278.16 428.49 279.87H429.49C429.49 279.05 429.54 277.95 429.58 276.63C429.77 270.87 430.27 260.89 431.58 250.99L430.58 250.86" fill="#C1C1C1"/>
<path d="M449.45 264.9C442.1 267.9 439.45 276.07 438.62 279.9H439.67C440.55 276.19 443.12 268.61 449.83 265.85L449.45 264.93" fill="#C1C1C1"/>
<path d="M406.62 246.63C405.67 246.63 403.21 250.1 406.62 253.93C406.755 254.091 406.906 254.238 407.07 254.37C407.277 254.477 407.469 254.611 407.64 254.77C408.821 255.46 410.172 255.807 411.54 255.77C411.75 255.77 411.96 255.77 412.17 255.77C411.17 255.9 409.41 256.24 408.91 257.12C409.059 257.661 409.169 258.213 409.24 258.77C410.109 259.568 411.085 260.241 412.14 260.77C412.238 260.789 412.335 260.815 412.43 260.85C412.713 260.947 412.973 261.103 413.19 261.31C413.79 261.61 414.47 261.91 415.19 262.22C414.768 262.346 414.364 262.528 413.99 262.76C414.346 263.945 414.485 265.185 414.4 266.42C415.025 266.945 415.694 267.417 416.4 267.83L419.4 269.24C419.4 269.24 415.59 269.84 417.5 273.15C418.033 274.039 418.766 274.792 419.64 275.35L420.51 275.93C421.861 276.817 423.362 277.45 424.94 277.8C417.83 258.12 411.07 252.27 411 252.21L411.64 251.45C411.92 251.68 417.64 256.61 424.19 273C424.861 271.877 425.437 270.7 425.91 269.48C427.1 266.34 427.17 263.68 425.91 262.66L425.79 262.58C425.547 262.407 425.257 262.313 424.96 262.31C424.501 262.41 424.067 262.603 423.687 262.879C423.307 263.154 422.988 263.505 422.75 263.91C422.207 264.656 421.745 265.457 421.37 266.3C421.43 266.15 423.52 261.3 423.37 257.8C423.361 257.056 423.183 256.325 422.85 255.66C422.608 255.198 422.231 254.822 421.77 254.58C421.374 254.349 420.927 254.219 420.47 254.2C418.7 254.2 418.09 256.69 417.88 258.26C418.18 252.86 416.28 247.83 413.97 247.83H413.92C413.117 247.962 412.387 248.371 411.857 248.988C411.326 249.604 411.03 250.387 411.02 251.2C411.02 251.2 409.65 246.67 406.61 246.67" fill="#DFDFDF"/>
<path d="M397.59 249.59C397.431 249.588 397.272 249.612 397.12 249.66C396.382 249.996 395.784 250.58 395.432 251.311C395.079 252.042 394.994 252.873 395.19 253.66C395.19 253.66 393.12 250.33 390.53 250.32C390.267 250.324 390.005 250.361 389.75 250.43C388.84 250.67 387.36 254.67 391.65 257.43C392.547 257.994 393.592 258.273 394.65 258.23C395.607 258.224 396.556 258.062 397.46 257.75C396.05 258.32 393.23 259.75 395.46 261.42C395.46 261.42 397.39 262.57 402.14 263.16C401.508 263.53 400.989 264.066 400.64 264.71C401.883 265.387 402.846 266.481 403.36 267.8C403.77 267.96 404.24 268.11 404.77 268.26L408.06 268.84C407.873 268.93 407.693 269.034 407.52 269.15C409.11 269.47 410.42 271.8 411.05 275.07C412.344 275.478 413.694 275.684 415.05 275.68H415.64C410.263 267.435 403.235 260.393 395 255L395.52 254.15C402.507 258.736 408.656 264.486 413.7 271.15C414.135 269.6 414.396 268.007 414.48 266.4C414.566 265.165 414.427 263.925 414.07 262.74C413.904 262.197 413.613 261.7 413.22 261.29C413.003 261.084 412.744 260.927 412.46 260.83C412.366 260.795 412.269 260.769 412.17 260.75H412C409.91 260.75 409.18 265.43 409.16 265.59C409.476 263.33 409.519 261.04 409.29 258.77C409.22 258.213 409.11 257.661 408.96 257.12C408.753 256.247 408.314 255.445 407.69 254.8C407.354 254.491 406.945 254.274 406.5 254.17C406.245 254.105 405.983 254.072 405.72 254.07C403.43 254.07 403.47 257 403.72 258.73C402.72 253.73 399.86 249.62 397.67 249.62" fill="#DFDFDF"/>
<path d="M407.14 269.16C404.88 269.16 405.23 273.31 405.36 274.42C407.869 276.042 410.244 277.865 412.46 279.87H412.59L411.44 278.82C411.404 277.579 411.274 276.342 411.05 275.12C410.42 271.85 409.11 269.52 407.52 269.2C407.41 269.185 407.299 269.185 407.19 269.2H407.14M390.25 262.81C389.895 262.804 389.546 262.905 389.25 263.1C388.643 263.641 388.246 264.378 388.127 265.182C388.008 265.986 388.175 266.807 388.6 267.5C388.6 267.5 386.35 265.56 384.14 265.56C383.543 265.549 382.955 265.712 382.45 266.03C381.65 266.54 381.45 270.79 386.35 272.2C386.751 272.323 387.17 272.38 387.59 272.37C389.195 272.316 390.742 271.756 392.01 270.77C390.84 271.77 388.57 273.95 391.17 274.88C391.849 275.005 392.539 275.059 393.23 275.04C394.854 275.019 396.473 274.858 398.07 274.56C398.07 274.56 394.26 278.65 401.64 278.65H402.09L405.4 278.23C404.896 278.685 404.52 279.264 404.31 279.91H411C404.912 274.745 397.883 270.806 390.3 268.31L390.58 267.31C395.806 269.021 400.786 271.412 405.39 274.42C405.008 272.153 404.336 269.945 403.39 267.85C402.876 266.531 401.912 265.437 400.67 264.76C400.353 264.628 400.013 264.563 399.67 264.57H399.47C396.33 264.81 397.34 268.01 398.14 269.76C395.9 265.76 392.43 262.76 390.25 262.76" fill="#DFDFDF"/>
<path d="M411.74 251.41L411.1 252.17C411.17 252.23 417.93 258.08 425.04 277.76C425.29 278.45 425.54 279.15 425.79 279.87H426.85C425.99 277.37 425.136 275.067 424.29 272.96C417.76 256.57 412.02 251.64 411.74 251.41Z" fill="#C1C1C1"/>
<path d="M395.52 254.11L395 255C403.239 260.418 410.264 267.487 415.63 275.76C416.47 277.093 417.253 278.477 417.98 279.91H419.1C417.569 276.839 415.762 273.913 413.7 271.17C408.656 264.506 402.507 258.756 395.52 254.17" fill="#C1C1C1"/>
<path d="M390.54 267.31L390.26 268.31C397.843 270.806 404.872 274.745 410.96 279.91H412.46C410.244 277.905 407.87 276.082 405.36 274.46C400.756 271.452 395.776 269.061 390.55 267.35" fill="#C1C1C1"/>
<path d="M405 286H404.91V315.72H405V286ZM413.72 286H411.12V315.72H413.72V286ZM419.88 286H416.72V315.72H419.88V286ZM426.03 286H422.88V315.72H426V286M431.65 286H429V315.72H431.65V286ZM442.42 286H439.27V315.72H442.42V286Z" fill="#F5F5F5"/>
<path d="M439.31 285.99H437.81V315.71H439.31V285.99Z" fill="#E2E2E2"/>
<path d="M405 315.71H404.91V317.21H402.65V318.71H405V315.71ZM431.68 315.71H429V317.21H426V315.71H422.85V317.21H419.85V315.71H416.69V317.21H413.69V315.71H411.09V318.71H431.65V315.71M442.42 315.71H437.77V318.71H444.67V317.21H442.42V315.71Z" fill="#E2E2E2"/>
<path d="M389.61 279.87V455.74C389.61 456.163 389.694 456.582 389.855 456.972C390.017 457.363 390.254 457.718 390.553 458.017C390.853 458.316 391.207 458.553 391.598 458.715C391.989 458.877 392.407 458.96 392.83 458.96H395.73V286H389.61V279.88" fill="#DCDCDC"/>
<path d="M437.81 285.99H431.69V315.71V318.71V458.96H437.81V318.71V315.71V285.99Z" fill="#DCDCDC"/>
<path d="M411.13 285.99H410.57H407.57H405.01V315.71V318.71V458.96H411.13V318.71V315.71V285.99Z" fill="#DCDCDC"/>
<path d="M452.7 286H446.58V459H449.48C450.334 459 451.153 458.661 451.757 458.057C452.361 457.453 452.7 456.634 452.7 455.78V286Z" fill="#DCDCDC"/>
<path d="M452.69 279.87H440.16H439.67H438.63H433.59H432.34H429.49H428.49H426.85H425.79H419.1H417.98H412.59H412.46H410.96H404.29H389.62V285.99H395.73H401.92H404.92H413.73H416.73H419.88H422.88H426.04H429.04H431.69H437.81H442.46H445.46H446.58H452.69V279.87Z" fill="#DCDCDC"/>
<path d="M450.1 459H392.67L393.77 463.37C393.897 463.87 394.187 464.314 394.594 464.631C395.002 464.948 395.504 465.12 396.02 465.12H446.75C447.266 465.12 447.768 464.948 448.175 464.631C448.583 464.314 448.873 463.87 449 463.37L450.1 459Z" fill="#DCDCDC"/>
<path d="M416.73 285.99H413.73V315.71V317.21H416.73V315.71V285.99Z" fill="#E2E2E2"/>
<path d="M422.88 285.99H419.88V315.71V317.21H422.88V315.71V285.99Z" fill="#E2E2E2"/>
<path d="M429.04 285.99H426.04V315.71V317.21H429.04V315.71V285.99Z" fill="#E2E2E2"/>
<path d="M445.46 285.99H442.46V315.71V317.21H444.71H445.46V285.99Z" fill="#E2E2E2"/>
<path d="M404.92 285.99H401.92V317.21H402.66H404.92V315.71V285.99Z" fill="#E2E2E2"/>
<path d="M129.95 0H39.96V134.43H129.95V0Z" fill="#EFEFEF"/>
<path d="M231.51 0H141.52V134.43H231.51V0Z" fill="#EFEFEF"/>
<path d="M129.95 146.52H39.96V280.95H129.95V146.52Z" fill="#EFEFEF"/>
<path d="M231.51 146.52H141.52V280.95H231.51V146.52Z" fill="#EFEFEF"/>
<path d="M207.98 104.37H86.8896C83.0237 104.37 79.8896 107.504 79.8896 111.37V138.87C79.8896 142.736 83.0237 145.87 86.8896 145.87H207.98C211.846 145.87 214.98 142.736 214.98 138.87V111.37C214.98 107.504 211.846 104.37 207.98 104.37Z" fill="#3FD1B8"/>
<path d="M203.64 116.35H118.07C117.749 116.322 117.45 116.174 117.232 115.936C117.014 115.698 116.894 115.388 116.894 115.065C116.894 114.743 117.014 114.432 117.232 114.194C117.45 113.956 117.749 113.808 118.07 113.78H203.64C203.961 113.808 204.26 113.956 204.478 114.194C204.696 114.432 204.817 114.743 204.817 115.065C204.817 115.388 204.696 115.698 204.478 115.936C204.26 116.174 203.961 116.322 203.64 116.35Z" fill="white"/>
<path d="M203.64 125.76H118.07C117.749 125.732 117.45 125.584 117.232 125.346C117.014 125.108 116.894 124.797 116.894 124.475C116.894 124.153 117.014 123.842 117.232 123.604C117.45 123.366 117.749 123.218 118.07 123.19H203.64C203.961 123.218 204.26 123.366 204.478 123.604C204.696 123.842 204.817 124.153 204.817 124.475C204.817 124.797 204.696 125.108 204.478 125.346C204.26 125.584 203.961 125.732 203.64 125.76Z" fill="white"/>
<path d="M186.32 135.17H118.07C117.731 135.17 117.405 135.035 117.165 134.795C116.925 134.555 116.79 134.229 116.79 133.89C116.79 133.551 116.925 133.225 117.165 132.985C117.405 132.745 117.731 132.61 118.07 132.61H186.32C186.66 132.61 186.985 132.745 187.225 132.985C187.465 133.225 187.6 133.551 187.6 133.89C187.6 134.229 187.465 134.555 187.225 134.795C186.985 135.035 186.66 135.17 186.32 135.17Z" fill="white"/>
<path d="M99.1999 136.19C105.314 136.19 110.27 131.234 110.27 125.12C110.27 119.006 105.314 114.05 99.1999 114.05C93.0861 114.05 88.1299 119.006 88.1299 125.12C88.1299 131.234 93.0861 136.19 99.1999 136.19Z" fill="white"/>
<path d="M97.9996 130.31C97.6774 130.309 97.367 130.188 97.1296 129.97L93.7896 126.97C93.5284 126.741 93.369 126.417 93.3465 126.07C93.324 125.723 93.4402 125.381 93.6696 125.12C93.8991 124.859 94.2228 124.699 94.5698 124.677C94.9167 124.654 95.2584 124.771 95.5196 125L97.8996 127.16L103.15 121.25C103.261 121.124 103.397 121.021 103.548 120.947C103.699 120.874 103.864 120.83 104.032 120.82C104.2 120.81 104.368 120.833 104.528 120.888C104.687 120.943 104.834 121.028 104.96 121.14C105.086 121.252 105.189 121.387 105.262 121.538C105.336 121.69 105.379 121.854 105.39 122.022C105.4 122.19 105.377 122.359 105.322 122.518C105.267 122.677 105.181 122.824 105.07 122.95L98.9996 129.88C98.8872 130.007 98.7506 130.111 98.5978 130.184C98.445 130.258 98.2791 130.301 98.1096 130.31H97.9996Z" fill="#1DAE66"/>
<path d="M207.98 153.63H86.8896C83.0237 153.63 79.8896 156.764 79.8896 160.63V188.13C79.8896 191.996 83.0237 195.13 86.8896 195.13H207.98C211.846 195.13 214.98 191.996 214.98 188.13V160.63C214.98 156.764 211.846 153.63 207.98 153.63Z" fill="#3FD1B8"/>
<path d="M203.64 165.61H118.07C117.749 165.582 117.45 165.434 117.232 165.196C117.014 164.958 116.894 164.647 116.894 164.325C116.894 164.002 117.014 163.692 117.232 163.454C117.45 163.216 117.749 163.068 118.07 163.04H203.64C203.961 163.068 204.26 163.216 204.478 163.454C204.696 163.692 204.817 164.002 204.817 164.325C204.817 164.647 204.696 164.958 204.478 165.196C204.26 165.434 203.961 165.582 203.64 165.61Z" fill="white"/>
<path d="M203.64 175H118.07C117.731 175 117.405 174.865 117.165 174.625C116.925 174.385 116.79 174.059 116.79 173.72C116.79 173.381 116.925 173.055 117.165 172.815C117.405 172.575 117.731 172.44 118.07 172.44H203.64C203.98 172.44 204.305 172.575 204.545 172.815C204.785 173.055 204.92 173.381 204.92 173.72C204.92 174.059 204.785 174.385 204.545 174.625C204.305 174.865 203.98 175 203.64 175Z" fill="white"/>
<path d="M186.32 184.44H118.07C117.749 184.412 117.45 184.264 117.232 184.026C117.014 183.788 116.894 183.477 116.894 183.155C116.894 182.833 117.014 182.522 117.232 182.284C117.45 182.046 117.749 181.898 118.07 181.87H186.32C186.641 181.898 186.94 182.046 187.158 182.284C187.376 182.522 187.497 182.833 187.497 183.155C187.497 183.477 187.376 183.788 187.158 184.026C186.94 184.264 186.641 184.412 186.32 184.44Z" fill="white"/>
<path d="M99.1999 185.45C105.314 185.45 110.27 180.494 110.27 174.38C110.27 168.266 105.314 163.31 99.1999 163.31C93.0861 163.31 88.1299 168.266 88.1299 174.38C88.1299 180.494 93.0861 185.45 99.1999 185.45Z" fill="white"/>
<path d="M97.9999 179.57C97.6797 179.568 97.3707 179.451 97.1299 179.24L93.7899 176.24C93.6652 176.126 93.564 175.989 93.4922 175.837C93.4204 175.684 93.3794 175.519 93.3715 175.35C93.3636 175.182 93.389 175.013 93.4462 174.854C93.5034 174.696 93.5913 174.55 93.7049 174.425C93.8185 174.3 93.9556 174.199 94.1083 174.127C94.261 174.055 94.4263 174.014 94.5948 174.007C94.7634 173.999 94.9318 174.024 95.0905 174.081C95.2493 174.138 95.3952 174.226 95.5199 174.34L97.8999 176.49L103.15 170.58C103.262 170.454 103.397 170.351 103.548 170.277C103.7 170.204 103.864 170.16 104.032 170.15C104.2 170.14 104.369 170.163 104.528 170.218C104.687 170.273 104.834 170.358 104.96 170.47C105.086 170.582 105.189 170.717 105.263 170.868C105.336 171.02 105.38 171.184 105.39 171.352C105.4 171.52 105.377 171.689 105.322 171.848C105.267 172.007 105.182 172.154 105.07 172.28L98.9999 179.14C98.8875 179.267 98.7509 179.371 98.5981 179.444C98.4453 179.518 98.2794 179.561 98.1099 179.57H97.9999Z" fill="#1DAE66"/>
<path d="M255.35 293.24C255.968 293.249 256.578 293.381 257.145 293.628C257.711 293.875 258.223 294.232 258.65 294.679C259.077 295.126 259.411 295.653 259.633 296.23C259.854 296.807 259.959 297.422 259.94 298.04L257.72 461.04C257.729 461.397 257.668 461.752 257.539 462.086C257.41 462.419 257.216 462.723 256.969 462.98C256.721 463.238 256.425 463.444 256.098 463.586C255.77 463.729 255.417 463.805 255.06 463.81H251.14C250.428 463.799 249.748 463.508 249.25 462.998C248.751 462.489 248.475 461.803 248.48 461.09L247.2 303.27L255.35 293.24Z" fill="#BDBDC9"/>
<path d="M254.36 292.24L193.7 289.06C191.928 288.992 190.197 289.612 188.871 290.79C187.544 291.967 186.724 293.612 186.58 295.38L170.48 462.6C170.462 462.752 170.476 462.906 170.521 463.052C170.567 463.199 170.642 463.334 170.743 463.449C170.844 463.564 170.968 463.656 171.107 463.72C171.246 463.784 171.397 463.818 171.55 463.82H178.47C178.741 463.816 179.001 463.711 179.198 463.526C179.396 463.342 179.518 463.09 179.54 462.82L195.54 303.44C195.637 302.308 196.151 301.252 196.983 300.478C197.814 299.703 198.904 299.266 200.04 299.25L252.39 301.25L254.36 292.24Z" fill="#D8D8DF"/>
<path d="M335.11 381H238.19L265.65 242.52H332C332.907 242.507 333.808 242.673 334.651 243.008C335.494 243.343 336.262 243.841 336.912 244.474C337.563 245.106 338.082 245.861 338.44 246.694C338.798 247.527 338.989 248.423 339 249.33L335.11 381Z" fill="#2A6DBC"/>
<path d="M330.74 347.27H235.38L260.49 248C261.29 244.83 265.13 242.53 269.61 242.53H321.47C326.59 242.53 330.74 245.53 330.74 249.19V347.27Z" fill="#306ADC"/>
<path d="M173.73 347.18H252.08V381H170.36V350.55C170.363 349.657 170.719 348.801 171.35 348.17C171.982 347.539 172.837 347.183 173.73 347.18Z" fill="#306ADC"/>
<path d="M202 421.53L203.8 445.53L218.24 445.35C218.24 445.35 219.85 416.83 219.5 416.29C219.15 415.75 202 421.53 202 421.53Z" fill="#FFCDC2"/>
<path d="M224.18 464.2C211.12 464.85 193.25 466.02 174.99 465.01C174.99 465.01 167.13 452.01 184.75 450.61C202.37 449.21 201.55 439.26 201.55 439.26C207.01 438.76 213.91 438.75 222.33 437.99L224.18 464.2Z" fill="#1B2D37"/>
<path d="M158.58 362.55L140.42 378.35L149.19 389.82C149.19 389.82 173.01 374.06 173.24 373.45C173.47 372.84 158.58 362.55 158.58 362.55Z" fill="#FFCDC2"/>
<path d="M137.61 405.82C129.28 395.74 117.61 382.11 107.55 366.87C107.55 366.87 113.26 352.8 124.93 366.08C136.6 379.36 144.07 372.76 144.07 372.76C147.73 376.84 151.87 382.37 157.52 388.66L137.61 405.82Z" fill="#1B2D37"/>
<path d="M239.61 262.76C239.61 262.76 238.8 268.63 238.72 271.29C238.72 271.29 228.8 273.63 226.57 275.98L242.27 282.14L250.96 280.75L253.44 271.75L239.61 262.76Z" fill="#E0A4AB"/>
<path d="M243 304.14L228.27 298.5C224.326 297.889 220.292 298.277 216.536 299.627C212.78 300.977 209.422 303.247 206.77 306.23C197.85 315.82 154.36 358.34 147.77 364.82C147.53 365.055 147.379 365.365 147.343 365.699C147.306 366.033 147.387 366.369 147.57 366.65C149.72 370.03 156.85 380.96 161.5 385.23C161.783 385.495 162.16 385.638 162.548 385.626C162.935 385.615 163.303 385.451 163.57 385.17C168.29 380.17 189.34 358.01 194.26 356.83C199.82 355.5 252.95 347.05 252.95 347.05C282.81 361.31 303.11 358.91 303.27 321.37L244.27 302.37L243 304.14Z" fill="#22393D"/>
<path d="M260.19 350.27C260.19 350.27 222.19 329.17 209.72 336.18C205.97 338.29 191.8 344.84 192.34 359.3C193.51 390.89 197.72 432.3 197.72 432.3C197.748 432.635 197.896 432.949 198.137 433.184C198.377 433.419 198.695 433.56 199.03 433.58C208.15 434.19 216.26 433.89 223.03 432.42C223.341 432.351 223.62 432.178 223.818 431.928C224.016 431.679 224.123 431.369 224.12 431.05C224.12 431.05 224.12 399.25 224.12 374.27C224.18 357.5 247.14 349.68 260.19 350.27Z" fill="#121E21"/>
<path d="M294.52 214.63C294.52 214.63 324.95 216.39 327.21 236.73C327.213 237.639 327.166 238.547 327.07 239.45C327.07 243.79 323.97 257.32 316.89 278.21C311.413 292.29 306.844 306.706 303.21 321.37C303.21 321.37 275.35 314.44 242.99 304.14C246.722 293.771 249.893 283.209 252.49 272.5C246.025 269.704 240.293 265.454 235.74 260.08C235.322 259.58 235.108 258.941 235.14 258.29C235.167 257.649 235.423 257.039 235.86 256.57C241.556 250.456 246.675 243.828 251.15 236.77C252.472 234.666 254.361 232.978 256.6 231.9L276.6 222.26L292.67 214.56L294.52 214.63Z" fill="#00AB45"/>
<path d="M266.26 213.17C266.26 213.17 271.31 219.74 266.72 226.93C266.085 227.915 265.703 229.042 265.61 230.21C265.27 234.92 265.77 245.4 278.73 236.88C279.508 236.364 280.235 235.774 280.9 235.12C286.958 229.135 292.088 222.28 296.12 214.78C296.12 214.78 284.29 203.73 279.12 193.02L266.26 213.17Z" fill="#FCD6DB"/>
<path d="M239.29 188.29L242.51 195.62C242.51 195.62 244.42 200.57 246.38 206.26C249.11 214.19 255.59 218.61 263.31 216.06C271.92 213.21 278.93 202.19 278.6 195.93L283.16 193.76L284.93 183.38L275.35 180.24L273.42 184.67L266.5 174.2L239.29 188.29Z" fill="#FFCDC2"/>
<path d="M233.33 191.27C233.33 191.27 233.44 155.65 261.62 157.27C264.262 157.441 266.846 158.12 269.23 159.27L269.32 159.32C269.32 159.32 292.78 150.18 291.15 189.12C291.05 191.54 289.15 201.97 286.54 204.12C286.54 204.12 282.23 203.79 278.6 195.9C278.6 195.9 281.78 193.38 282.34 189.98C282.6 188.35 282.68 185.74 280.34 184.19C277.58 182.33 273.6 185.41 275.57 190.86C273.47 191.61 267.57 180.13 266.82 176.38C266.82 176.38 263.82 180.45 234.66 192C234.526 192.063 234.379 192.093 234.232 192.088C234.084 192.083 233.939 192.044 233.81 191.972C233.68 191.901 233.569 191.801 233.486 191.679C233.403 191.557 233.349 191.417 233.33 191.27Z" fill="#1E1E1E"/>
<path d="M259.17 249.23C258.9 251.23 258.5 253.23 258.04 255.23C257.58 257.23 257.04 259.15 256.52 261.09C256 263.03 255.37 264.96 254.7 266.87C254.03 268.78 253.34 270.67 252.49 272.53C252.76 270.53 253.16 268.53 253.62 266.53C254.08 264.53 254.62 262.61 255.14 260.67C255.66 258.73 256.29 256.8 256.96 254.89C257.63 252.98 258.33 251.09 259.17 249.23Z" fill="#008E39"/>
<path d="M242.63 280C242.63 280 271.63 276.74 286.34 277.82C287.561 275.102 289.145 272.562 291.05 270.27C297.537 273.195 304.328 275.392 311.3 276.82L300.35 293.88C300.35 293.88 298.52 299.32 273.78 294.88C249.87 290.56 245.78 290.88 245.78 290.88L242.63 280Z" fill="#FFCDC2"/>
<path d="M296.85 235.47C296.46 238.23 295.93 240.97 295.34 243.7C294.53 246.36 293.72 249.03 292.85 251.7C291.98 254.37 291.03 256.97 290.03 259.57C289.53 260.87 289.03 262.17 288.46 263.46C288.19 264.1 287.91 264.74 287.61 265.38L287.18 266.33L286.96 266.8C286.917 266.899 286.887 267.003 286.87 267.11C286.848 267.184 286.843 267.262 286.855 267.338C286.867 267.414 286.896 267.486 286.94 267.55C286.974 267.602 287.023 267.644 287.08 267.67L287.54 267.89C288.16 268.19 288.78 268.47 289.41 268.76C290.67 269.33 291.94 269.86 293.21 270.39C295.77 271.44 298.35 272.39 300.97 273.26C303.59 274.13 306.25 274.86 308.92 275.51C311.562 276.345 314.254 277.013 316.98 277.51C314.173 277.526 311.371 277.312 308.6 276.87C305.869 276.259 303.172 275.508 300.52 274.62C297.853 273.747 295.236 272.78 292.67 271.72C291.37 271.18 290.09 270.64 288.82 270.06C288.18 269.78 287.54 269.48 286.91 269.18L286.43 268.95C286.177 268.818 285.955 268.634 285.78 268.41C285.621 268.19 285.51 267.94 285.451 267.675C285.393 267.41 285.389 267.136 285.44 266.87C285.481 266.631 285.555 266.399 285.66 266.18L285.87 265.71L286.3 264.77C286.59 264.15 286.87 263.52 287.13 262.88C287.68 261.61 288.18 260.33 288.69 259.04C289.69 256.47 290.61 253.86 291.47 251.24C292.33 248.62 293.18 245.97 293.93 243.31L296.85 235.47Z" fill="#008E39"/>
<path d="M242.63 280C242.63 280 238.84 281.28 227.11 274.71C225.852 274.028 224.44 273.684 223.01 273.71C220.01 273.71 215.01 274.28 211.58 277.12C211.232 277.35 210.898 277.6 210.58 277.87L210.14 278.34C209.379 279.13 208.799 280.075 208.44 281.111C208.081 282.147 207.951 283.249 208.06 284.34C208.103 285.71 208.444 287.055 209.06 288.28C210.35 290.13 211.23 287.19 211.23 287.19C211.23 287.19 211.69 290.51 213.72 290.95C213.873 290.97 214.03 290.955 214.176 290.904C214.323 290.854 214.455 290.77 214.564 290.659C214.673 290.549 214.754 290.415 214.802 290.267C214.85 290.12 214.863 289.963 214.84 289.81L214.65 288.68C214.65 288.68 216.12 292.37 217.57 291.07C217.751 290.898 217.889 290.684 217.971 290.447C218.053 290.211 218.076 289.958 218.04 289.71L217.95 288.92C217.95 288.92 218.71 292.56 220.61 291.92C220.999 291.777 221.328 291.506 221.544 291.152C221.76 290.798 221.85 290.382 221.8 289.97L221.67 288.68C221.655 288.55 221.655 288.42 221.67 288.29C221.81 287.36 222.67 283.9 227.28 287.06C230.24 289.416 233.823 290.858 237.59 291.21C243.59 291.65 245.72 290.92 245.72 290.92L242.63 280Z" fill="#FFCDC2"/>
<path d="M213.2 279.82C212.71 280.983 212.325 282.188 212.05 283.42C211.9 284.03 211.79 284.64 211.66 285.26C211.53 285.88 211.43 286.51 211.27 287.15C211.134 286.509 211.076 285.855 211.1 285.2C211.118 284.543 211.202 283.89 211.35 283.25C211.504 282.61 211.729 281.99 212.02 281.4C212.304 280.8 212.705 280.263 213.2 279.82Z" fill="#E0A4AB"/>
<path d="M216 282C215.71 283.14 215.39 284.21 215.15 285.3C215.01 285.84 214.93 286.39 214.84 286.94C214.75 287.49 214.72 288.04 214.67 288.64C214.22 287.528 214.14 286.301 214.44 285.14C214.575 284.563 214.773 284.003 215.03 283.47C215.277 282.933 215.604 282.437 216 282Z" fill="#E0A4AB"/>
<path d="M218.64 284C218.48 284.87 218.3 285.64 218.18 286.43C218.11 286.82 218.08 287.22 218.04 287.62C218 288.02 218.04 288.42 218.04 288.87C217.778 288.509 217.603 288.091 217.53 287.65C217.456 287.21 217.456 286.76 217.53 286.32C217.599 285.883 217.731 285.459 217.92 285.06C218.09 284.664 218.334 284.304 218.64 284Z" fill="#E0A4AB"/>
<path d="M236.67 279.14C238.524 279.468 240.206 280.43 241.43 281.86C241.738 282.213 242.015 282.591 242.26 282.99C242.501 283.394 242.705 283.819 242.87 284.26C243.207 285.124 243.38 286.043 243.38 286.97C243.116 286.117 242.781 285.288 242.38 284.49C241.983 283.709 241.485 282.983 240.9 282.33C240.329 281.666 239.685 281.069 238.98 280.55C238.25 280.018 237.477 279.546 236.67 279.14Z" fill="#E0A4AB"/>
<path d="M277.14 193.08C277.298 193.196 277.477 193.279 277.668 193.324C277.859 193.368 278.057 193.374 278.25 193.34C278.621 193.256 278.95 193.044 279.18 192.74C279.664 192.123 280.021 191.416 280.23 190.66C280.477 189.937 280.556 189.168 280.46 188.41C280.363 187.689 280.008 187.028 279.46 186.55C279.219 186.318 278.911 186.17 278.579 186.127C278.248 186.083 277.912 186.148 277.62 186.31C277.086 186.804 276.76 187.484 276.71 188.21C276.577 188.974 276.642 189.759 276.9 190.49C277.03 190.83 277.24 191.22 277.58 191.27C277.92 191.32 278.2 190.89 278.39 190.55C278.33 190.748 278.243 190.937 278.13 191.11C278.068 191.206 277.985 191.287 277.889 191.347C277.792 191.408 277.683 191.446 277.57 191.46C277.454 191.456 277.34 191.428 277.235 191.378C277.13 191.328 277.036 191.257 276.96 191.17C276.807 191.014 276.679 190.835 276.58 190.64C276.219 189.859 276.07 188.997 276.15 188.14C276.18 187.708 276.274 187.284 276.43 186.88C276.576 186.428 276.859 186.033 277.24 185.75C277.647 185.465 278.148 185.347 278.64 185.42C279.105 185.497 279.543 185.693 279.91 185.99C280.6 186.58 281.043 187.408 281.15 188.31C281.241 189.174 281.114 190.048 280.78 190.85C280.487 191.641 280.038 192.366 279.46 192.98C279.148 193.291 278.738 193.485 278.3 193.53C278.085 193.546 277.869 193.515 277.669 193.437C277.468 193.359 277.287 193.237 277.14 193.08Z" fill="#E0A4AB"/>
<path d="M276.5 190.2C276.436 189.914 276.436 189.616 276.5 189.33C276.547 189.173 276.629 189.03 276.74 188.91C276.875 188.797 277.037 188.721 277.21 188.69C277.549 188.662 277.887 188.756 278.163 188.956C278.438 189.156 278.632 189.449 278.71 189.78C278.834 190.4 278.715 191.044 278.38 191.58C278.247 191.843 278.053 192.07 277.815 192.244C277.577 192.418 277.301 192.533 277.01 192.58C277.479 192.302 277.834 191.866 278.01 191.35C278.222 190.891 278.291 190.379 278.21 189.88C278.169 189.657 278.054 189.454 277.884 189.305C277.713 189.156 277.496 189.07 277.27 189.06C276.84 189 276.59 189.67 276.5 190.2Z" fill="#E0A4AB"/>
<path d="M145.19 293.66H208.46L201 251C200.899 250.416 200.594 249.887 200.14 249.507C199.687 249.126 199.113 248.918 198.52 248.92H138.25C137.883 248.92 137.521 249.001 137.188 249.156C136.855 249.311 136.561 249.537 136.324 249.818C136.088 250.099 135.916 250.429 135.821 250.783C135.725 251.137 135.708 251.508 135.77 251.87L142.71 291.55C142.807 292.138 143.11 292.673 143.564 293.059C144.018 293.446 144.594 293.658 145.19 293.66Z" fill="#121E21"/>
<path d="M233.06 293.66H168.32V288.9H233.06C233.604 288.9 234.125 289.116 234.51 289.5C234.894 289.885 235.11 290.406 235.11 290.95V291.61C235.11 292.154 234.894 292.675 234.51 293.06C234.125 293.444 233.604 293.66 233.06 293.66Z" fill="#121E21"/>
<path d="M167.69 271.38C167.63 270.808 167.693 270.231 167.872 269.685C168.052 269.139 168.345 268.637 168.732 268.212C169.119 267.787 169.592 267.449 170.119 267.219C170.645 266.99 171.215 266.874 171.79 266.88C172.97 266.903 174.102 267.357 174.971 268.156C175.841 268.956 176.388 270.045 176.51 271.22C176.569 271.792 176.507 272.37 176.326 272.916C176.146 273.463 175.852 273.964 175.464 274.389C175.075 274.813 174.601 275.15 174.073 275.378C173.545 275.605 172.975 275.719 172.4 275.71C171.221 275.689 170.091 275.237 169.223 274.439C168.355 273.641 167.809 272.553 167.69 271.38ZM170.09 269.45C169.877 269.689 169.716 269.97 169.618 270.275C169.52 270.58 169.486 270.902 169.52 271.22C169.603 271.933 169.94 272.593 170.468 273.079C170.997 273.566 171.682 273.846 172.4 273.87C172.719 273.878 173.036 273.817 173.33 273.692C173.624 273.566 173.888 273.379 174.103 273.143C174.318 272.907 174.48 272.627 174.578 272.323C174.676 272.019 174.707 271.697 174.67 271.38C174.586 270.667 174.25 270.007 173.721 269.521C173.193 269.034 172.507 268.754 171.79 268.73C171.472 268.724 171.156 268.784 170.863 268.909C170.57 269.033 170.306 269.217 170.09 269.45Z" fill="#C0D4D8"/>
<path d="M271.93 462.35L286.86 299.6C286.99 297.884 287.758 296.279 289.013 295.102C290.268 293.924 291.919 293.26 293.64 293.24H339.32C340.549 293.258 341.72 293.762 342.58 294.64C343.44 295.518 343.918 296.701 343.91 297.93L343.36 461.05C343.369 461.407 343.307 461.762 343.178 462.096C343.049 462.429 342.855 462.733 342.608 462.99C342.361 463.248 342.064 463.454 341.737 463.596C341.409 463.739 341.057 463.815 340.7 463.82H336.78C336.067 463.809 335.387 463.518 334.889 463.008C334.391 462.499 334.114 461.813 334.12 461.1L334.79 303.27H296.68L281.68 462.6C281.654 462.931 281.506 463.24 281.263 463.466C281.02 463.692 280.701 463.818 280.37 463.82H273.19C273.008 463.813 272.83 463.768 272.666 463.689C272.502 463.61 272.357 463.498 272.239 463.36C272.12 463.222 272.032 463.061 271.979 462.887C271.926 462.714 271.909 462.531 271.93 462.35Z" fill="#D8D8DF"/>
<path d="M72.5704 300.2H61.4203L46.1104 463.82H51.9504L72.5704 300.2Z" fill="#333333"/>
<path d="M116.58 300.2H105.43L90.1201 463.82H95.9601L116.58 300.2Z" fill="#333333"/>
<path d="M364.39 300.2H375.54L390.85 463.82H385.01L364.39 300.2Z" fill="#333333"/>
<path d="M320.38 300.2H331.53L346.84 463.82H341L320.38 300.2Z" fill="#333333"/>
<path d="M405.59 291.65H31.3701V307.06H405.59V291.65Z" fill="#BC5B35"/>
<path d="M405.59 291.65H344.07V307.06H405.59V291.65Z" fill="#842F14"/>
<path d="M355 283.88V273.83H349.89V283.88C349.89 284.901 350.091 285.912 350.482 286.856C350.873 287.799 351.446 288.656 352.169 289.378C352.892 290.099 353.749 290.672 354.693 291.061C355.637 291.451 356.648 291.651 357.67 291.65H362.78C361.758 291.651 360.747 291.451 359.803 291.061C358.859 290.672 358.002 290.099 357.279 289.378C356.556 288.656 355.983 287.799 355.592 286.856C355.201 285.912 355 284.901 355 283.88Z" fill="#FF6A66"/>
<path d="M371.78 283.88V273.83H355V283.88C355 284.901 355.201 285.912 355.592 286.856C355.984 287.799 356.557 288.656 357.279 289.378C358.002 290.099 358.86 290.672 359.803 291.061C360.747 291.451 361.759 291.651 362.78 291.65H364C366.062 291.65 368.039 290.832 369.498 289.375C370.957 287.918 371.777 285.942 371.78 283.88Z" fill="#CC3A2F"/>
<path d="M378.27 289.78H343.91V291.65H378.27V289.78Z" fill="#CC3A2F"/>
<path d="M372.57 276.23C371.741 276.23 370.931 276.476 370.242 276.936C369.553 277.397 369.016 278.051 368.699 278.817C368.382 279.582 368.299 280.425 368.46 281.237C368.622 282.05 369.021 282.797 369.607 283.383C370.193 283.969 370.94 284.368 371.752 284.529C372.565 284.691 373.408 284.608 374.173 284.291C374.939 283.974 375.593 283.437 376.054 282.748C376.514 282.059 376.76 281.249 376.76 280.42C376.76 279.309 376.318 278.243 375.533 277.457C374.747 276.671 373.681 276.23 372.57 276.23ZM372.57 282.99C372.061 282.992 371.563 282.843 371.139 282.562C370.715 282.281 370.384 281.88 370.188 281.41C369.992 280.941 369.94 280.424 370.038 279.925C370.136 279.426 370.38 278.967 370.739 278.606C371.098 278.246 371.556 278 372.055 277.9C372.554 277.8 373.071 277.85 373.541 278.045C374.011 278.239 374.413 278.568 374.696 278.991C374.979 279.414 375.13 279.911 375.13 280.42C375.131 280.758 375.066 281.092 374.938 281.404C374.81 281.717 374.622 282.001 374.384 282.24C374.147 282.48 373.864 282.67 373.553 282.801C373.241 282.931 372.907 282.999 372.57 283V282.99Z" fill="#CC3A2F"/>
<path d="M356.56 261.18C356.02 261.91 355.726 262.792 355.72 263.7C355.78 264.509 356.026 265.293 356.44 265.99L357.16 267.23C357.412 267.709 357.617 268.211 357.77 268.73C357.93 269.296 357.954 269.893 357.84 270.47C357.794 270.773 357.638 271.048 357.402 271.244C357.166 271.439 356.867 271.541 356.56 271.53C356.737 271.407 356.869 271.231 356.937 271.028C357.006 270.824 357.007 270.604 356.94 270.4C356.815 270.003 356.641 269.623 356.42 269.27C356.18 268.9 355.93 268.52 355.66 268.15L355.25 267.57L354.82 266.87C354.222 265.851 354.032 264.643 354.29 263.49C354.427 262.937 354.71 262.431 355.109 262.024C355.509 261.618 356.01 261.326 356.56 261.18Z" fill="#F2F2F2"/>
<path d="M361 258.55C360.204 259.406 359.718 260.505 359.62 261.67C359.649 262.736 359.971 263.774 360.55 264.67L361.55 266.22C361.894 266.802 362.176 267.419 362.39 268.06C362.64 268.748 362.706 269.489 362.58 270.21C362.5 270.597 362.297 270.949 362 271.21C361.863 271.326 361.703 271.415 361.532 271.47C361.36 271.525 361.18 271.545 361 271.53C361.244 271.399 361.439 271.193 361.558 270.943C361.676 270.693 361.712 270.412 361.66 270.14C361.544 269.609 361.338 269.101 361.05 268.64C360.73 268.16 360.44 267.64 360.05 267.19C359.86 266.95 359.69 266.72 359.51 266.46L358.94 265.61C358.77 265.3 358.62 264.98 358.47 264.66C358.32 264.34 358.24 263.98 358.15 263.66C357.985 262.933 357.985 262.177 358.15 261.45C358.322 260.756 358.678 260.121 359.179 259.611C359.68 259.101 360.309 258.734 361 258.55Z" fill="#F2F2F2"/>
<path d="M366.13 261.18C365.59 261.91 365.296 262.792 365.29 263.7C365.34 264.512 365.584 265.301 366 266L366.72 267.24C366.969 267.719 367.17 268.222 367.32 268.74C367.488 269.305 367.515 269.902 367.4 270.48C367.354 270.783 367.198 271.058 366.962 271.254C366.726 271.449 366.426 271.551 366.12 271.54C366.294 271.416 366.425 271.239 366.491 271.036C366.558 270.833 366.557 270.613 366.49 270.41C366.373 270.012 366.201 269.631 365.98 269.28C365.74 268.91 365.49 268.53 365.22 268.16L364.81 267.58L364.38 266.88C363.781 265.861 363.592 264.653 363.85 263.5C363.986 262.944 364.27 262.435 364.671 262.026C365.072 261.618 365.576 261.326 366.13 261.18Z" fill="#F2F2F2"/>
<path d="M367.27 26.19H303.58V89.88H367.27V26.19Z" fill="#EFEFEF"/>
<path d="M361.54 31.92H309.3V84.16H361.54V31.92Z" fill="white"/>
<path d="M348.14 58C348.14 60.5158 347.394 62.9751 345.997 65.0669C344.599 67.1587 342.612 68.789 340.288 69.7518C337.964 70.7145 335.406 70.9664 332.939 70.4756C330.471 69.9848 328.205 68.7734 326.426 66.9944C324.647 65.2155 323.435 62.949 322.945 60.4816C322.454 58.0141 322.706 55.4566 323.668 53.1323C324.631 50.808 326.262 48.8214 328.353 47.4237C330.445 46.026 332.904 45.28 335.42 45.28V58H348.14Z" fill="#EFEFEF"/>
<path d="M451.07 26.19H387.38V89.88H451.07V26.19Z" fill="#EFEFEF"/>
<path d="M445.35 31.92H393.11V84.16H445.35V31.92Z" fill="white"/>
<path d="M413.99 41.87H403.07V52.79H413.99V41.87Z" fill="#DADADA"/>
<path d="M424.69 52.58H413.77V63.5H424.69V52.58Z" fill="#DADADA"/>
<path d="M435.4 63.28H424.48V74.2H435.4V63.28Z" fill="#DADADA"/>
<path d="M451.07 109.86H387.38V173.55H451.07V109.86Z" fill="#EFEFEF"/>
<path d="M445.35 115.58H393.11V167.82H445.35V115.58Z" fill="white"/>
<path d="M419.23 155.08C416.583 155.08 413.996 154.295 411.796 152.825C409.596 151.355 407.881 149.265 406.868 146.82C405.855 144.375 405.59 141.685 406.107 139.09C406.623 136.494 407.897 134.11 409.769 132.239C411.64 130.368 414.024 129.093 416.619 128.577C419.215 128.061 421.905 128.326 424.35 129.339C426.795 130.351 428.884 132.066 430.355 134.266C431.825 136.467 432.61 139.054 432.61 141.7C432.607 145.248 431.196 148.65 428.688 151.158C426.179 153.667 422.777 155.077 419.23 155.08ZM419.23 133.62C417.629 133.62 416.065 134.095 414.734 134.984C413.403 135.874 412.366 137.138 411.754 138.616C411.142 140.095 410.983 141.722 411.296 143.292C411.609 144.862 412.38 146.303 413.513 147.434C414.645 148.565 416.088 149.335 417.657 149.646C419.227 149.957 420.854 149.795 422.332 149.181C423.811 148.567 425.073 147.529 425.961 146.197C426.849 144.866 427.322 143.3 427.32 141.7C427.317 139.556 426.463 137.501 424.947 135.986C423.43 134.471 421.373 133.62 419.23 133.62Z" fill="#EFEFEF"/>
<path d="M496.96 463.58H0V466.58H496.96V463.58Z" fill="#C7C7C7"/>
</g>
<defs>
<clipPath id="clip0_157_12235">
<rect width="496.96" height="466.58" fill="white"/>
</clipPath>
</defs>
</svg>
